{"glyphs":{"0":{"ha":942,"x_min":0,"x_max":0,"o":"m 875 479 b 844 278 875 406 865 339 b 758 120 823 217 794 164 b 629 17 721 76 678 42 b 471 -19 580 -7 527 -19 b 313 17 414 -19 362 -7 b 184 120 263 42 221 76 b 98 278 147 164 119 217 b 67 479 77 339 67 406 b 98 681 67 552 77 619 b 184 838 119 742 147 794 b 313 941 221 882 263 916 b 471 978 362 966 414 978 b 629 941 527 978 580 966 b 758 838 678 916 721 882 b 844 681 794 794 823 742 b 875 479 865 619 875 552 m 210 479 b 224 293 210 412 215 350 b 270 147 234 237 249 188 b 351 50 291 105 318 73 b 471 15 385 27 425 15 b 590 50 517 15 557 27 b 672 147 624 73 651 105 b 719 293 694 188 709 237 b 733 479 728 350 733 412 b 719 666 733 547 728 609 b 672 813 709 723 694 772 b 590 910 651 854 624 887 b 471 944 557 933 517 944 b 351 910 425 944 385 933 b 270 813 318 887 291 854 b 224 666 249 772 234 723 b 210 479 215 609 210 547 "},"1":{"ha":385,"x_min":0,"x_max":0,"o":"m 147 907 l 29 907 l 29 935 b 167 949 75 938 122 942 b 285 972 213 956 252 964 l 285 0 l 147 0 "},"2":{"ha":803,"x_min":0,"x_max":0,"o":"m 38 31 b 178 132 88 66 134 100 b 310 233 222 164 266 198 b 403 317 340 257 372 285 b 492 424 435 349 465 385 b 558 554 519 464 541 507 b 583 707 575 601 583 652 b 530 880 583 781 566 839 b 364 942 494 921 439 942 b 259 924 326 942 291 936 b 176 875 227 912 200 895 b 122 803 153 855 135 831 b 103 715 109 775 103 746 b 147 589 103 663 118 620 b 257 542 177 557 213 542 b 313 551 278 542 297 545 b 353 576 328 558 342 566 b 381 612 364 587 373 598 b 400 653 389 625 395 639 l 429 642 b 408 595 425 626 418 610 b 373 553 399 580 387 566 b 321 523 359 541 341 531 b 251 511 300 515 277 511 b 178 526 225 511 200 516 b 119 567 156 535 136 549 b 81 633 103 585 90 607 b 67 717 71 658 67 686 b 89 817 67 752 74 785 b 153 901 104 849 125 877 b 256 957 182 924 216 943 b 392 978 297 971 342 978 b 641 909 499 978 582 955 b 729 710 700 863 729 797 b 694 575 729 663 718 619 b 607 450 671 531 642 490 b 490 337 572 410 533 372 b 367 240 448 301 406 269 b 289 181 342 220 316 200 b 213 128 262 162 237 144 l 213 125 l 763 125 l 763 0 l 40 0 l 38 31 "},"3":{"ha":789,"x_min":0,"x_max":0,"o":"m 311 15 b 535 84 416 15 491 38 b 603 285 580 130 603 197 b 560 455 603 360 589 416 b 418 513 532 493 485 513 b 325 492 385 513 354 506 b 243 425 296 478 269 456 l 219 446 l 563 842 l 563 843 l 101 843 l 101 958 l 686 958 l 686 931 l 326 519 l 326 518 b 383 538 343 525 362 532 b 454 546 405 543 428 546 b 670 478 549 546 621 523 b 744 289 720 434 744 370 b 713 160 744 241 734 198 b 626 63 692 122 663 90 b 492 2 588 37 544 16 b 321 -19 440 -12 383 -19 b 213 -4 281 -19 245 -14 b 126 33 180 6 151 18 b 62 80 101 47 80 63 b 19 129 44 97 30 113 l 47 151 b 88 106 57 137 71 121 b 146 62 104 90 124 75 b 221 28 168 48 193 37 b 311 15 249 20 279 15 "},"4":{"ha":793,"x_min":0,"x_max":0,"o":"m 460 285 l 28 285 l 28 317 l 511 960 l 597 960 l 597 318 l 757 318 l 757 285 l 597 285 l 597 0 l 460 0 m 460 836 l 456 836 l 69 318 l 460 318 "},"5":{"ha":765,"x_min":0,"x_max":0,"o":"m 251 844 l 172 521 l 174 519 b 261 573 197 543 226 560 b 381 592 296 585 336 592 b 511 574 428 592 471 586 b 613 520 551 562 585 544 b 680 432 641 497 664 467 b 704 311 696 397 704 356 b 674 175 704 261 694 216 b 590 71 654 134 626 100 b 460 4 554 42 511 20 b 293 -19 410 -12 354 -19 b 190 -5 256 -19 222 -15 b 104 33 158 5 129 18 b 40 86 79 49 58 67 b -3 146 22 106 7 125 l 26 167 b 67 110 37 147 50 128 b 126 61 83 91 103 75 b 201 27 148 47 174 36 b 292 14 229 18 259 14 b 417 35 341 14 382 21 b 501 94 451 49 479 69 b 549 188 522 120 538 152 b 564 311 559 225 564 266 b 509 499 564 398 546 461 b 356 557 472 538 421 557 b 244 533 317 557 280 549 b 158 464 209 516 181 494 l 126 476 l 243 958 l 707 958 l 683 844 "},"6":{"ha":836,"x_min":0,"x_max":0,"o":"m 431 -19 b 291 8 381 -19 335 -10 b 175 86 247 26 208 52 b 95 213 142 120 115 163 b 65 385 75 264 65 321 b 105 626 65 473 78 553 b 212 813 131 698 167 761 b 367 935 257 866 309 906 b 553 978 426 963 488 978 b 642 968 587 978 617 975 b 708 943 668 962 690 953 b 754 908 727 933 742 921 b 783 865 766 894 776 880 l 754 849 b 728 884 748 861 739 872 b 688 915 718 896 704 906 b 631 938 672 925 653 932 b 551 947 608 944 582 947 b 401 907 493 947 443 934 b 297 801 360 880 325 845 b 235 650 269 757 249 706 b 213 476 221 594 213 536 l 214 476 b 304 590 231 524 262 561 b 463 632 347 618 400 632 b 590 610 508 632 550 625 b 691 549 629 596 663 575 b 758 451 719 522 741 489 b 782 322 774 412 782 369 b 753 185 782 272 772 226 b 677 76 734 143 709 107 b 565 6 645 46 608 22 b 431 -19 523 -11 478 -19 m 429 14 b 585 88 496 14 548 38 b 640 319 622 137 640 214 b 590 526 640 411 623 480 b 440 596 556 573 506 596 b 351 578 409 596 379 590 b 276 524 322 566 298 548 b 226 436 255 501 238 471 b 207 313 213 401 207 360 b 269 89 207 213 228 139 b 429 14 310 39 363 14 "},"7":{"ha":679,"x_min":0,"x_max":0,"o":"m 43 958 l 675 958 l 675 928 l 157 0 l 111 0 l 583 842 l 40 842 "},"8":{"ha":757,"x_min":0,"x_max":0,"o":"m 703 261 b 681 151 703 222 695 186 b 615 63 666 117 644 88 b 509 3 587 38 551 18 b 365 -19 467 -12 419 -19 b 239 -4 319 -19 277 -14 b 142 40 201 6 169 21 b 79 113 115 60 94 84 b 57 214 64 142 57 176 b 77 301 57 245 64 274 b 128 371 91 327 108 350 b 198 424 149 391 172 409 b 272 461 223 438 248 451 b 204 500 249 472 226 485 b 145 553 182 515 162 532 b 103 624 128 573 114 597 b 88 721 93 652 88 684 b 111 826 88 760 95 795 b 176 908 127 858 148 885 b 272 960 203 930 235 948 b 389 978 308 972 347 978 b 499 966 429 978 465 974 b 584 928 532 958 560 945 b 639 861 608 910 626 888 b 658 764 652 834 658 802 b 604 625 658 710 640 664 b 471 535 568 586 524 556 b 568 483 507 518 539 501 b 641 424 597 465 621 445 b 687 352 661 402 676 378 b 703 261 697 326 703 295 m 182 786 b 199 713 182 758 188 734 b 250 653 211 691 228 672 b 331 602 272 635 299 618 b 436 550 362 586 397 569 b 569 635 491 572 535 601 b 621 763 604 670 621 713 b 559 903 621 826 600 873 b 389 947 518 932 461 947 b 238 903 326 947 276 932 b 182 786 201 873 182 834 m 96 215 b 168 66 96 151 120 102 b 365 13 216 30 282 13 b 478 26 409 13 446 17 b 555 64 509 36 535 48 b 599 119 575 80 590 98 b 614 183 609 140 614 161 b 589 269 614 216 606 244 b 522 336 572 293 550 316 b 424 392 493 356 461 375 b 308 446 387 409 348 427 b 233 410 283 436 258 424 b 165 360 208 396 186 379 b 115 297 145 341 128 320 b 96 215 102 273 96 246 "},"9":{"ha":838,"x_min":0,"x_max":0,"o":"m 407 978 b 549 951 457 978 504 969 b 665 872 593 933 632 906 b 745 746 699 838 725 796 b 775 575 765 696 775 639 b 739 333 775 487 763 406 b 640 145 715 260 682 197 b 492 24 599 93 549 52 b 306 -19 434 -5 372 -19 b 145 15 238 -19 184 -8 b 64 93 106 37 79 63 l 96 111 b 122 76 102 99 111 87 b 165 44 133 64 147 54 b 225 22 182 35 202 28 b 304 13 248 16 275 13 b 457 53 365 13 416 26 b 556 160 498 81 531 116 b 610 310 581 204 599 254 b 628 481 621 366 627 423 l 626 481 b 535 368 608 433 577 396 b 376 326 492 340 439 326 b 249 348 330 326 288 334 b 148 410 210 362 176 383 b 81 509 120 438 97 471 b 57 638 65 547 57 590 b 85 775 57 688 66 733 b 163 883 104 817 130 853 b 274 953 195 913 232 936 b 407 978 316 969 361 978 m 408 944 b 256 871 345 944 295 920 b 199 639 218 822 199 744 b 399 364 199 456 265 364 b 488 381 430 364 460 370 b 563 433 516 393 541 410 b 613 519 584 455 601 484 b 632 643 626 555 632 596 b 574 869 632 744 613 819 b 408 944 536 919 481 944 "},"\u0000":{"ha":0,"x_min":0,"x_max":0,"o":""},"\r":{"ha":278,"x_min":0,"x_max":0,"o":""}," ":{"ha":278,"x_min":0,"x_max":0,"o":""},"!":{"ha":339,"x_min":0,"x_max":0,"o":"m 111 721 b 107 758 110 729 109 741 b 102 808 105 774 103 791 b 99 857 101 825 100 841 b 97 893 98 873 97 885 b 117 956 97 920 104 941 b 171 979 130 972 148 979 b 224 956 194 979 212 972 b 243 893 237 941 243 920 b 242 857 243 885 243 873 b 238 808 241 841 240 825 b 235 758 237 791 236 774 b 232 721 234 741 233 729 l 183 244 l 157 244 m 244 61 b 224 8 244 40 238 22 b 171 -14 210 -7 192 -14 b 119 8 150 -14 132 -7 b 99 61 105 22 99 40 b 119 113 99 81 105 99 b 171 133 132 126 150 133 b 224 113 192 133 210 126 b 244 61 238 99 244 81 "},"\"":{"ha":418,"x_min":0,"x_max":0,"o":"m 288 650 l 254 650 l 268 965 l 383 965 m 111 650 l 78 650 l 92 965 l 207 965 "},"#":{"ha":853,"x_min":0,"x_max":0,"o":"m 283 321 l 238 0 l 206 0 l 251 321 l 33 321 l 33 349 l 256 349 l 296 624 l 75 624 l 75 651 l 300 651 l 344 958 l 376 958 l 332 651 l 579 651 l 624 958 l 656 958 l 611 651 l 819 651 l 819 624 l 607 624 l 567 349 l 778 349 l 778 321 l 563 321 l 517 0 l 485 0 l 531 321 m 575 624 l 328 624 l 288 349 l 535 349 "},"$":{"ha":782,"x_min":0,"x_max":0,"o":"m 392 -19 b 365 -19 382 -19 374 -19 b 340 -17 357 -18 349 -18 l 340 -149 l 310 -149 l 311 -11 b 148 78 244 2 190 32 b 71 260 106 125 80 186 l 104 265 b 171 101 112 197 134 142 b 311 21 208 61 255 34 l 313 442 b 217 481 277 453 246 466 b 145 535 189 495 165 513 b 99 611 125 556 110 581 b 83 717 89 641 83 676 b 101 806 83 748 89 778 b 149 882 112 834 128 860 b 222 938 169 904 194 923 b 315 971 251 953 282 964 l 317 1110 l 346 1110 l 346 975 b 363 976 351 976 357 976 l 379 976 b 417 975 392 976 405 976 b 453 971 429 974 441 973 l 453 1110 l 483 1110 l 482 964 b 601 896 527 953 567 930 b 671 740 634 862 658 810 l 639 736 b 580 869 627 794 607 839 b 482 933 553 899 520 920 l 481 540 b 588 496 521 526 557 512 b 666 440 619 480 645 462 b 713 365 687 419 702 394 b 728 264 723 337 728 303 b 664 86 728 196 706 137 b 478 -12 621 35 559 2 l 476 -149 l 447 -149 l 447 -17 b 421 -19 439 -18 430 -18 b 392 -19 412 -19 402 -19 m 640 194 b 603 315 640 246 628 287 b 479 390 579 344 538 369 l 478 19 b 602 84 535 31 577 52 b 640 194 628 116 640 153 m 342 15 b 367 13 350 14 358 14 b 393 13 375 13 384 13 b 422 13 403 13 413 13 b 449 15 430 14 439 14 l 450 400 b 411 413 437 405 424 409 b 368 425 398 416 384 420 l 343 432 m 406 564 b 428 558 413 562 420 560 b 450 550 435 555 443 553 l 451 940 b 417 946 440 943 429 945 b 379 947 405 947 392 947 l 361 947 b 344 946 356 947 350 947 l 343 582 l 406 564 m 168 774 b 177 705 168 747 171 724 b 204 656 183 686 192 669 b 249 619 216 642 231 630 b 314 592 267 609 289 600 l 315 940 b 208 883 271 930 235 911 b 168 774 181 854 168 818 "},"%":{"ha":1054,"x_min":0,"x_max":0,"o":"m 43 722 b 60 826 43 760 49 795 b 108 907 72 858 88 885 b 177 959 128 929 151 947 b 261 978 203 972 231 978 b 345 959 291 978 319 972 b 415 907 372 947 395 929 b 462 826 434 885 450 858 b 479 722 473 795 479 760 b 462 618 479 684 473 650 b 415 538 450 587 434 560 b 345 485 395 515 372 498 b 261 467 319 473 291 467 b 176 485 231 467 202 473 b 107 538 149 498 126 515 b 60 618 88 560 72 587 b 43 722 49 650 43 684 m 814 960 l 276 0 l 242 0 l 779 960 m 261 951 b 140 722 181 951 140 875 b 171 553 140 648 150 592 b 261 494 191 514 221 494 b 350 553 300 494 330 514 b 381 722 370 592 381 648 b 261 951 381 875 341 951 m 574 239 b 591 343 574 277 579 312 b 638 424 603 375 618 401 b 708 476 658 446 681 463 b 793 494 735 488 763 494 b 877 476 823 494 851 488 b 947 424 903 463 927 446 b 994 343 966 401 982 375 b 1011 239 1005 312 1011 277 b 994 135 1011 201 1005 166 b 947 54 982 103 966 76 b 877 2 927 32 903 15 b 793 -17 851 -10 823 -17 b 708 2 763 -17 734 -10 b 638 54 681 15 658 32 b 591 135 618 76 603 103 b 574 239 579 166 574 201 m 793 468 b 672 239 713 468 672 392 b 703 69 672 165 682 108 b 793 11 723 31 753 11 b 883 69 832 11 862 31 b 914 239 903 108 914 165 b 793 468 914 392 874 468 "},"&":{"ha":1040,"x_min":0,"x_max":0,"o":"m 1040 178 b 1019 110 1036 156 1029 133 b 982 46 1010 87 998 65 b 922 -1 966 26 946 11 b 835 -19 898 -13 869 -19 b 749 -1 804 -19 776 -13 b 672 50 723 12 697 29 b 622 96 656 64 639 79 b 571 149 604 113 588 130 b 524 85 558 126 542 105 b 462 32 506 66 485 48 b 383 -6 438 16 412 4 b 289 -19 353 -15 322 -19 b 191 -3 253 -19 220 -14 b 116 42 162 7 137 22 b 67 112 95 61 79 84 b 50 203 56 139 50 169 b 73 306 50 241 58 275 b 132 390 88 337 108 365 b 213 457 156 415 183 438 b 300 510 242 476 271 494 b 254 614 281 542 266 577 b 236 731 242 651 236 690 b 256 838 236 771 243 807 b 310 916 270 869 288 895 b 385 963 332 937 357 952 b 471 978 413 973 441 978 b 594 936 521 978 562 964 b 642 807 626 908 642 865 b 624 733 642 782 636 757 b 579 664 613 709 598 686 b 514 601 561 642 539 621 b 438 549 489 582 463 564 b 482 487 452 527 467 507 b 524 429 497 467 511 448 b 569 367 537 411 552 390 b 628 294 587 344 606 319 b 687 442 645 343 665 392 b 761 565 709 493 733 534 b 806 602 775 581 790 593 b 863 615 822 611 841 615 b 930 594 892 615 915 608 b 963 550 945 581 956 566 l 935 535 b 909 569 928 549 920 560 b 861 583 898 579 882 583 b 819 573 845 583 831 580 b 783 543 807 566 795 556 b 745 488 769 527 757 509 b 713 420 734 467 723 445 b 682 343 702 396 692 370 b 653 264 672 316 662 290 b 711 198 671 242 691 220 b 772 139 731 176 752 156 b 840 90 794 119 817 103 b 904 71 863 77 885 71 b 978 100 938 71 963 81 b 1013 185 993 119 1004 148 l 1040 178 m 174 253 b 223 106 174 188 190 139 b 364 57 256 73 303 57 b 483 92 413 57 453 69 b 551 169 513 116 536 142 b 483 253 528 196 506 224 l 417 339 b 367 405 402 358 385 380 b 314 485 349 429 331 456 b 266 449 298 475 282 463 b 221 400 250 435 235 419 b 187 335 207 381 196 360 b 174 253 178 311 174 283 m 342 801 b 365 683 342 761 349 721 b 421 574 380 645 399 609 b 490 621 445 588 468 603 b 549 677 513 638 532 657 b 589 740 565 697 579 718 b 604 806 599 761 604 783 b 569 913 604 855 592 891 b 471 947 545 936 513 947 b 379 912 435 947 404 935 b 342 801 354 888 342 851 "},"'":{"ha":242,"x_min":0,"x_max":0,"o":"m 111 650 l 78 650 l 92 965 l 207 965 "},"(":{"ha":365,"x_min":0,"x_max":0,"o":"m 164 388 b 180 189 164 315 169 249 b 222 26 191 129 205 74 b 281 -103 240 -23 259 -66 b 346 -199 303 -141 325 -173 l 325 -214 b 245 -122 301 -189 274 -158 b 162 6 216 -86 188 -43 b 96 175 135 56 113 112 b 69 388 78 238 69 309 b 96 600 69 466 78 537 b 162 768 113 663 135 719 b 245 897 188 817 216 860 b 325 989 274 933 301 964 l 346 974 b 281 878 325 947 303 915 b 222 749 259 841 240 798 b 180 586 205 701 191 646 b 164 388 169 526 164 460 "},")":{"ha":365,"x_min":0,"x_max":0,"o":"m 203 388 b 186 586 203 460 197 526 b 144 749 175 646 161 701 b 85 878 127 798 107 841 b 21 974 64 915 42 947 l 42 989 b 121 897 65 964 91 933 b 204 769 150 861 178 818 b 269 600 230 719 252 663 b 296 388 287 537 296 466 b 269 175 296 309 287 238 b 204 6 252 112 230 56 b 121 -122 178 -43 150 -86 b 42 -214 91 -158 65 -189 l 21 -199 b 85 -103 42 -172 64 -140 b 144 26 107 -66 127 -23 b 186 189 161 74 175 129 b 203 388 197 249 203 315 "},"*":{"ha":500,"x_min":0,"x_max":0,"o":"m 276 618 b 270 594 276 608 274 600 b 250 585 266 588 259 585 b 230 594 241 585 234 588 b 224 618 226 600 224 608 b 231 685 224 638 226 660 b 242 771 236 711 240 739 b 188 703 220 748 202 725 b 144 651 173 682 158 664 b 101 646 128 635 113 633 b 107 689 89 658 91 672 b 160 731 121 703 138 717 b 228 785 181 746 204 763 b 142 775 196 783 168 780 b 75 768 117 770 94 768 b 40 794 52 768 40 777 b 75 821 40 812 52 821 b 142 813 94 821 117 818 b 228 803 168 808 196 805 b 160 856 205 824 182 842 b 107 900 139 871 121 885 b 101 943 91 916 89 930 b 144 938 113 955 128 953 b 188 884 158 924 173 906 b 242 819 202 862 220 841 b 231 902 240 849 236 877 b 224 969 226 928 224 950 b 250 1004 224 993 232 1004 b 276 969 268 1004 276 993 b 269 902 276 950 274 928 b 260 819 265 877 262 849 b 313 885 281 842 299 863 b 356 938 328 906 342 924 b 400 943 372 952 387 954 b 393 900 411 930 409 916 b 340 857 379 886 362 872 b 274 803 319 842 297 824 b 359 813 305 805 334 808 b 426 821 384 818 407 821 b 461 794 449 821 460 812 b 426 768 460 777 449 768 b 360 775 408 768 386 770 b 275 785 334 780 306 783 b 341 731 297 763 319 745 b 393 689 363 716 380 702 b 400 646 408 672 410 658 b 356 651 386 634 371 636 b 313 703 342 664 328 682 b 260 771 299 725 281 748 b 269 685 262 739 265 711 b 276 618 274 659 276 637 "},"+":{"ha":636,"x_min":0,"x_max":0,"o":"m 581 471 l 581 440 l 333 440 l 333 192 l 301 192 l 301 440 l 56 440 l 56 471 l 301 471 l 301 718 l 333 718 l 333 471 "},",":{"ha":314,"x_min":0,"x_max":0,"o":"m 154 140 b 220 113 184 140 206 131 b 242 44 234 94 242 71 b 228 -31 242 16 237 -9 b 194 -90 220 -53 208 -72 b 147 -135 181 -107 165 -122 b 93 -168 130 -148 112 -159 l 81 -144 b 167 -76 115 -126 144 -103 b 201 11 190 -50 201 -20 b 182 -2 197 6 190 2 b 149 -8 174 -6 163 -8 b 97 13 127 -8 110 -1 b 76 67 83 28 76 45 b 99 119 76 88 84 106 b 154 140 115 133 133 140 "},"-":{"ha":390,"x_min":0,"x_max":0,"o":"m 310 404 l 306 321 l 82 321 l 86 404 "},".":{"ha":307,"x_min":0,"x_max":0,"o":"m 228 64 b 206 10 228 43 221 25 b 153 -12 192 -5 174 -12 b 100 10 131 -12 114 -5 b 79 64 86 25 79 43 b 100 117 79 85 86 103 b 153 139 114 132 131 139 b 206 117 174 139 192 132 b 228 64 221 103 228 85 "},"/":{"ha":461,"x_min":0,"x_max":0,"o":"m 443 968 l 32 -150 l -6 -142 l 407 976 "},":":{"ha":303,"x_min":0,"x_max":0,"o":"m 226 579 b 205 526 226 558 219 540 b 151 504 191 511 173 504 b 98 526 130 504 112 511 b 76 579 84 540 76 558 b 98 633 76 600 84 618 b 151 654 112 647 130 654 b 205 633 173 654 191 647 b 226 579 219 618 226 600 m 226 64 b 205 10 226 43 219 25 b 151 -12 191 -5 173 -12 b 98 10 130 -12 112 -5 b 76 64 84 25 76 43 b 98 117 76 85 84 103 b 151 139 112 132 130 139 b 205 117 173 139 191 132 b 226 64 219 103 226 85 "},";":{"ha":314,"x_min":0,"x_max":0,"o":"m 232 579 b 211 526 232 558 225 540 b 158 504 197 511 180 504 b 104 526 137 504 119 511 b 82 579 89 540 82 558 b 104 633 82 600 89 618 b 158 654 119 647 137 654 b 211 633 180 654 197 647 b 232 579 225 618 232 600 m 154 140 b 220 113 184 140 206 131 b 242 44 234 94 242 71 b 228 -31 242 16 237 -9 b 194 -90 220 -53 208 -72 b 147 -135 181 -107 165 -122 b 94 -168 130 -148 112 -159 l 81 -144 b 167 -76 115 -126 144 -103 b 201 11 190 -50 201 -20 b 182 -2 197 6 190 2 b 149 -8 174 -6 163 -8 b 97 13 127 -8 110 -1 b 76 67 83 28 76 45 b 99 119 76 88 84 106 b 154 140 115 133 133 140 "},"<":{"ha":636,"x_min":0,"x_max":0,"o":"m 79 467 l 546 672 l 546 640 l 114 451 l 546 264 l 546 231 l 79 435 "},"=":{"ha":636,"x_min":0,"x_max":0,"o":"m 578 574 l 58 574 l 58 604 l 578 604 m 578 306 l 58 306 l 58 335 l 578 335 "},">":{"ha":636,"x_min":0,"x_max":0,"o":"m 524 451 l 92 640 l 92 672 l 557 467 l 557 435 l 92 231 l 92 264 "},"?":{"ha":633,"x_min":0,"x_max":0,"o":"m 189 342 b 199 395 189 362 192 380 b 227 437 206 410 216 424 b 266 472 239 449 252 461 b 308 507 280 483 294 495 b 365 557 328 524 347 540 b 415 613 384 574 400 592 b 449 680 429 633 440 655 b 461 763 457 704 461 732 b 414 894 461 824 445 868 b 276 935 382 921 337 935 b 140 889 225 935 180 919 b 65 753 100 858 75 813 l 32 760 b 64 850 37 793 47 823 b 126 918 81 877 101 900 b 213 961 151 937 180 951 b 318 976 245 971 280 976 b 520 926 402 976 470 959 b 596 771 571 892 596 840 b 574 690 596 741 589 714 b 519 620 560 665 541 642 b 442 558 496 598 470 578 b 357 499 413 538 385 518 l 310 465 b 267 430 294 454 280 442 b 235 390 254 417 243 404 b 222 342 226 375 222 359 b 240 297 222 323 228 308 b 286 279 252 285 268 279 b 337 293 306 279 323 284 b 369 324 350 302 361 313 l 390 306 b 348 267 380 291 366 278 b 285 250 330 256 309 250 b 217 276 258 250 235 259 b 189 342 198 293 189 315 m 357 61 b 336 8 357 40 350 22 b 283 -14 322 -7 305 -14 b 231 8 262 -14 244 -7 b 210 61 217 22 210 40 b 231 113 210 81 217 99 b 283 133 244 126 262 133 b 336 113 305 133 322 126 b 357 61 350 99 357 81 "},"@":{"ha":1239,"x_min":0,"x_max":0,"o":"m 808 97 b 939 131 852 97 895 108 b 1056 222 982 153 1022 183 b 1140 360 1091 261 1119 307 b 1172 535 1162 414 1172 472 b 1151 675 1172 586 1165 632 b 1081 785 1136 718 1113 754 b 958 856 1049 815 1008 839 b 775 882 908 873 847 882 b 519 837 688 882 603 867 b 295 709 435 807 360 764 b 137 512 230 654 177 588 b 76 260 97 435 76 351 b 115 72 76 189 89 127 b 222 -67 141 16 177 -30 b 378 -153 266 -105 319 -133 b 567 -182 437 -172 500 -182 b 740 -169 630 -182 688 -178 b 883 -133 793 -160 841 -148 b 998 -83 926 -119 964 -102 b 1088 -24 1032 -64 1062 -44 l 1104 -50 b 1012 -110 1077 -71 1047 -91 b 894 -162 977 -129 938 -147 b 747 -198 850 -177 801 -189 b 567 -211 692 -207 632 -211 b 366 -180 496 -211 429 -201 b 199 -89 303 -159 247 -129 b 84 58 150 -49 112 0 b 42 260 56 117 42 184 b 106 526 42 357 63 446 b 274 732 148 606 204 675 b 509 865 343 789 422 834 b 775 913 597 897 685 913 b 967 885 849 913 913 903 b 1101 808 1022 867 1066 842 b 1180 689 1137 775 1163 735 b 1206 535 1197 643 1206 591 b 1173 353 1206 471 1195 410 b 1083 203 1151 297 1121 247 b 945 101 1044 160 998 126 b 771 64 892 76 834 64 b 687 86 738 64 710 71 b 651 165 663 101 651 127 b 656 201 651 178 653 190 b 663 226 658 211 661 220 l 658 226 b 610 167 644 206 628 186 b 551 115 592 147 573 130 b 483 78 530 99 507 87 b 407 64 459 69 434 64 b 302 108 362 64 327 79 b 265 228 278 138 265 178 b 307 376 265 276 279 325 b 417 515 335 427 371 474 b 573 618 462 557 514 591 b 754 658 632 645 692 658 b 819 636 784 658 806 651 b 843 586 833 621 841 605 l 847 586 l 882 649 l 1003 649 l 797 278 b 760 203 780 246 767 221 b 750 151 753 184 750 167 b 765 110 750 132 755 118 b 808 97 775 101 790 97 m 447 103 b 576 167 489 103 532 124 b 710 349 620 209 664 270 l 796 500 b 813 595 817 539 823 571 b 753 632 802 620 782 632 b 667 612 725 632 697 625 b 583 557 638 598 610 580 b 506 477 555 534 530 507 b 442 383 481 447 460 416 b 399 283 424 350 410 316 b 383 188 389 249 383 217 b 447 103 383 131 405 103 "},"A":{"ha":846,"x_min":0,"x_max":0,"o":"m 196 326 l 69 0 l 29 0 l 411 974 l 444 974 l 814 0 l 664 0 l 543 326 m 531 360 l 375 776 l 371 776 l 210 360 "},"B":{"ha":854,"x_min":0,"x_max":0,"o":"m 410 958 b 545 947 459 958 504 954 b 651 907 586 939 622 925 b 720 835 681 888 704 864 b 744 725 736 805 744 769 b 726 639 744 693 738 664 b 674 574 713 614 696 592 b 598 530 653 556 627 541 b 504 507 569 518 538 511 l 504 504 b 721 431 600 494 673 470 b 793 261 769 393 793 336 b 768 152 793 220 785 184 b 697 70 751 120 728 93 b 586 18 667 47 630 30 b 440 0 543 6 494 0 l 103 0 l 103 958 m 417 519 b 562 570 487 519 535 536 b 601 721 588 604 601 654 b 552 881 601 797 585 850 b 388 926 519 911 464 926 l 243 926 l 243 519 m 649 263 b 590 436 649 344 629 402 b 415 488 551 470 493 488 l 243 488 l 243 33 l 435 33 b 597 90 509 33 563 52 b 649 263 631 127 649 185 "},"C":{"ha":1007,"x_min":0,"x_max":0,"o":"m 54 479 b 94 681 54 552 67 620 b 201 839 120 743 156 795 b 356 941 246 882 297 916 b 542 978 415 966 477 978 b 687 958 594 978 643 971 b 803 897 731 945 769 925 b 886 792 836 869 864 834 b 932 642 908 750 924 700 l 894 639 b 781 869 879 744 841 820 b 546 942 720 917 642 942 b 399 906 490 942 441 930 b 291 809 356 883 320 850 b 225 663 262 768 240 719 b 203 479 210 606 203 545 b 226 296 203 413 211 352 b 295 149 242 239 265 191 b 404 52 325 108 362 76 b 547 17 447 28 494 17 b 694 42 603 17 652 25 b 803 112 737 58 773 82 b 876 218 834 142 858 177 b 915 351 895 259 908 303 l 951 349 b 909 202 944 296 930 247 b 827 85 888 157 861 118 b 706 8 793 53 753 27 b 544 -19 658 -10 605 -19 b 352 17 476 -19 412 -7 b 197 119 292 42 241 76 b 92 276 153 163 118 215 b 54 479 67 337 54 405 "},"D":{"ha":986,"x_min":0,"x_max":0,"o":"m 415 958 b 626 926 493 958 563 948 b 788 834 689 905 743 874 b 890 685 832 794 866 744 b 926 482 914 625 926 558 b 888 278 926 406 913 338 b 781 127 862 219 826 168 b 624 33 736 86 684 54 b 431 0 563 11 499 0 l 103 0 l 103 958 m 244 33 l 426 33 b 692 147 545 33 633 71 b 779 481 750 223 779 334 b 760 661 779 546 773 606 b 696 801 747 716 725 763 b 580 892 666 840 628 871 b 406 925 532 914 474 925 l 244 925 "},"E":{"ha":765,"x_min":0,"x_max":0,"o":"m 696 925 l 244 925 l 244 519 l 560 519 l 560 486 l 244 486 l 244 33 l 728 33 l 728 0 l 103 0 l 103 958 l 696 958 "},"F":{"ha":726,"x_min":0,"x_max":0,"o":"m 704 925 l 244 925 l 244 510 l 553 510 l 553 476 l 244 476 l 244 0 l 103 0 l 103 958 l 704 958 "},"G":{"ha":1026,"x_min":0,"x_max":0,"o":"m 946 89 b 901 85 931 89 916 88 b 857 75 885 83 871 80 b 793 49 838 68 816 59 b 719 18 770 38 745 28 b 632 -8 692 8 663 -1 b 531 -18 600 -15 567 -18 b 351 17 469 -18 409 -6 b 199 117 294 41 243 74 b 94 274 155 160 120 213 b 54 479 67 336 54 404 b 95 683 54 554 68 622 b 203 840 122 744 159 797 b 358 942 248 884 300 918 b 539 978 417 966 477 978 b 679 961 590 978 637 972 b 793 906 722 950 760 931 b 876 804 826 880 854 846 b 925 650 899 763 915 711 l 888 646 b 844 784 878 700 864 747 b 771 876 824 822 800 852 b 672 926 742 899 709 916 b 550 942 634 937 594 942 b 406 908 496 942 448 931 b 297 814 363 886 327 855 b 227 667 266 773 243 724 b 203 479 211 610 203 548 b 227 289 203 409 211 345 b 296 144 243 232 266 184 b 403 51 325 103 361 72 b 546 18 446 29 493 18 b 630 27 575 18 603 21 b 705 49 657 33 682 40 b 766 73 728 57 748 65 b 808 90 784 81 798 87 l 808 406 l 946 406 l 946 89 "},"H":{"ha":974,"x_min":0,"x_max":0,"o":"m 244 486 l 244 0 l 103 0 l 103 958 l 244 958 l 244 519 l 729 519 l 729 958 l 871 958 l 871 0 l 729 0 l 729 486 "},"I":{"ha":343,"x_min":0,"x_max":0,"o":"m 243 958 l 243 0 l 100 0 l 100 958 "},"J":{"ha":593,"x_min":0,"x_max":0,"o":"m 500 224 b 476 103 500 176 492 136 b 413 22 461 69 439 42 b 319 -24 386 1 355 -15 b 208 -39 284 -34 247 -39 b 133 -29 181 -39 156 -36 b 76 -3 111 -23 92 -14 b 38 35 61 8 48 21 b 14 79 27 50 19 64 l 44 94 b 99 24 56 67 75 43 b 201 -6 123 4 157 -6 b 316 31 250 -6 288 6 b 358 157 344 55 358 97 l 358 958 l 500 958 l 500 224 "},"K":{"ha":842,"x_min":0,"x_max":0,"o":"m 313 521 l 313 519 b 350 532 323 524 335 528 b 399 538 365 536 381 538 b 523 516 448 538 489 530 b 608 456 557 502 585 481 b 666 365 631 430 651 399 b 706 251 681 330 694 292 b 724 194 710 237 716 217 b 752 121 732 170 741 146 b 786 50 763 96 774 72 b 824 0 798 28 811 11 l 660 0 b 606 95 639 21 621 53 b 563 235 590 137 575 184 b 528 349 551 277 540 316 b 487 435 516 383 502 412 b 434 488 472 458 454 475 b 363 506 414 500 390 506 b 310 497 343 506 326 503 b 268 474 295 492 281 484 b 244 458 260 471 252 466 l 244 0 l 103 0 l 103 958 l 244 958 l 244 501 l 247 501 l 724 958 l 772 958 "},"L":{"ha":735,"x_min":0,"x_max":0,"o":"m 710 33 l 710 0 l 103 0 l 103 958 l 244 958 l 244 33 "},"M":{"ha":1103,"x_min":0,"x_max":0,"o":"m 103 958 l 275 958 l 560 201 l 563 201 l 835 958 l 1000 958 l 1000 0 l 860 0 l 860 915 l 856 915 l 526 -11 l 490 -11 l 142 915 l 139 915 l 139 0 l 103 0 "},"N":{"ha":913,"x_min":0,"x_max":0,"o":"m 719 -3 l 143 894 l 140 894 l 140 0 l 103 0 l 103 958 l 265 958 l 768 194 l 772 194 l 772 958 l 810 958 l 810 -3 "},"O":{"ha":1092,"x_min":0,"x_max":0,"o":"m 57 479 b 98 685 57 555 71 624 b 208 842 125 746 162 798 b 364 942 253 885 306 919 b 546 978 422 966 483 978 b 728 942 609 978 670 966 b 885 842 787 919 839 885 b 994 685 930 798 966 746 b 1035 479 1021 624 1035 555 b 994 274 1035 404 1021 336 b 885 117 966 213 930 160 b 728 16 839 73 787 40 b 546 -19 670 -8 609 -19 b 364 16 483 -19 422 -8 b 208 117 306 40 253 73 b 98 274 162 160 125 213 b 57 479 71 336 57 404 m 204 479 b 227 287 204 408 212 344 b 294 141 242 230 265 181 b 401 48 323 101 359 70 b 546 15 444 26 492 15 b 690 48 600 15 648 26 b 798 141 733 70 769 101 b 865 287 827 181 849 230 b 888 479 880 344 888 408 b 865 672 888 550 880 615 b 798 817 849 728 827 777 b 690 910 769 858 733 889 b 546 943 648 932 600 943 b 401 910 492 943 444 932 b 294 817 359 889 323 858 b 227 672 265 777 242 728 b 204 479 212 615 204 550 "},"P":{"ha":763,"x_min":0,"x_max":0,"o":"m 369 958 b 535 942 435 958 491 953 b 644 892 580 931 617 914 b 705 811 672 871 692 844 b 724 697 717 779 724 741 b 635 506 724 616 694 552 b 360 438 577 460 485 438 l 242 438 l 242 0 l 100 0 l 100 958 l 369 958 m 357 471 b 531 530 438 471 495 491 b 583 697 566 569 583 625 b 532 873 583 779 566 837 b 361 926 498 909 441 926 l 242 926 l 242 471 "},"Q":{"ha":1092,"x_min":0,"x_max":0,"o":"m 1097 49 b 1033 -110 1084 -21 1063 -74 b 908 -164 1003 -146 961 -164 b 844 -151 885 -164 864 -159 b 788 -115 824 -142 805 -130 b 740 -60 771 -99 755 -81 b 699 6 725 -40 712 -18 b 546 -19 650 -11 599 -19 b 364 16 483 -19 422 -8 b 208 117 306 40 253 73 b 98 274 162 160 125 213 b 57 479 71 336 57 404 b 98 685 57 555 71 624 b 208 842 125 746 162 798 b 364 942 253 885 306 919 b 546 978 422 966 483 978 b 728 942 609 978 670 966 b 885 842 787 919 839 885 b 994 685 930 798 966 746 b 1035 479 1021 624 1035 555 b 1012 323 1035 424 1027 372 b 948 191 997 274 975 230 b 852 88 921 152 889 117 b 733 18 816 59 776 36 b 770 -41 745 -3 758 -23 b 810 -88 783 -59 796 -75 b 857 -120 825 -102 840 -112 b 911 -132 874 -128 892 -132 b 1013 -84 956 -132 991 -116 b 1067 54 1036 -52 1054 -6 l 1097 49 m 478 196 b 614 163 533 196 579 185 b 711 58 649 141 681 106 b 843 217 769 93 813 146 b 889 479 874 289 889 376 b 866 672 889 550 881 615 b 799 817 851 728 828 777 b 690 910 769 858 733 889 b 546 943 648 932 600 943 b 401 910 491 943 443 932 b 293 817 359 889 323 858 b 226 672 263 777 241 728 b 203 479 210 615 203 550 b 230 271 203 400 212 331 b 308 119 248 211 274 160 b 381 173 327 140 351 158 b 478 196 410 188 443 196 m 475 164 b 392 145 445 164 418 158 b 329 99 367 133 346 117 b 546 15 387 43 459 15 b 678 42 596 15 640 24 b 638 98 665 64 652 83 b 594 135 625 113 610 126 b 541 157 578 145 560 152 b 475 164 522 162 500 164 "},"R":{"ha":846,"x_min":0,"x_max":0,"o":"m 381 958 b 544 941 444 958 499 953 b 655 891 590 929 627 913 b 717 813 683 869 704 843 b 736 708 730 782 736 747 b 715 615 736 673 729 642 b 656 546 700 588 681 565 b 570 499 632 526 603 511 b 467 475 537 487 503 479 l 467 472 b 621 410 530 465 581 444 b 713 249 661 375 691 322 b 730 198 716 238 722 221 b 757 126 738 175 747 151 b 788 53 767 101 778 77 b 819 0 799 30 809 12 l 668 0 b 616 101 648 28 630 62 b 579 224 602 141 589 182 b 548 335 569 268 559 305 b 510 409 537 366 525 390 b 457 449 496 428 478 441 b 378 461 436 457 409 461 l 244 461 l 244 0 l 103 0 l 103 958 l 381 958 m 393 494 b 539 543 454 494 503 511 b 593 707 575 575 593 630 b 583 808 593 747 590 781 b 547 876 576 836 564 859 b 479 915 529 894 507 907 b 375 926 451 922 417 926 l 244 926 l 244 494 "},"S":{"ha":810,"x_min":0,"x_max":0,"o":"m 417 -19 b 288 1 370 -19 328 -12 b 184 61 249 15 214 35 b 110 155 154 87 129 118 b 74 278 90 191 78 232 l 110 282 b 144 169 115 240 127 203 b 210 85 161 136 183 108 b 303 32 238 62 269 44 b 417 14 338 20 376 14 b 528 29 460 14 497 19 b 602 72 558 39 583 53 b 644 134 621 90 635 110 b 657 211 653 158 657 183 b 640 294 657 244 651 272 b 590 351 629 317 612 336 b 502 393 567 367 538 381 b 376 428 466 405 425 417 b 256 467 331 439 291 452 b 168 522 222 481 192 500 b 113 603 144 544 126 572 b 94 718 101 635 94 674 b 118 821 94 755 102 789 b 182 903 134 852 155 880 b 275 958 209 926 240 944 b 385 978 310 971 347 978 b 492 966 424 978 459 974 b 580 924 525 958 554 944 b 644 844 605 904 627 878 b 683 714 662 810 675 767 l 649 710 b 614 823 640 755 629 793 b 559 895 599 853 581 877 b 483 933 537 913 512 926 b 385 944 455 941 422 944 b 308 933 358 944 332 941 b 244 899 284 925 263 914 b 201 847 226 885 211 867 b 185 778 190 826 185 803 b 199 698 185 746 189 720 b 242 642 208 676 222 657 b 316 601 261 626 286 613 b 424 571 346 590 382 580 b 563 532 475 560 522 547 b 665 477 603 517 638 499 b 729 398 693 455 714 429 b 751 285 744 367 751 329 b 731 172 751 246 745 208 b 669 74 718 135 697 103 b 565 6 642 46 607 23 b 417 -19 522 -11 473 -19 "},"T":{"ha":839,"x_min":0,"x_max":0,"o":"m 349 0 l 349 925 l 22 925 l 22 958 l 817 958 l 817 925 l 490 925 l 490 0 "},"U":{"ha":939,"x_min":0,"x_max":0,"o":"m 847 310 b 754 64 847 200 816 119 b 492 -18 692 9 605 -18 b 326 0 431 -18 375 -12 b 201 58 277 12 235 31 b 120 160 166 84 139 118 b 92 313 101 201 92 252 l 92 958 l 233 958 l 233 307 b 303 90 233 209 256 137 b 511 21 349 44 419 21 b 729 94 604 21 676 45 b 808 317 782 144 808 218 l 808 958 l 847 958 "},"V":{"ha":826,"x_min":0,"x_max":0,"o":"m 465 190 l 764 958 l 806 958 l 426 -11 l 392 -11 l 22 958 l 175 958 l 463 190 "},"W":{"ha":1294,"x_min":0,"x_max":0,"o":"m 644 744 l 378 -11 l 346 -11 l 29 958 l 181 958 l 418 210 l 422 210 l 686 960 l 719 960 l 974 201 l 978 201 l 1231 958 l 1271 958 l 943 -11 l 911 -11 l 647 744 "},"X":{"ha":874,"x_min":0,"x_max":0,"o":"m 51 0 l 378 451 l 51 958 l 208 958 l 475 547 l 479 547 l 771 958 l 815 958 l 499 513 l 829 0 l 669 0 l 400 417 l 397 417 l 96 0 "},"Y":{"ha":797,"x_min":0,"x_max":0,"o":"m 21 958 l 178 958 l 454 485 l 457 485 l 740 958 l 781 958 l 472 440 l 472 0 l 331 0 l 331 439 "},"Z":{"ha":843,"x_min":0,"x_max":0,"o":"m 35 31 l 647 925 l 74 925 l 74 958 l 806 958 l 806 926 l 196 35 l 771 35 l 771 0 l 35 0 "},"[":{"ha":408,"x_min":0,"x_max":0,"o":"m 392 958 l 210 958 l 210 -183 l 392 -183 l 392 -214 l 115 -214 l 115 989 l 392 989 "},"\\":{"ha":461,"x_min":0,"x_max":0,"o":"m 18 968 l 54 976 l 467 -142 l 431 -150 "},"]":{"ha":407,"x_min":0,"x_max":0,"o":"m 17 -214 l 17 -183 l 197 -183 l 197 958 l 17 958 l 17 989 l 293 989 l 293 -214 "},"^":{"ha":611,"x_min":0,"x_max":0,"o":"m 517 567 l 306 944 l 94 567 l 56 567 l 286 976 l 324 976 l 556 567 "},"_":{"ha":639,"x_min":0,"x_max":0,"o":"m -17 -229 l 654 -229 l 654 -275 l -17 -275 "},"`":{"ha":563,"x_min":0,"x_max":0,"o":"m 433 789 l 422 768 l 144 874 l 196 967 "},"a":{"ha":690,"x_min":0,"x_max":0,"o":"m 442 526 b 411 604 443 565 432 591 b 319 624 390 617 359 624 b 195 599 272 624 231 615 b 113 538 159 582 132 562 l 89 558 b 183 626 110 585 141 608 b 328 654 224 645 272 654 b 418 648 358 654 388 652 b 497 625 448 644 474 636 b 553 578 520 614 539 598 b 574 499 567 557 574 531 l 572 99 b 583 47 572 78 576 61 b 625 25 590 32 604 25 b 660 33 639 25 650 28 b 685 49 669 38 677 43 l 697 29 b 648 0 685 19 669 9 b 575 -14 627 -9 603 -14 b 481 17 533 -14 502 -4 b 446 94 459 37 448 63 l 443 94 b 358 19 425 67 396 42 b 229 -14 319 -3 276 -14 b 97 30 172 -14 128 1 b 50 147 66 59 50 98 b 67 224 50 178 56 203 b 114 278 79 245 94 263 b 180 315 133 293 155 305 b 256 342 204 324 230 333 b 318 365 276 348 297 356 b 376 397 339 375 359 385 b 419 436 393 408 407 421 b 442 485 431 451 439 467 l 442 526 m 289 38 b 379 65 321 38 351 47 b 440 129 407 84 427 105 l 442 428 b 394 378 436 411 420 395 b 307 333 369 362 339 347 b 255 308 288 325 271 317 b 213 278 239 300 225 290 b 184 234 200 267 191 252 b 174 164 177 216 174 193 b 206 67 174 119 184 86 b 289 38 228 47 256 38 "},"b":{"ha":789,"x_min":0,"x_max":0,"o":"m 217 1028 l 217 528 l 219 528 b 307 621 237 568 266 599 b 444 654 348 643 394 654 b 558 633 484 654 522 647 b 653 569 594 618 626 597 b 719 464 681 541 703 506 b 743 321 735 422 743 375 b 718 185 743 272 735 227 b 649 79 701 144 678 109 b 547 10 620 50 586 27 b 424 -14 508 -6 467 -14 b 347 -3 396 -14 370 -10 b 286 26 324 5 304 14 b 242 66 269 38 254 52 b 213 107 230 80 220 94 l 210 107 l 190 0 l 85 0 l 85 1028 m 219 196 b 235 126 219 171 225 148 b 278 71 246 105 260 87 b 340 33 297 55 317 43 b 413 19 363 24 388 19 b 555 94 474 19 521 44 b 606 321 589 143 606 219 b 557 549 606 427 589 503 b 418 618 525 595 478 618 b 347 605 396 618 372 614 b 279 564 322 596 300 582 b 235 506 261 548 246 529 b 219 425 225 482 219 456 l 219 196 "},"c":{"ha":681,"x_min":0,"x_max":0,"o":"m 383 654 b 480 642 420 654 453 650 b 550 608 507 633 531 622 b 599 560 569 594 586 578 b 631 500 612 541 622 521 l 601 489 b 531 585 587 526 563 558 b 397 625 499 612 455 625 b 307 602 364 625 334 617 b 240 538 280 587 258 566 b 198 442 222 511 208 479 b 183 321 188 405 183 364 b 195 208 183 281 187 243 b 233 113 203 172 216 141 b 302 48 251 86 274 64 b 404 24 330 32 364 24 b 540 63 454 24 499 37 b 631 199 580 88 610 134 l 661 193 b 553 34 638 119 602 66 b 371 -14 504 2 443 -14 b 238 13 322 -14 277 -5 b 135 86 198 31 163 56 b 69 193 106 117 84 152 b 46 321 53 234 46 276 b 69 448 46 365 54 408 b 138 554 85 488 108 524 b 244 627 167 585 203 609 b 383 654 285 645 331 654 "},"d":{"ha":776,"x_min":0,"x_max":0,"o":"m 567 108 l 564 108 b 542 74 559 98 552 87 b 504 38 531 61 519 49 b 437 1 486 23 463 10 b 346 -14 410 -9 380 -14 b 231 10 305 -14 267 -6 b 135 79 194 27 163 50 b 70 185 108 109 86 144 b 46 321 54 227 46 272 b 74 463 46 374 55 421 b 146 567 92 504 116 539 b 247 632 175 596 209 617 b 363 654 285 647 324 654 b 485 628 411 654 451 645 b 560 557 518 610 543 587 l 563 557 l 563 1028 l 696 1028 l 696 0 l 567 0 m 561 458 b 544 531 561 486 556 510 b 500 582 533 552 519 569 b 440 612 481 596 462 606 b 376 621 419 618 398 621 b 235 550 317 621 270 597 b 183 321 201 503 183 426 b 233 94 183 217 200 141 b 371 22 266 46 312 22 b 443 36 396 22 420 27 b 504 74 466 45 487 58 b 546 132 522 91 536 110 b 561 204 556 154 561 178 l 561 458 "},"e":{"ha":689,"x_min":0,"x_max":0,"o":"m 653 171 b 562 35 639 113 609 67 b 383 -14 515 2 456 -14 b 240 14 330 -14 282 -5 b 133 89 197 32 162 57 b 68 196 105 120 83 156 b 46 321 53 236 46 277 b 69 449 46 365 54 408 b 135 556 85 489 107 525 b 234 628 163 586 196 610 b 360 656 272 647 314 656 b 558 585 442 656 508 632 b 632 379 607 538 632 469 l 186 379 b 184 350 185 369 184 359 b 183 321 184 341 183 331 b 194 207 183 281 187 243 b 228 111 201 171 212 139 b 294 44 245 83 267 61 b 399 19 322 28 357 19 b 551 63 465 19 516 34 b 624 178 587 92 611 131 l 653 171 m 360 626 b 242 567 310 626 271 607 b 189 408 214 528 196 475 l 511 408 b 474 575 510 485 498 541 b 360 626 451 609 413 626 "},"f":{"ha":428,"x_min":0,"x_max":0,"o":"m 121 0 l 121 613 l 32 613 l 32 642 l 121 642 l 121 815 b 147 917 121 856 129 890 b 210 982 164 945 185 966 b 298 1019 237 1000 266 1012 b 399 1031 330 1027 363 1031 b 471 1023 426 1031 450 1028 b 523 1003 491 1018 509 1011 b 559 976 537 996 549 987 b 583 944 569 966 577 956 l 557 926 b 502 980 544 948 526 966 b 404 1001 478 994 446 1001 b 294 972 357 1001 320 991 b 254 867 267 952 254 917 l 254 642 l 415 642 l 415 613 l 254 613 l 254 0 "},"g":{"ha":690,"x_min":0,"x_max":0,"o":"m 688 -110 b 657 -232 688 -158 677 -199 b 575 -313 637 -265 609 -292 b 456 -359 541 -334 501 -349 b 314 -374 411 -369 364 -374 b 180 -365 266 -374 221 -371 b 72 -337 139 -360 103 -350 b 0 -286 42 -325 18 -307 b -26 -208 -18 -265 -26 -239 b -8 -145 -26 -183 -20 -162 b 38 -103 4 -128 19 -114 b 100 -78 57 -92 78 -83 b 163 -68 122 -72 143 -69 l 163 -99 b 106 -106 143 -100 124 -102 b 57 -126 88 -110 72 -117 b 22 -159 42 -134 30 -146 b 8 -208 13 -172 8 -189 b 32 -272 8 -233 16 -255 b 97 -314 48 -290 69 -304 b 193 -336 124 -324 156 -331 b 314 -343 230 -341 270 -343 b 441 -331 359 -343 402 -339 b 543 -295 480 -322 514 -310 b 610 -240 572 -280 594 -262 b 635 -168 627 -219 635 -195 b 622 -112 635 -145 630 -126 b 578 -81 613 -99 598 -88 b 501 -65 559 -73 533 -68 b 388 -58 470 -62 432 -60 b 281 -52 347 -57 311 -55 b 204 -33 250 -49 225 -43 b 158 6 184 -24 169 -11 b 143 72 148 22 143 44 b 152 122 143 92 146 108 b 174 158 158 136 166 148 b 203 181 183 167 193 175 b 232 193 214 187 224 191 l 232 194 b 109 276 184 211 143 238 b 58 418 75 314 58 362 b 82 517 58 455 66 488 b 144 592 98 547 118 571 b 230 639 169 612 198 628 b 328 656 262 650 294 656 b 394 648 350 656 372 653 b 457 626 416 643 437 636 l 461 626 b 581 668 494 654 534 668 b 654 653 610 668 635 663 b 699 613 674 643 688 629 l 675 592 b 638 626 665 606 653 617 b 579 639 624 634 604 639 b 488 610 541 639 511 629 b 567 529 520 588 546 562 b 597 418 587 497 597 460 b 574 318 597 381 589 348 b 512 243 558 288 537 263 b 426 196 486 223 458 207 b 328 179 394 185 361 179 b 294 181 312 179 301 180 b 274 182 288 181 281 182 b 226 169 258 182 242 178 b 201 126 209 161 201 147 b 208 99 201 115 204 106 b 237 81 213 91 222 85 b 299 72 251 77 272 74 b 404 68 325 70 361 69 b 533 58 454 66 497 63 b 620 33 568 54 597 45 b 671 -20 643 20 660 3 b 688 -110 682 -43 688 -73 m 186 418 b 224 257 186 343 199 289 b 328 208 250 225 284 208 b 431 257 371 208 406 225 b 469 418 457 289 469 343 b 431 579 469 493 457 547 b 328 628 406 612 371 628 b 224 579 284 628 250 612 b 186 418 199 547 186 493 "},"h":{"ha":739,"x_min":0,"x_max":0,"o":"m 85 1028 l 215 1028 l 215 540 l 218 540 b 306 624 236 576 265 604 b 447 654 346 644 394 654 b 528 649 479 654 506 652 b 588 628 551 645 571 638 b 639 582 609 617 626 601 b 658 507 652 563 658 538 l 658 0 l 525 0 l 525 514 b 499 592 525 549 516 575 b 410 617 481 608 451 617 b 328 601 380 617 353 612 b 267 563 304 591 283 578 b 232 510 253 549 241 531 b 218 428 223 488 218 461 l 218 0 l 85 0 "},"i":{"ha":308,"x_min":0,"x_max":0,"o":"m 228 888 b 207 835 228 866 221 849 b 154 814 193 821 175 814 b 101 835 133 814 115 821 b 81 888 88 849 81 866 b 101 940 81 909 88 926 b 154 961 115 954 133 961 b 207 940 175 961 193 954 b 228 888 221 926 228 909 m 88 642 l 221 642 l 221 0 l 88 0 "},"j":{"ha":307,"x_min":0,"x_max":0,"o":"m 229 888 b 208 835 229 866 222 849 b 154 814 193 821 175 814 b 101 835 133 814 115 821 b 81 888 88 849 81 866 b 101 940 81 909 88 926 b 154 961 115 954 133 961 b 208 940 175 961 193 954 b 229 888 222 926 229 909 m 221 -126 b 199 -242 221 -174 214 -212 b 136 -315 185 -272 164 -297 b -19 -354 98 -341 46 -354 b -130 -331 -65 -354 -102 -346 b -190 -272 -158 -315 -178 -295 l -164 -254 b -116 -303 -154 -273 -138 -289 b -22 -325 -94 -318 -63 -325 b 58 -298 12 -325 39 -316 b 88 -197 78 -280 88 -246 l 88 642 l 221 642 "},"k":{"ha":664,"x_min":0,"x_max":0,"o":"m 293 367 b 316 372 300 369 308 371 b 342 374 324 373 332 374 b 433 360 377 374 407 369 b 499 322 459 350 481 338 b 544 265 517 305 532 286 b 572 196 555 243 565 220 b 588 147 576 183 581 167 b 611 90 595 128 603 109 b 638 36 619 71 628 53 b 664 0 647 19 656 7 l 522 0 b 443 164 489 31 463 85 b 422 239 436 192 429 217 b 399 297 416 261 408 280 b 365 334 389 313 378 325 b 313 347 351 343 334 347 b 266 338 294 347 278 344 b 232 314 253 332 242 324 l 217 299 l 217 0 l 85 0 l 85 1028 l 217 1028 l 217 336 l 219 336 l 535 642 l 578 642 l 293 369 "},"l":{"ha":303,"x_min":0,"x_max":0,"o":"m 85 0 l 85 1028 l 218 1028 l 218 0 "},"m":{"ha":1156,"x_min":0,"x_max":0,"o":"m 514 513 b 488 593 514 550 505 577 b 403 617 470 609 442 617 b 328 603 376 617 351 612 b 268 568 305 595 285 583 b 233 515 254 554 242 537 b 218 433 223 494 218 467 l 218 0 l 85 0 l 85 642 l 215 642 l 215 546 l 218 546 b 301 625 235 579 263 606 b 439 654 340 644 386 654 b 517 649 469 654 494 652 b 575 629 539 645 558 638 b 642 546 610 612 632 584 l 643 546 b 729 626 662 580 690 607 b 867 654 768 645 814 654 b 948 648 898 654 925 652 b 1008 626 971 644 991 637 b 1058 581 1029 616 1045 601 b 1076 504 1070 560 1076 535 l 1076 0 l 943 0 l 943 513 b 917 593 943 550 934 577 b 831 617 900 609 871 617 b 754 604 803 617 777 613 b 696 568 731 596 712 584 b 660 521 681 555 669 539 b 647 438 652 502 647 475 l 647 0 l 514 -1 "},"n":{"ha":739,"x_min":0,"x_max":0,"o":"m 85 642 l 215 642 l 215 540 l 218 540 b 306 624 236 576 265 604 b 449 654 347 644 395 654 b 528 649 479 654 506 652 b 588 629 550 645 570 638 b 639 583 609 618 626 603 b 658 507 652 563 658 538 l 658 0 l 525 0 l 525 513 b 499 592 525 549 516 575 b 410 617 481 608 451 617 b 329 602 380 617 353 612 b 267 563 305 592 284 579 b 232 510 253 549 241 531 b 218 428 223 488 218 461 l 218 0 l 85 0 "},"o":{"ha":776,"x_min":0,"x_max":0,"o":"m 389 656 b 519 631 434 656 478 647 b 628 563 560 615 596 592 b 703 458 659 534 684 499 b 732 321 722 416 732 371 b 703 184 732 271 722 225 b 628 78 684 143 659 108 b 519 10 596 49 560 27 b 389 -14 478 -6 434 -14 b 259 10 344 -14 300 -6 b 150 78 218 27 181 49 b 74 184 119 108 93 143 b 46 321 55 225 46 271 b 74 458 46 371 55 416 b 150 563 93 499 119 534 b 259 631 181 592 218 615 b 389 656 300 647 344 656 m 389 626 b 236 542 322 626 271 598 b 183 321 201 486 183 413 b 197 197 183 275 188 234 b 236 101 205 159 219 127 b 301 39 254 74 275 54 b 389 17 326 24 356 17 b 477 39 422 17 452 24 b 542 101 503 54 524 74 b 581 197 559 127 572 159 b 594 321 590 234 594 275 b 542 542 594 413 577 486 b 389 626 506 598 456 626 "},"p":{"ha":793,"x_min":0,"x_max":0,"o":"m 214 642 l 214 531 l 217 531 b 304 622 234 569 263 600 b 436 654 345 643 389 654 b 558 631 480 654 520 647 b 657 565 596 616 629 594 b 723 460 685 537 707 502 b 747 321 739 419 747 373 b 721 184 747 271 738 225 b 649 78 703 143 679 108 b 544 10 619 49 584 27 b 419 -14 505 -6 463 -14 b 341 -2 390 -14 364 -10 b 281 28 318 6 298 16 b 243 62 265 38 252 49 b 221 94 234 74 226 85 l 218 94 l 218 -362 l 85 -362 l 85 642 m 219 207 b 233 134 219 181 224 157 b 273 74 243 111 256 91 b 334 34 290 57 310 44 b 413 19 358 24 384 19 b 557 94 474 19 522 44 b 610 321 592 143 610 219 b 596 464 610 378 605 426 b 557 556 587 502 574 532 b 496 604 540 579 520 595 b 414 618 472 613 444 618 b 283 569 367 618 323 602 b 238 510 265 554 250 534 b 219 432 225 486 219 460 l 219 207 "},"q":{"ha":775,"x_min":0,"x_max":0,"o":"m 560 92 b 531 55 553 80 544 67 b 485 21 519 42 503 31 b 422 -4 466 11 445 2 b 347 -14 399 -11 374 -14 b 227 10 304 -14 264 -6 b 132 79 191 27 159 50 b 69 185 105 109 84 144 b 46 321 53 225 46 271 b 77 471 46 379 56 429 b 156 574 98 513 124 547 b 263 635 188 602 224 622 b 378 654 303 648 341 654 b 514 620 433 654 479 643 b 590 538 549 597 575 570 l 594 538 l 667 642 l 694 642 l 694 -362 l 563 -362 l 563 92 m 385 622 b 303 605 355 622 328 616 b 240 551 279 593 258 575 b 199 458 223 527 209 496 b 183 321 188 419 183 374 b 233 94 183 216 200 141 b 378 25 266 48 314 25 b 437 35 397 25 417 28 b 492 63 457 41 475 50 b 536 108 509 75 524 90 b 561 169 548 126 556 146 l 561 447 b 546 529 561 480 556 507 b 506 583 536 551 522 569 b 449 613 489 597 470 607 b 385 622 428 619 407 622 "},"r":{"ha":519,"x_min":0,"x_max":0,"o":"m 214 642 l 214 542 l 218 542 b 283 624 231 577 253 604 b 379 654 313 644 345 654 b 465 628 417 654 446 645 b 501 557 485 610 497 587 l 469 550 b 440 608 464 577 454 596 b 378 625 425 619 405 625 b 307 602 350 625 326 617 b 258 554 288 587 271 571 b 228 497 245 538 235 519 b 218 426 222 474 218 450 l 218 0 l 85 0 l 85 642 "},"s":{"ha":588,"x_min":0,"x_max":0,"o":"m 78 189 b 109 107 84 156 95 129 b 160 53 123 85 140 67 b 223 24 179 40 200 30 b 293 15 246 18 269 15 b 369 26 323 15 348 19 b 422 53 391 33 408 42 b 451 92 435 64 445 77 b 461 138 458 106 461 122 b 450 192 461 160 457 178 b 416 229 443 207 431 219 b 357 255 401 239 381 248 b 269 276 333 262 304 269 b 192 297 243 282 217 289 b 126 330 167 304 145 316 b 81 385 107 344 92 363 b 64 469 69 407 64 435 b 81 542 64 495 69 520 b 127 601 92 565 107 585 b 197 641 147 618 170 631 b 285 656 224 651 253 656 b 430 612 350 656 398 641 b 497 488 462 583 484 541 l 467 481 b 409 590 455 529 435 565 b 286 628 383 615 342 628 b 188 599 245 628 213 618 b 150 522 163 579 150 554 b 160 476 150 504 153 488 b 190 443 166 463 176 452 b 241 420 203 434 220 426 b 317 401 262 414 287 408 b 411 377 351 394 382 386 b 485 342 440 368 464 357 b 532 288 505 328 521 310 b 549 204 543 265 549 238 b 533 125 549 177 544 151 b 487 55 523 99 508 76 b 408 5 466 34 440 17 b 294 -14 376 -8 338 -14 b 213 -3 267 -14 239 -10 b 139 31 186 3 161 15 b 81 92 117 46 97 67 b 47 182 65 117 54 147 l 78 189 "},"t":{"ha":457,"x_min":0,"x_max":0,"o":"m 449 51 b 386 8 437 37 416 22 b 272 -12 356 -6 319 -12 b 153 21 221 -12 182 -1 b 111 118 125 43 111 75 l 111 613 l 22 613 l 22 642 l 111 642 l 111 808 l 244 808 l 244 642 l 424 642 l 424 613 l 244 613 l 244 106 b 266 41 244 73 252 52 b 325 25 280 30 300 25 b 388 38 348 25 369 29 b 433 69 407 47 422 57 l 449 51 "},"u":{"ha":735,"x_min":0,"x_max":0,"o":"m 651 0 l 521 0 l 521 96 l 518 96 b 433 16 501 63 473 36 b 292 -14 392 -4 345 -14 b 154 14 231 -14 186 -5 b 103 62 133 25 116 41 b 83 139 90 83 83 108 l 83 642 l 215 642 l 215 131 b 243 50 215 94 225 67 b 331 25 262 33 291 25 b 408 39 358 25 384 30 b 468 75 431 48 451 60 b 505 128 483 89 495 106 b 519 210 515 149 519 176 l 519 642 l 651 642 "},"v":{"ha":599,"x_min":0,"x_max":0,"o":"m 322 -7 l 286 -7 l 17 642 l 154 642 l 353 153 l 356 153 l 556 642 l 589 642 "},"w":{"ha":961,"x_min":0,"x_max":0,"o":"m 481 485 l 290 -7 l 257 -7 l 24 642 l 154 642 l 319 158 l 322 158 l 510 642 l 542 642 l 726 158 l 731 158 l 908 642 l 943 642 l 699 -7 l 664 -7 l 483 485 "},"x":{"ha":626,"x_min":0,"x_max":0,"o":"m 25 0 l 253 303 l 28 642 l 172 642 l 344 383 l 347 383 l 536 642 l 574 642 l 365 357 l 601 0 l 458 0 l 274 275 l 269 275 l 63 0 "},"y":{"ha":593,"x_min":0,"x_max":0,"o":"m -58 -361 b -125 -353 -83 -361 -106 -358 b -176 -332 -144 -347 -161 -340 b -212 -305 -190 -324 -202 -315 b -236 -278 -223 -295 -231 -286 l -210 -257 b -188 -282 -204 -265 -197 -274 b -157 -306 -179 -290 -169 -298 b -115 -324 -145 -313 -131 -319 b -58 -331 -98 -328 -80 -331 b 60 -303 -14 -331 26 -321 b 155 -230 95 -284 127 -260 b 230 -128 183 -200 208 -166 b 289 -11 252 -90 271 -51 l 13 642 l 151 642 l 353 147 l 356 147 l 557 642 l 592 642 l 360 72 b 324 -12 350 47 338 19 b 278 -108 311 -44 296 -76 b 220 -201 261 -140 242 -171 b 146 -283 198 -232 174 -259 b 53 -340 118 -306 87 -325 b -58 -361 20 -354 -18 -361 "},"z":{"ha":621,"x_min":0,"x_max":0,"o":"m 593 642 l 593 619 l 178 31 l 572 31 l 572 0 l 24 0 l 24 22 l 439 611 l 68 611 l 68 642 "},"{":{"ha":422,"x_min":0,"x_max":0,"o":"m 51 404 b 158 426 97 405 132 413 b 197 500 184 440 197 465 b 188 565 197 520 194 542 b 166 635 181 588 174 612 b 144 706 158 659 151 682 b 135 769 138 729 135 750 b 195 917 135 831 155 881 b 388 988 235 954 300 977 l 390 960 b 308 939 356 955 328 948 b 260 904 287 930 271 918 b 238 857 249 890 241 875 b 232 797 234 839 232 819 b 240 734 232 778 235 757 b 258 666 246 711 252 689 b 276 598 265 643 271 621 b 285 535 282 575 285 554 b 272 472 285 511 280 490 b 236 428 263 455 251 440 b 184 402 221 417 204 408 b 122 389 164 396 144 392 l 122 388 b 184 374 144 385 164 380 b 236 347 204 367 221 358 b 272 303 251 335 263 321 b 285 242 280 286 285 266 b 276 178 285 221 282 200 b 258 110 271 156 265 133 b 240 42 252 87 246 64 b 232 -22 235 19 232 -2 b 238 -83 232 -44 234 -65 b 260 -130 241 -101 249 -116 b 308 -164 271 -143 287 -155 b 390 -185 328 -173 356 -180 l 388 -214 b 195 -144 300 -204 235 -180 b 135 7 155 -107 135 -57 b 144 71 135 26 138 48 b 166 141 151 94 158 117 b 188 211 174 165 181 188 b 197 276 194 234 197 256 b 158 349 197 312 184 336 b 51 372 132 363 97 370 l 51 404 "},"|":{"ha":231,"x_min":0,"x_max":0,"o":"m 97 -189 l 97 983 l 132 983 l 132 -189 "},"}":{"ha":422,"x_min":0,"x_max":0,"o":"m 371 372 b 264 349 325 370 290 363 b 225 276 238 336 225 312 b 235 211 225 256 228 234 b 256 141 241 188 248 165 b 278 71 264 117 271 94 b 288 7 284 48 288 26 b 227 -144 288 -57 267 -107 b 35 -214 187 -180 123 -204 l 32 -185 b 115 -164 66 -180 94 -173 b 163 -130 135 -155 151 -143 b 185 -83 174 -116 181 -101 b 190 -22 188 -65 190 -44 b 182 42 190 -2 188 19 b 164 110 176 64 170 87 b 146 178 157 133 151 156 b 138 242 140 200 138 221 b 151 303 138 266 142 286 b 186 347 159 321 171 335 b 238 374 201 358 218 367 b 300 388 258 380 279 385 l 300 389 b 238 402 279 392 258 396 b 186 428 218 408 201 417 b 151 472 171 440 159 455 b 138 535 142 490 138 511 b 146 598 138 554 140 575 b 164 666 151 621 157 643 b 182 734 170 689 176 711 b 190 797 188 757 190 778 b 185 857 190 819 188 839 b 163 904 181 875 174 890 b 115 939 151 918 135 930 b 32 960 94 948 66 955 l 35 988 b 227 917 123 977 187 954 b 288 769 267 881 288 831 b 278 706 288 750 284 729 b 256 635 271 682 264 659 b 235 565 248 612 241 588 b 225 500 228 542 225 520 b 264 426 225 465 238 440 b 371 404 290 413 325 405 l 371 372 "},"~":{"ha":586,"x_min":0,"x_max":0,"o":"m 65 286 b 122 403 78 339 97 378 b 213 442 147 429 177 442 b 302 430 240 442 270 438 b 393 418 334 422 364 418 b 450 433 412 418 431 423 b 494 488 469 442 484 461 l 519 482 b 374 324 493 376 444 324 b 285 336 347 324 317 328 b 194 349 253 344 223 349 b 137 333 176 349 157 344 b 92 279 117 323 102 305 l 65 286 "},"":{"ha":278,"x_min":0,"x_max":0,"o":""},"":{"ha":339,"x_min":0,"x_max":0,"o":"m 244 619 b 224 567 244 598 238 581 b 171 546 210 553 192 546 b 119 567 150 546 132 553 b 99 619 105 581 99 598 b 119 671 99 640 105 657 b 171 692 132 685 150 692 b 224 671 192 692 210 685 b 244 619 238 657 244 640 m 171 -300 b 117 -278 148 -300 130 -293 b 97 -215 104 -263 97 -242 b 99 -179 97 -207 98 -195 b 102 -129 100 -163 101 -147 b 107 -78 103 -112 105 -95 b 111 -42 109 -62 110 -50 l 157 435 l 183 435 l 232 -42 b 235 -78 233 -50 234 -62 b 238 -129 236 -95 237 -112 b 242 -179 240 -147 241 -163 b 243 -215 243 -195 243 -207 b 224 -278 243 -242 237 -263 b 171 -300 212 -293 194 -300 "},"":{"ha":660,"x_min":0,"x_max":0,"o":"m 643 192 b 551 46 623 126 592 77 b 404 -10 511 14 462 -4 l 400 -149 l 368 -149 l 372 -12 l 361 -12 b 230 15 313 -12 269 -3 b 129 88 191 33 157 57 b 65 194 101 118 80 153 b 43 321 50 234 43 276 b 67 448 43 365 51 408 b 134 554 82 488 105 524 b 240 628 163 585 198 609 b 378 656 281 646 327 656 l 389 656 l 393 792 l 425 792 l 421 653 b 552 597 477 645 521 627 b 618 496 583 568 605 534 l 588 485 b 530 575 575 518 556 548 b 421 624 503 602 467 618 l 404 24 b 469 35 426 25 448 28 b 527 67 490 42 509 53 b 576 120 545 81 562 98 b 613 199 591 142 603 168 l 643 192 m 181 321 b 191 209 181 281 184 244 b 224 117 198 174 209 144 b 283 53 240 91 259 70 b 372 25 307 37 337 28 l 389 625 b 235 542 323 624 272 596 b 181 321 199 487 181 413 "},"":{"ha":954,"x_min":0,"x_max":0,"o":"m 918 178 b 896 100 913 151 906 125 b 853 33 886 75 872 53 b 785 -15 835 13 813 -3 b 685 -33 758 -27 725 -33 b 549 -8 648 -33 603 -25 b 379 61 496 9 439 32 l 336 81 b 317 62 330 74 323 68 b 296 43 310 56 303 50 b 222 -1 275 25 250 11 b 129 -19 194 -13 163 -19 b 47 4 98 -19 70 -12 b 11 81 23 20 11 45 b 61 168 11 117 28 146 b 199 201 94 190 140 201 b 243 198 212 201 226 200 b 296 188 260 196 277 192 b 313 287 303 219 309 252 b 329 392 317 322 323 356 l 178 392 l 178 421 l 335 421 b 403 670 352 517 375 600 b 499 844 432 740 464 798 b 616 945 535 890 574 923 b 749 978 658 967 702 978 b 869 947 800 978 841 968 b 932 878 898 927 919 904 l 904 863 b 849 923 891 887 873 907 b 751 947 825 939 792 947 b 660 922 715 947 685 939 b 599 853 636 906 615 882 b 564 780 586 831 574 807 b 535 687 554 753 544 722 b 508 569 525 652 516 613 b 479 421 499 525 489 475 l 679 421 l 679 392 l 474 392 b 444 269 465 348 456 307 b 397 160 433 230 418 194 b 433 149 409 156 421 152 b 469 136 444 145 456 141 b 640 89 531 116 588 100 b 764 72 691 78 732 72 b 845 101 797 72 824 82 b 888 183 866 121 880 148 l 918 178 m 46 76 b 70 25 46 52 54 35 b 129 10 86 15 106 10 b 213 34 165 10 193 18 b 260 90 233 50 249 69 b 265 99 262 93 263 96 b 269 108 266 103 268 106 b 198 133 245 119 222 127 b 128 142 174 139 151 142 b 69 126 105 142 85 137 b 46 76 54 116 46 100 "},"":{"ha":796,"x_min":0,"x_max":0,"o":"m 471 0 l 329 0 l 329 338 l 114 338 l 114 367 l 329 367 l 329 446 l 313 476 l 114 476 l 114 506 l 296 506 l 47 958 l 204 958 l 451 489 l 456 489 l 711 958 l 751 958 l 503 506 l 688 506 l 688 476 l 488 476 l 471 447 l 471 367 l 688 367 l 688 338 l 471 338 "},"":{"ha":231,"x_min":0,"x_max":0,"o":"m 97 483 l 97 983 l 132 983 l 132 483 m 97 -189 l 97 313 l 132 313 l 132 -189 "},"":{"ha":708,"x_min":0,"x_max":0,"o":"m 521 -3 b 501 -87 521 -33 514 -61 b 447 -153 487 -112 469 -134 b 368 -197 424 -171 398 -186 b 275 -212 338 -207 307 -212 b 200 -201 247 -212 222 -209 b 143 -171 178 -193 159 -183 b 103 -131 127 -159 114 -146 b 79 -90 93 -117 85 -103 l 107 -76 b 126 -110 112 -87 118 -98 b 158 -146 135 -123 145 -135 b 206 -174 171 -157 187 -166 b 274 -185 225 -181 248 -185 b 382 -150 318 -185 354 -173 b 424 -56 410 -127 424 -95 b 417 -5 424 -37 421 -20 b 396 40 412 10 405 25 b 360 86 387 55 375 70 b 308 140 345 102 328 120 l 146 300 b 74 394 113 332 90 364 b 51 506 59 425 51 462 b 65 574 51 530 56 552 b 99 632 73 595 85 614 b 147 679 113 650 128 665 b 201 713 165 693 183 704 b 197 738 200 721 198 729 b 196 767 196 747 196 756 b 215 851 196 797 202 825 b 266 918 227 877 244 900 b 342 962 288 937 313 951 b 435 978 370 972 401 978 b 513 967 465 978 491 974 b 565 939 534 959 551 950 b 599 902 579 928 591 916 b 621 864 608 889 615 876 l 596 850 b 577 882 590 859 584 870 b 549 915 570 894 561 905 b 504 940 538 924 523 933 b 435 950 486 947 463 950 b 330 915 390 950 355 938 b 292 824 304 891 292 861 b 299 772 292 804 294 787 b 319 726 303 756 310 741 b 356 679 329 710 341 695 b 408 625 370 663 388 645 l 568 467 b 613 418 586 450 601 434 b 644 370 626 402 636 386 b 663 319 653 354 659 337 b 668 260 666 302 668 282 b 655 192 668 236 664 213 b 620 133 646 170 634 151 b 571 88 606 116 589 100 b 514 56 552 75 533 64 b 521 -3 519 35 521 16 m 406 214 b 465 151 428 193 447 172 b 506 83 482 130 495 107 b 563 135 530 97 549 114 b 583 200 576 155 583 177 b 558 291 583 233 575 264 b 483 381 541 318 516 348 l 311 551 b 251 616 288 573 268 594 b 211 685 234 638 220 661 b 153 635 184 671 165 654 b 135 571 141 615 135 594 b 159 477 135 538 143 507 b 233 383 175 447 200 416 l 406 214 "},"":{"ha":563,"x_min":0,"x_max":0,"o":"m 93 868 b 111 914 93 887 99 902 b 157 932 123 926 138 932 b 201 914 175 932 189 926 b 219 868 213 902 219 887 b 201 822 219 850 213 834 b 157 804 189 810 175 804 b 111 822 138 804 123 810 b 93 868 99 834 93 850 m 344 868 b 363 914 344 887 350 902 b 407 932 375 926 389 932 b 453 914 425 932 441 926 b 471 868 465 902 471 887 b 453 822 471 850 465 834 b 407 804 441 810 425 804 b 363 822 389 804 375 810 b 344 868 350 834 344 850 "},"":{"ha":1121,"x_min":0,"x_max":0,"o":"m 1063 479 b 1023 285 1063 410 1049 345 b 915 127 997 225 961 172 b 756 21 870 82 817 47 b 561 -18 696 -5 631 -18 b 365 21 492 -18 426 -5 b 206 127 304 47 251 82 b 99 285 161 172 126 225 b 60 479 73 345 60 410 b 99 674 60 549 73 613 b 206 831 126 734 161 786 b 365 938 251 876 304 912 b 561 976 426 963 492 976 b 756 938 631 976 696 963 b 915 831 817 912 870 876 b 1023 674 961 786 997 734 b 1063 479 1049 613 1063 549 m 1033 479 b 997 663 1033 544 1021 605 b 895 813 972 720 938 770 b 744 915 852 856 802 890 b 561 953 687 940 626 953 b 376 915 495 953 434 940 b 226 813 319 890 269 856 b 125 663 184 770 150 720 b 88 479 100 605 88 544 b 125 297 88 414 100 353 b 226 147 150 240 184 190 b 376 44 269 103 319 69 b 561 7 434 19 495 7 b 744 44 626 7 687 19 b 895 147 802 69 852 103 b 997 297 938 190 972 240 b 1033 479 1021 353 1033 414 m 254 481 b 281 610 254 528 263 571 b 351 712 298 650 322 684 b 452 778 380 740 414 762 b 572 801 491 794 531 801 b 740 751 642 801 698 784 b 821 588 783 717 810 662 l 792 585 b 722 729 781 651 757 700 b 579 774 686 759 638 774 b 492 752 547 774 518 766 b 426 692 467 738 445 718 b 384 600 408 667 394 636 b 369 481 374 564 369 524 b 383 361 369 437 374 397 b 422 268 391 325 404 294 b 486 208 439 242 460 222 b 575 186 512 193 542 186 b 664 202 608 186 638 191 b 731 247 690 213 712 228 b 778 313 750 266 766 288 b 803 396 790 339 798 366 l 832 393 b 804 299 827 359 818 327 b 751 224 790 270 772 245 b 673 176 729 203 703 187 b 572 158 643 164 609 158 b 447 182 528 158 486 166 b 347 249 408 198 375 220 b 279 351 318 277 296 311 b 254 481 263 390 254 433 "},"":{"ha":464,"x_min":0,"x_max":0,"o":"m 276 899 b 204 954 276 936 252 954 b 133 940 177 954 153 950 b 81 903 112 931 94 919 l 64 921 b 126 963 80 938 100 953 b 217 979 151 974 181 979 b 328 958 263 979 300 972 b 369 883 356 944 369 919 l 369 654 b 376 623 369 642 372 632 b 401 610 380 614 388 610 b 426 615 411 610 419 612 b 444 628 434 619 440 623 l 453 610 b 416 588 445 601 433 594 b 367 578 399 581 382 578 b 306 594 342 578 322 583 b 281 639 291 606 282 620 l 279 639 b 231 596 269 622 253 608 b 154 578 209 584 184 578 b 69 604 118 578 90 587 b 39 675 49 622 39 645 b 50 721 39 694 43 709 b 78 751 57 733 67 743 b 117 772 90 760 103 767 b 158 788 132 778 145 783 b 238 826 190 799 216 812 b 276 879 259 841 272 859 l 276 899 m 188 613 b 240 628 206 613 223 618 b 276 668 256 639 268 652 l 276 836 b 250 810 273 828 264 819 b 200 782 236 800 219 791 b 148 745 178 770 160 758 b 129 683 135 733 129 712 b 144 629 129 658 134 640 b 188 613 155 618 169 613 "},"":{"ha":535,"x_min":0,"x_max":0,"o":"m 497 131 l 482 114 l 250 304 l 250 324 l 482 514 l 496 496 l 347 315 l 347 313 m 292 131 l 275 114 l 43 304 l 43 324 l 275 514 l 289 496 l 140 315 l 140 313 "},"":{"ha":639,"x_min":0,"x_max":0,"o":"m 321 436 b 213 457 282 436 246 443 b 128 514 180 471 152 490 b 71 599 104 538 85 566 b 50 707 57 632 50 668 b 71 815 50 746 57 782 b 128 900 85 847 104 876 b 213 956 152 924 180 943 b 321 976 246 970 282 976 b 427 956 359 976 394 970 b 513 900 460 943 488 924 b 569 815 537 876 555 847 b 589 707 582 782 589 746 b 569 599 589 668 582 632 b 513 514 555 566 537 538 b 427 457 488 490 460 471 b 321 436 394 443 359 436 m 321 458 b 417 477 355 458 387 465 b 494 529 447 490 473 507 b 545 608 516 551 533 578 b 564 707 558 638 564 671 b 545 805 564 742 558 775 b 494 883 533 835 516 861 b 417 935 472 906 446 923 b 321 954 387 948 355 954 b 223 935 286 954 253 948 b 145 883 193 923 167 906 b 94 805 123 861 106 835 b 75 707 81 775 75 742 b 94 608 75 671 81 638 b 145 529 106 578 123 551 b 223 477 167 507 193 490 b 321 458 253 465 286 458 m 318 865 b 438 785 398 865 438 838 b 413 734 438 763 429 746 b 353 713 397 722 377 715 l 353 711 b 401 692 373 709 389 703 b 429 643 412 682 422 665 b 445 599 434 629 439 615 b 461 565 451 584 456 573 l 389 565 b 376 595 384 572 380 582 b 365 635 372 609 368 622 b 344 691 359 663 352 682 b 310 704 337 700 325 704 l 279 704 l 279 565 l 211 565 l 211 865 l 318 865 m 313 724 b 356 736 331 724 345 728 b 371 785 366 744 371 761 b 357 831 371 806 366 821 b 311 844 348 840 332 844 l 279 844 l 279 724 "},"":{"ha":563,"x_min":0,"x_max":0,"o":"m 449 903 l 449 835 l 115 835 l 115 903 "},"":{"ha":485,"x_min":0,"x_max":0,"o":"m 243 974 b 310 961 266 974 289 969 b 368 925 332 953 351 941 b 408 867 385 909 398 890 b 424 790 419 845 424 819 b 408 713 424 762 419 736 b 368 655 398 691 385 671 b 310 618 351 639 332 626 b 243 606 289 610 266 606 b 176 618 220 606 197 610 b 118 655 154 626 135 639 b 78 713 101 671 88 691 b 63 790 68 736 63 762 b 78 867 63 819 68 845 b 118 925 88 890 101 909 b 176 961 135 941 154 953 b 243 974 197 969 220 974 m 243 632 b 299 643 263 632 281 636 b 346 674 316 650 332 661 b 379 724 360 688 371 704 b 392 790 388 743 392 765 b 379 857 392 815 388 838 b 346 906 371 876 360 893 b 299 938 332 920 316 930 b 243 949 281 945 263 949 b 187 938 224 949 205 945 b 139 906 169 930 153 920 b 106 857 125 893 114 876 b 93 790 97 838 93 815 b 106 724 93 765 97 743 b 139 674 114 704 125 688 b 187 643 153 661 169 650 b 243 632 205 636 224 632 "},"":{"ha":507,"x_min":0,"x_max":0,"o":"m 53 482 l 49 510 b 127 565 76 529 103 548 b 200 621 152 583 176 601 b 250 663 216 633 232 647 b 299 715 268 678 284 696 b 337 781 315 735 327 756 b 351 861 347 805 351 831 b 231 983 351 943 311 983 b 129 950 189 983 155 972 b 90 865 103 928 90 900 b 110 804 90 839 97 819 b 168 782 124 789 143 782 b 218 797 188 782 205 787 b 244 833 231 806 240 819 l 267 824 b 234 778 262 808 251 793 b 164 757 217 764 194 757 b 88 787 131 757 106 767 b 61 865 70 807 61 833 b 111 969 61 906 78 941 b 246 1011 144 997 189 1011 b 390 975 307 1011 355 999 b 443 865 425 951 443 914 b 422 788 443 838 436 812 b 368 720 407 763 389 741 b 299 662 347 699 324 680 b 232 613 275 644 252 627 l 160 563 l 451 563 l 451 482 "},"":{"ha":488,"x_min":0,"x_max":0,"o":"m 56 574 b 110 522 68 555 86 538 b 199 499 134 506 163 499 b 315 535 250 499 289 511 b 353 639 340 560 353 594 b 331 728 352 679 344 709 b 257 758 317 748 292 758 b 205 747 238 758 220 755 b 160 714 190 740 175 729 l 142 729 l 325 921 l 328 922 l 86 922 l 86 1001 l 418 1001 l 418 981 l 215 774 l 215 772 b 242 781 223 776 232 779 b 282 783 253 782 266 783 b 405 747 337 783 378 771 b 446 642 432 722 446 687 b 381 518 446 590 424 549 b 207 472 337 488 279 472 b 143 481 183 472 162 475 b 93 501 125 486 108 493 b 56 528 78 510 66 519 b 33 557 47 538 39 548 l 56 574 "},"":{"ha":563,"x_min":0,"x_max":0,"o":"m 144 789 l 382 967 l 433 874 l 154 768 "},"":{"ha":732,"x_min":0,"x_max":0,"o":"m 371 388 b 239 407 323 388 279 394 b 136 463 199 420 165 439 b 69 552 107 488 85 517 b 46 671 54 587 46 626 b 70 786 46 713 54 751 b 138 877 86 821 109 852 b 240 937 166 903 200 922 b 371 958 280 951 324 958 l 631 958 l 631 0 l 596 0 l 596 928 l 461 928 l 461 0 l 428 0 l 428 388 "},"":{"ha":300,"x_min":0,"x_max":0,"o":"m 225 460 b 203 406 225 438 218 421 b 150 385 189 392 171 385 b 97 406 129 385 111 392 b 75 460 82 421 75 438 b 97 514 75 481 82 499 b 150 536 111 529 129 536 b 203 514 171 536 189 529 b 225 460 218 499 225 481 "},"":{"ha":563,"x_min":0,"x_max":0,"o":"m 250 -90 b 303 -79 265 -83 282 -79 b 385 -102 337 -79 364 -87 b 415 -167 405 -117 415 -139 b 376 -234 415 -196 402 -219 b 278 -257 349 -249 317 -257 b 202 -242 248 -257 223 -252 b 154 -207 181 -231 165 -220 l 171 -189 b 210 -219 180 -201 193 -211 b 261 -231 226 -227 244 -231 b 338 -167 312 -231 338 -209 b 276 -107 338 -127 317 -107 b 226 -119 256 -107 239 -111 l 213 -101 l 274 0 l 306 0 "},"":{"ha":294,"x_min":0,"x_max":0,"o":"m 139 964 l 65 964 l 65 986 b 105 989 76 986 90 987 b 150 996 120 991 135 993 b 193 1006 165 999 179 1002 b 226 1017 207 1009 218 1013 l 226 485 l 139 485 "},"":{"ha":515,"x_min":0,"x_max":0,"o":"m 260 578 b 175 594 229 578 201 583 b 108 637 149 604 127 619 b 63 701 89 655 74 676 b 47 779 53 725 47 751 b 63 856 47 806 53 832 b 108 920 74 881 89 902 b 175 963 127 938 149 953 b 260 979 201 974 229 979 b 344 963 290 979 318 974 b 410 920 369 953 391 938 b 453 857 428 902 443 881 b 469 781 464 833 469 807 b 453 701 469 753 464 726 b 410 637 443 676 428 655 b 344 594 391 619 369 604 b 260 578 318 583 290 578 m 260 956 b 174 906 221 956 192 939 b 146 779 155 873 146 831 b 174 652 146 727 155 685 b 260 603 192 619 221 603 b 344 652 299 603 327 619 b 369 781 361 685 369 728 b 344 906 369 831 361 873 b 260 956 327 939 299 956 "},"":{"ha":535,"x_min":0,"x_max":0,"o":"m 260 514 l 492 324 l 492 304 l 260 114 l 243 131 l 394 313 l 394 315 l 246 494 m 54 514 l 285 324 l 285 304 l 54 114 l 38 131 l 189 313 l 189 315 l 39 494 "},"":{"ha":796,"x_min":0,"x_max":0,"o":"m 367 964 l 293 964 l 293 986 b 333 989 304 986 317 987 b 378 996 348 991 363 993 b 421 1006 393 999 407 1002 b 454 1017 435 1009 446 1013 l 454 485 l 367 485 m 47 317 l 47 342 l 749 342 l 749 317 m 400 -182 l 164 -182 l 164 -157 l 425 189 l 489 189 l 489 -156 l 596 -156 l 596 -182 l 489 -182 l 489 -335 l 400 -335 m 400 113 l 196 -156 l 400 -156 "},"":{"ha":796,"x_min":0,"x_max":0,"o":"m 367 964 l 293 964 l 293 986 b 333 989 304 986 317 987 b 378 996 348 991 363 993 b 421 1006 393 999 407 1002 b 454 1017 435 1009 446 1013 l 454 485 l 367 485 m 47 317 l 47 342 l 749 342 l 749 317 m 208 -335 l 204 -307 b 283 -251 232 -287 258 -269 b 356 -196 307 -234 331 -215 b 406 -154 371 -184 388 -170 b 455 -101 423 -138 440 -121 b 492 -36 470 -82 483 -60 b 507 44 502 -12 507 15 b 386 167 507 126 467 167 b 285 133 344 167 311 156 b 246 49 259 111 246 83 b 266 -12 246 23 253 2 b 324 -35 279 -27 299 -35 b 374 -20 344 -35 361 -30 b 400 17 387 -10 395 2 l 422 7 b 390 -38 418 -9 407 -24 b 319 -60 372 -53 349 -60 b 244 -30 287 -60 262 -50 b 217 49 226 -10 217 16 b 267 152 217 89 233 124 b 401 194 300 180 345 194 b 546 158 463 194 511 182 b 599 49 581 134 599 98 b 577 -29 599 21 591 -5 b 524 -97 563 -53 545 -76 b 455 -155 502 -117 479 -137 b 388 -204 430 -173 408 -189 l 315 -254 l 607 -254 l 607 -335 "},"":{"ha":796,"x_min":0,"x_max":0,"o":"m 215 575 b 269 524 227 556 245 539 b 358 500 294 508 323 500 b 474 537 410 500 449 512 b 513 640 500 561 513 596 b 490 730 512 680 504 710 b 417 760 476 750 452 760 b 365 749 397 760 380 756 b 319 715 349 741 334 730 l 301 731 l 485 922 l 488 924 l 246 924 l 246 1003 l 578 1003 l 578 982 l 375 775 l 375 774 b 402 782 382 777 391 780 b 442 785 413 784 426 785 b 565 748 496 785 537 772 b 606 643 592 723 606 688 b 540 519 606 591 584 550 b 367 474 497 489 439 474 b 303 482 343 474 321 476 b 253 503 284 488 268 494 b 216 530 238 511 226 520 b 193 558 206 540 199 549 l 215 575 m 46 317 l 46 342 l 747 342 l 747 317 m 400 -182 l 164 -182 l 164 -157 l 425 189 l 489 189 l 489 -156 l 596 -156 l 596 -182 l 489 -182 l 489 -335 l 400 -335 m 400 113 l 196 -156 l 400 -156 "},"":{"ha":635,"x_min":0,"x_max":0,"o":"m 278 619 b 299 671 278 640 285 657 b 350 692 313 685 330 692 b 403 671 371 692 389 685 b 424 619 417 657 424 640 b 403 567 424 598 417 581 b 350 546 389 553 371 546 b 299 567 330 546 313 553 b 278 619 285 581 278 598 m 446 338 b 435 285 446 318 442 301 b 408 243 428 270 419 256 b 369 207 396 230 383 218 b 326 172 354 196 340 184 b 268 122 306 156 287 139 b 219 66 250 104 233 86 b 185 -1 204 46 193 24 b 172 -83 176 -25 172 -53 b 220 -215 172 -144 188 -188 b 357 -256 252 -242 298 -256 b 494 -210 408 -256 453 -240 b 569 -74 534 -179 559 -134 l 601 -81 b 570 -171 597 -114 586 -144 b 508 -240 554 -198 533 -221 b 422 -283 483 -259 454 -273 b 317 -297 389 -292 354 -297 b 114 -247 232 -297 165 -280 b 38 -92 63 -213 38 -161 b 59 -10 38 -62 45 -35 b 115 59 73 14 92 37 b 192 122 138 81 164 102 b 276 182 221 141 249 162 b 324 215 292 193 308 204 b 367 249 339 225 354 237 b 399 290 380 262 390 275 b 411 338 407 304 411 320 b 393 383 411 356 405 371 b 347 400 381 394 366 400 b 297 387 327 400 310 396 b 265 357 284 378 274 368 l 244 374 b 287 413 255 388 269 401 b 350 429 305 424 326 429 b 418 403 377 429 400 421 b 446 338 437 386 446 364 "},"":{"ha":846,"x_min":0,"x_max":0,"o":"m 196 326 l 69 0 l 29 0 l 411 974 l 444 974 l 814 0 l 664 0 l 543 326 m 531 360 l 375 776 l 371 776 l 210 360 m 563 1057 l 556 1035 l 267 1125 l 313 1219 "},"":{"ha":846,"x_min":0,"x_max":0,"o":"m 196 326 l 69 0 l 29 0 l 411 974 l 444 974 l 814 0 l 664 0 l 543 326 m 531 360 l 375 776 l 371 776 l 210 360 m 296 1050 l 543 1219 l 593 1125 l 306 1028 "},"":{"ha":846,"x_min":0,"x_max":0,"o":"m 196 326 l 69 0 l 29 0 l 411 974 l 444 974 l 814 0 l 664 0 l 543 326 m 531 360 l 375 776 l 371 776 l 210 360 m 238 1057 l 400 1217 l 446 1217 l 610 1057 l 594 1043 l 424 1131 l 253 1043 "},"":{"ha":846,"x_min":0,"x_max":0,"o":"m 196 326 l 69 0 l 29 0 l 411 974 l 444 974 l 814 0 l 664 0 l 543 326 m 531 360 l 375 776 l 371 776 l 210 360 m 218 1039 b 272 1143 234 1083 252 1118 b 358 1181 293 1168 321 1181 b 403 1175 372 1181 387 1179 b 452 1162 420 1171 436 1167 b 501 1149 468 1157 484 1152 b 547 1143 517 1145 532 1143 b 594 1153 565 1143 581 1147 b 633 1203 608 1160 621 1177 l 656 1196 b 606 1093 643 1153 626 1119 b 521 1054 585 1067 557 1054 b 476 1060 507 1054 492 1056 b 427 1073 459 1063 443 1068 b 378 1086 411 1078 395 1082 b 332 1092 362 1090 347 1092 b 281 1081 313 1092 297 1088 b 240 1031 266 1073 252 1056 l 218 1039 "},"":{"ha":846,"x_min":0,"x_max":0,"o":"m 196 326 l 69 0 l 29 0 l 411 974 l 444 974 l 814 0 l 664 0 l 543 326 m 531 360 l 375 776 l 371 776 l 210 360 m 235 1111 b 253 1157 235 1130 241 1145 b 299 1175 265 1169 280 1175 b 344 1157 317 1175 332 1169 b 363 1111 356 1145 363 1130 b 344 1065 363 1093 356 1077 b 299 1047 332 1053 317 1047 b 253 1065 280 1047 265 1053 b 235 1111 241 1077 235 1093 m 488 1111 b 506 1157 488 1130 494 1145 b 551 1175 518 1169 533 1175 b 597 1157 570 1175 585 1169 b 615 1111 609 1145 615 1130 b 597 1065 615 1093 609 1077 b 551 1047 585 1053 570 1047 b 506 1065 533 1047 518 1053 b 488 1111 494 1077 488 1093 "},"":{"ha":846,"x_min":0,"x_max":0,"o":"m 196 326 l 69 0 l 29 0 l 411 974 l 444 974 l 814 0 l 664 0 l 543 326 m 531 360 l 375 776 l 371 776 l 210 360 m 539 1133 b 503 1051 539 1098 527 1071 b 424 1022 480 1032 453 1022 b 344 1051 394 1022 368 1032 b 310 1133 321 1071 310 1098 b 344 1215 310 1169 321 1196 b 424 1244 368 1235 394 1244 b 503 1215 453 1244 480 1235 b 539 1133 527 1196 539 1169 m 354 1133 b 372 1069 354 1106 360 1085 b 424 1044 384 1053 401 1044 b 476 1069 447 1044 464 1053 b 493 1133 487 1085 493 1106 b 476 1198 493 1160 487 1182 b 424 1222 464 1214 447 1222 b 372 1198 401 1222 384 1214 b 354 1133 360 1182 354 1160 "},"":{"ha":1219,"x_min":0,"x_max":0,"o":"m 1150 958 l 1150 925 l 717 925 l 717 519 l 1022 519 l 1022 486 l 717 486 l 717 33 l 1182 33 l 1182 0 l 575 0 l 575 349 l 226 349 l 18 0 l -24 0 l 551 958 m 575 382 l 575 925 l 572 925 l 247 382 "},"":{"ha":1007,"x_min":0,"x_max":0,"o":"m 54 479 b 94 681 54 552 67 620 b 201 839 120 743 156 795 b 356 941 246 882 297 916 b 542 978 415 966 477 978 b 687 958 594 978 643 971 b 803 897 731 945 769 925 b 886 792 836 869 864 834 b 932 642 908 750 924 700 l 894 639 b 781 869 879 744 841 820 b 546 942 720 917 642 942 b 399 906 490 942 441 930 b 291 809 356 883 320 850 b 225 663 262 768 240 719 b 203 479 210 606 203 545 b 226 296 203 413 211 352 b 295 149 242 239 265 191 b 404 52 325 108 362 76 b 547 17 447 28 494 17 b 694 42 603 17 652 25 b 803 112 737 58 773 82 b 876 218 834 142 858 177 b 915 351 895 259 908 303 l 951 349 b 909 202 944 296 930 247 b 827 85 888 157 861 118 b 706 8 793 53 753 27 b 544 -19 658 -10 605 -19 b 352 17 476 -19 412 -7 b 197 119 292 42 241 76 b 92 276 153 163 118 215 b 54 479 67 337 54 405 m 465 -90 b 518 -79 480 -83 498 -79 b 600 -102 552 -79 580 -87 b 631 -167 620 -117 631 -139 b 591 -234 631 -196 617 -219 b 493 -257 565 -249 532 -257 b 417 -242 463 -257 438 -252 b 369 -207 397 -231 381 -220 l 386 -189 b 425 -219 395 -201 408 -211 b 476 -231 442 -227 459 -231 b 553 -167 527 -231 553 -209 b 492 -107 553 -127 532 -107 b 442 -119 471 -107 455 -111 l 428 -101 l 489 0 l 521 0 "},"":{"ha":761,"x_min":0,"x_max":0,"o":"m 696 925 l 244 925 l 244 519 l 560 519 l 560 486 l 244 486 l 244 33 l 728 33 l 728 0 l 103 0 l 103 958 l 696 958 m 557 1057 l 550 1035 l 261 1125 l 307 1219 "},"":{"ha":761,"x_min":0,"x_max":0,"o":"m 696 925 l 244 925 l 244 519 l 560 519 l 560 486 l 244 486 l 244 33 l 728 33 l 728 0 l 103 0 l 103 958 l 696 958 m 285 1050 l 532 1219 l 582 1125 l 294 1028 "},"":{"ha":761,"x_min":0,"x_max":0,"o":"m 696 925 l 244 925 l 244 519 l 560 519 l 560 486 l 244 486 l 244 33 l 728 33 l 728 0 l 103 0 l 103 958 l 696 958 m 232 1057 l 394 1217 l 440 1217 l 604 1057 l 589 1043 l 418 1131 l 247 1043 "},"":{"ha":761,"x_min":0,"x_max":0,"o":"m 696 925 l 244 925 l 244 519 l 560 519 l 560 486 l 244 486 l 244 33 l 728 33 l 728 0 l 103 0 l 103 958 l 696 958 m 229 1111 b 247 1157 229 1130 235 1145 b 293 1175 259 1169 275 1175 b 339 1157 312 1175 327 1169 b 357 1111 351 1145 357 1130 b 339 1065 357 1093 351 1077 b 293 1047 327 1053 312 1047 b 247 1065 275 1047 259 1053 b 229 1111 235 1077 229 1093 m 482 1111 b 500 1157 482 1130 488 1145 b 546 1175 512 1169 527 1175 b 592 1157 564 1175 580 1169 b 610 1111 604 1145 610 1130 b 592 1065 610 1093 604 1077 b 546 1047 580 1053 564 1047 b 500 1065 527 1047 512 1053 b 482 1111 488 1077 482 1093 "},"":{"ha":343,"x_min":0,"x_max":0,"o":"m 243 958 l 243 0 l 100 0 l 100 958 m 313 1057 l 306 1035 l 17 1125 l 63 1219 "},"":{"ha":343,"x_min":0,"x_max":0,"o":"m 243 958 l 243 0 l 100 0 l 100 958 m 36 1050 l 283 1219 l 333 1125 l 46 1028 "},"":{"ha":343,"x_min":0,"x_max":0,"o":"m 243 958 l 243 0 l 100 0 l 100 958 m -15 1057 l 147 1217 l 193 1217 l 357 1057 l 342 1043 l 171 1131 l 0 1043 "},"":{"ha":343,"x_min":0,"x_max":0,"o":"m -12 1111 b 6 1157 -12 1130 -6 1145 b 51 1175 19 1169 34 1175 b 97 1157 70 1175 85 1169 b 115 1111 109 1145 115 1130 b 97 1065 115 1093 109 1077 b 51 1047 85 1053 70 1047 b 6 1065 34 1047 19 1053 b -12 1111 -6 1077 -12 1093 m 228 1111 b 246 1157 228 1130 234 1145 b 290 1175 258 1169 273 1175 b 336 1157 309 1175 324 1169 b 354 1111 348 1145 354 1130 b 336 1065 354 1093 348 1077 b 290 1047 324 1053 309 1047 b 246 1065 273 1047 258 1053 b 228 1111 234 1077 228 1093 m 243 958 l 243 0 l 100 0 l 100 958 "},"":{"ha":1026,"x_min":0,"x_max":0,"o":"m 969 482 b 931 278 969 406 956 338 b 824 127 905 219 869 168 b 665 33 778 86 725 54 b 474 0 605 11 541 0 l 144 0 l 144 467 l 17 467 l 17 500 l 144 500 l 144 958 l 457 958 b 668 926 535 958 605 948 b 829 834 731 905 785 874 b 933 685 874 794 908 744 b 969 482 957 625 969 558 m 469 33 b 733 147 587 33 675 71 b 821 481 792 223 821 334 b 801 661 821 546 814 606 b 738 802 788 716 767 763 b 623 894 709 841 671 872 b 449 926 575 916 517 926 l 286 926 l 286 500 l 536 500 l 536 467 l 286 467 l 286 33 l 469 33 "},"":{"ha":908,"x_min":0,"x_max":0,"o":"m 719 -3 l 143 894 l 140 894 l 140 0 l 103 0 l 103 958 l 265 958 l 768 194 l 772 194 l 772 958 l 810 958 l 810 -3 m 274 1039 b 328 1143 289 1083 307 1118 b 414 1181 348 1168 377 1181 b 459 1175 428 1181 443 1179 b 508 1162 475 1171 491 1167 b 556 1149 524 1157 540 1152 b 603 1143 572 1145 588 1143 b 650 1153 620 1143 636 1147 b 689 1203 664 1160 677 1177 l 711 1196 b 661 1093 698 1153 681 1119 b 576 1054 641 1067 613 1054 b 531 1060 563 1054 547 1056 b 483 1073 515 1063 499 1068 b 434 1086 466 1078 450 1082 b 388 1092 418 1090 402 1092 b 337 1081 369 1092 352 1088 b 296 1031 322 1073 308 1056 l 274 1039 "},"":{"ha":1092,"x_min":0,"x_max":0,"o":"m 57 479 b 98 685 57 555 71 624 b 208 842 125 746 162 798 b 364 942 253 885 306 919 b 546 978 422 966 483 978 b 728 942 609 978 670 966 b 885 842 787 919 839 885 b 994 685 930 798 966 746 b 1035 479 1021 624 1035 555 b 994 274 1035 404 1021 336 b 885 117 966 213 930 160 b 728 16 839 73 787 40 b 546 -19 670 -8 609 -19 b 364 16 483 -19 422 -8 b 208 117 306 40 253 73 b 98 274 162 160 125 213 b 57 479 71 336 57 404 m 204 479 b 227 287 204 408 212 344 b 294 141 242 230 265 181 b 401 48 323 101 359 70 b 546 15 444 26 492 15 b 690 48 600 15 648 26 b 798 141 733 70 769 101 b 865 287 827 181 849 230 b 888 479 880 344 888 408 b 865 672 888 550 880 615 b 798 817 849 728 827 777 b 690 910 769 858 733 889 b 546 943 648 932 600 943 b 401 910 492 943 444 932 b 294 817 359 889 323 858 b 227 672 265 777 242 728 b 204 479 212 615 204 550 m 693 1057 l 686 1035 l 397 1125 l 443 1219 "},"":{"ha":1092,"x_min":0,"x_max":0,"o":"m 57 479 b 98 685 57 555 71 624 b 208 842 125 746 162 798 b 364 942 253 885 306 919 b 546 978 422 966 483 978 b 728 942 609 978 670 966 b 885 842 787 919 839 885 b 994 685 930 798 966 746 b 1035 479 1021 624 1035 555 b 994 274 1035 404 1021 336 b 885 117 966 213 930 160 b 728 16 839 73 787 40 b 546 -19 670 -8 609 -19 b 364 16 483 -19 422 -8 b 208 117 306 40 253 73 b 98 274 162 160 125 213 b 57 479 71 336 57 404 m 204 479 b 227 287 204 408 212 344 b 294 141 242 230 265 181 b 401 48 323 101 359 70 b 546 15 444 26 492 15 b 690 48 600 15 648 26 b 798 141 733 70 769 101 b 865 287 827 181 849 230 b 888 479 880 344 888 408 b 865 672 888 550 880 615 b 798 817 849 728 827 777 b 690 910 769 858 733 889 b 546 943 648 932 600 943 b 401 910 492 943 444 932 b 294 817 359 889 323 858 b 227 672 265 777 242 728 b 204 479 212 615 204 550 m 413 1050 l 660 1219 l 710 1125 l 422 1028 "},"":{"ha":1092,"x_min":0,"x_max":0,"o":"m 57 479 b 98 685 57 555 71 624 b 208 842 125 746 162 798 b 364 942 253 885 306 919 b 546 978 422 966 483 978 b 728 942 609 978 670 966 b 885 842 787 919 839 885 b 994 685 930 798 966 746 b 1035 479 1021 624 1035 555 b 994 274 1035 404 1021 336 b 885 117 966 213 930 160 b 728 16 839 73 787 40 b 546 -19 670 -8 609 -19 b 364 16 483 -19 422 -8 b 208 117 306 40 253 73 b 98 274 162 160 125 213 b 57 479 71 336 57 404 m 204 479 b 227 287 204 408 212 344 b 294 141 242 230 265 181 b 401 48 323 101 359 70 b 546 15 444 26 492 15 b 690 48 600 15 648 26 b 798 141 733 70 769 101 b 865 287 827 181 849 230 b 888 479 880 344 888 408 b 865 672 888 550 880 615 b 798 817 849 728 827 777 b 690 910 769 858 733 889 b 546 943 648 932 600 943 b 401 910 492 943 444 932 b 294 817 359 889 323 858 b 227 672 265 777 242 728 b 204 479 212 615 204 550 m 361 1057 l 524 1217 l 569 1217 l 733 1057 l 718 1043 l 547 1131 l 376 1043 "},"":{"ha":1092,"x_min":0,"x_max":0,"o":"m 57 479 b 98 685 57 555 71 624 b 208 842 125 746 162 798 b 364 942 253 885 306 919 b 546 978 422 966 483 978 b 728 942 609 978 670 966 b 885 842 787 919 839 885 b 994 685 930 798 966 746 b 1035 479 1021 624 1035 555 b 994 274 1035 404 1021 336 b 885 117 966 213 930 160 b 728 16 839 73 787 40 b 546 -19 670 -8 609 -19 b 364 16 483 -19 422 -8 b 208 117 306 40 253 73 b 98 274 162 160 125 213 b 57 479 71 336 57 404 m 204 479 b 227 287 204 408 212 344 b 294 141 242 230 265 181 b 401 48 323 101 359 70 b 546 15 444 26 492 15 b 690 48 600 15 648 26 b 798 141 733 70 769 101 b 865 287 827 181 849 230 b 888 479 880 344 888 408 b 865 672 888 550 880 615 b 798 817 849 728 827 777 b 690 910 769 858 733 889 b 546 943 648 932 600 943 b 401 910 492 943 444 932 b 294 817 359 889 323 858 b 227 672 265 777 242 728 b 204 479 212 615 204 550 m 340 1039 b 394 1143 356 1083 374 1118 b 481 1181 415 1168 444 1181 b 526 1175 494 1181 509 1179 b 574 1162 542 1171 558 1167 b 623 1149 591 1157 607 1152 b 669 1143 639 1145 655 1143 b 717 1153 687 1143 703 1147 b 756 1203 731 1160 744 1177 l 778 1196 b 728 1093 765 1153 748 1119 b 643 1054 707 1067 679 1054 b 598 1060 629 1054 614 1056 b 549 1073 582 1063 566 1068 b 501 1086 533 1078 517 1082 b 454 1092 484 1090 469 1092 b 403 1081 436 1092 419 1088 b 363 1031 388 1073 375 1056 l 340 1039 "},"":{"ha":1092,"x_min":0,"x_max":0,"o":"m 57 479 b 98 685 57 555 71 624 b 208 842 125 746 162 798 b 364 942 253 885 306 919 b 546 978 422 966 483 978 b 728 942 609 978 670 966 b 885 842 787 919 839 885 b 994 685 930 798 966 746 b 1035 479 1021 624 1035 555 b 994 274 1035 404 1021 336 b 885 117 966 213 930 160 b 728 16 839 73 787 40 b 546 -19 670 -8 609 -19 b 364 16 483 -19 422 -8 b 208 117 306 40 253 73 b 98 274 162 160 125 213 b 57 479 71 336 57 404 m 204 479 b 227 287 204 408 212 344 b 294 141 242 230 265 181 b 401 48 323 101 359 70 b 546 15 444 26 492 15 b 690 48 600 15 648 26 b 798 141 733 70 769 101 b 865 287 827 181 849 230 b 888 479 880 344 888 408 b 865 672 888 550 880 615 b 798 817 849 728 827 777 b 690 910 769 858 733 889 b 546 943 648 932 600 943 b 401 910 492 943 444 932 b 294 817 359 889 323 858 b 227 672 265 777 242 728 b 204 479 212 615 204 550 m 358 1111 b 376 1157 358 1130 364 1145 b 422 1175 388 1169 404 1175 b 468 1157 441 1175 456 1169 b 486 1111 480 1145 486 1130 b 468 1065 486 1093 480 1077 b 422 1047 456 1053 441 1047 b 376 1065 404 1047 388 1053 b 358 1111 364 1077 358 1093 m 611 1111 b 629 1157 611 1130 617 1145 b 675 1175 641 1169 656 1175 b 721 1157 694 1175 709 1169 b 739 1111 733 1145 739 1130 b 721 1065 739 1093 733 1077 b 675 1047 709 1053 694 1047 b 629 1065 656 1047 641 1053 b 611 1111 617 1077 611 1093 "},"":{"ha":636,"x_min":0,"x_max":0,"o":"m 522 681 l 544 660 l 339 456 l 544 250 l 522 228 l 318 433 l 114 229 l 92 250 l 296 456 l 92 658 l 114 681 l 318 476 "},"":{"ha":1092,"x_min":0,"x_max":0,"o":"m 546 -19 b 326 33 468 -19 395 -2 l 267 -79 l 236 -64 l 296 50 b 199 124 261 70 228 95 b 124 222 170 153 145 186 b 75 341 103 258 87 298 b 57 479 63 384 57 430 b 98 685 57 555 71 624 b 208 842 125 746 162 798 b 364 942 253 885 306 919 b 546 978 422 966 483 978 b 658 965 584 978 621 973 b 763 928 694 956 729 944 l 819 1035 l 850 1021 l 792 911 b 889 837 827 891 859 866 b 966 739 919 808 944 775 b 1017 619 988 703 1005 663 b 1035 479 1029 576 1035 529 b 994 274 1035 404 1021 336 b 885 117 966 213 930 160 b 728 16 839 73 787 40 b 546 -19 670 -8 609 -19 m 201 479 b 233 258 201 395 212 321 b 325 103 253 194 284 143 l 738 882 b 546 943 686 923 622 943 b 400 911 491 943 443 932 b 292 819 357 890 322 859 b 225 672 263 778 241 730 b 201 479 209 615 201 550 m 890 479 b 858 703 890 564 880 639 b 764 858 837 767 806 819 l 350 79 b 546 15 404 37 469 15 b 691 48 600 15 648 26 b 799 141 734 70 770 101 b 867 287 828 181 851 230 b 890 479 882 344 890 408 "},"":{"ha":939,"x_min":0,"x_max":0,"o":"m 847 310 b 754 64 847 200 816 119 b 492 -18 692 9 605 -18 b 326 0 431 -18 375 -12 b 201 58 277 12 235 31 b 120 160 166 84 139 118 b 92 313 101 201 92 252 l 92 958 l 233 958 l 233 307 b 303 90 233 209 256 137 b 511 21 349 44 419 21 b 729 94 604 21 676 45 b 808 317 782 144 808 218 l 808 958 l 847 958 m 647 1057 l 640 1035 l 351 1125 l 397 1219 "},"":{"ha":939,"x_min":0,"x_max":0,"o":"m 847 310 b 754 64 847 200 816 119 b 492 -18 692 9 605 -18 b 326 0 431 -18 375 -12 b 201 58 277 12 235 31 b 120 160 166 84 139 118 b 92 313 101 201 92 252 l 92 958 l 233 958 l 233 307 b 303 90 233 209 256 137 b 511 21 349 44 419 21 b 729 94 604 21 676 45 b 808 317 782 144 808 218 l 808 958 l 847 958 m 383 1050 l 631 1219 l 681 1125 l 393 1028 "},"":{"ha":939,"x_min":0,"x_max":0,"o":"m 847 310 b 754 64 847 200 816 119 b 492 -18 692 9 605 -18 b 326 0 431 -18 375 -12 b 201 58 277 12 235 31 b 120 160 166 84 139 118 b 92 313 101 201 92 252 l 92 958 l 233 958 l 233 307 b 303 90 233 209 256 137 b 511 21 349 44 419 21 b 729 94 604 21 676 45 b 808 317 782 144 808 218 l 808 958 l 847 958 m 318 1057 l 481 1217 l 526 1217 l 690 1057 l 675 1043 l 504 1131 l 333 1043 "},"":{"ha":939,"x_min":0,"x_max":0,"o":"m 847 310 b 754 64 847 200 816 119 b 492 -18 692 9 605 -18 b 326 0 431 -18 375 -12 b 201 58 277 12 235 31 b 120 160 166 84 139 118 b 92 313 101 201 92 252 l 92 958 l 233 958 l 233 307 b 303 90 233 209 256 137 b 511 21 349 44 419 21 b 729 94 604 21 676 45 b 808 317 782 144 808 218 l 808 958 l 847 958 m 314 1111 b 332 1157 314 1130 320 1145 b 378 1175 344 1169 359 1175 b 424 1157 396 1175 412 1169 b 442 1111 436 1145 442 1130 b 424 1065 442 1093 436 1077 b 378 1047 412 1053 396 1047 b 332 1065 359 1047 344 1053 b 314 1111 320 1077 314 1093 m 567 1111 b 585 1157 567 1130 573 1145 b 631 1175 597 1169 612 1175 b 676 1157 649 1175 664 1169 b 694 1111 688 1145 694 1130 b 676 1065 694 1093 688 1077 b 631 1047 664 1053 649 1047 b 585 1065 612 1047 597 1053 b 567 1111 573 1077 567 1093 "},"":{"ha":797,"x_min":0,"x_max":0,"o":"m 21 958 l 178 958 l 454 485 l 457 485 l 740 958 l 781 958 l 472 440 l 472 0 l 331 0 l 331 439 m 326 1050 l 574 1219 l 624 1125 l 336 1028 "},"":{"ha":747,"x_min":0,"x_max":0,"o":"m 103 958 l 244 958 l 244 750 l 332 750 b 606 690 455 750 547 730 b 696 499 666 650 696 587 b 605 313 696 417 666 355 b 336 250 544 271 455 250 l 244 250 l 244 0 l 103 0 m 331 282 b 503 335 409 282 467 300 b 558 500 540 370 558 425 b 506 668 558 579 541 635 b 329 718 472 701 413 718 l 244 718 l 244 282 "},"":{"ha":831,"x_min":0,"x_max":0,"o":"m 604 849 b 565 955 604 891 591 927 b 432 997 538 983 494 997 b 305 963 379 997 337 986 b 257 853 273 939 257 903 l 257 0 l 124 0 l 124 613 l 35 613 l 35 642 l 124 642 l 124 807 b 153 910 124 848 134 882 b 224 976 173 939 197 961 b 319 1014 253 994 285 1006 b 435 1025 354 1021 392 1025 b 542 1013 474 1025 509 1021 b 627 978 575 1004 603 993 b 682 926 651 964 669 947 b 701 858 695 906 701 883 b 685 794 701 834 696 813 b 644 742 674 775 660 757 b 596 700 629 726 613 712 b 554 669 579 688 565 678 b 485 608 525 648 502 628 b 458 539 467 589 458 566 b 466 494 458 522 461 507 b 491 459 471 481 479 470 b 535 429 503 448 517 438 b 601 399 553 420 575 410 b 685 362 632 386 660 373 b 748 322 710 350 731 337 b 788 267 765 306 778 288 b 801 188 797 245 801 219 b 786 111 801 161 796 135 b 740 48 776 87 761 66 b 666 4 720 30 695 15 b 564 -12 637 -7 603 -12 b 483 -2 536 -12 509 -9 b 413 31 457 5 434 16 b 358 91 391 47 373 66 b 325 179 342 116 331 145 l 356 186 b 432 56 369 126 394 83 b 560 17 470 30 513 17 b 674 48 610 17 648 27 b 714 128 701 69 714 95 b 703 178 714 148 710 165 b 672 215 697 192 686 204 b 620 244 658 225 641 235 b 547 274 599 253 575 263 b 472 308 519 285 494 296 b 415 348 450 319 431 333 b 378 401 400 363 387 381 b 365 472 370 421 365 444 b 379 538 365 496 370 518 b 415 591 388 557 400 575 b 463 635 429 607 445 622 b 513 672 480 648 497 660 b 579 745 540 694 563 718 b 604 849 596 772 604 807 "},"":{"ha":690,"x_min":0,"x_max":0,"o":"m 442 526 b 411 604 443 565 432 591 b 319 624 390 617 359 624 b 195 599 272 624 231 615 b 113 538 159 582 132 562 l 89 558 b 183 626 110 585 141 608 b 328 654 224 645 272 654 b 418 648 358 654 388 652 b 497 625 448 644 474 636 b 553 578 520 614 539 598 b 574 499 567 557 574 531 l 572 99 b 583 47 572 78 576 61 b 625 25 590 32 604 25 b 660 33 639 25 650 28 b 685 49 669 38 677 43 l 697 29 b 648 0 685 19 669 9 b 575 -14 627 -9 603 -14 b 481 17 533 -14 502 -4 b 446 94 459 37 448 63 l 443 94 b 358 19 425 67 396 42 b 229 -14 319 -3 276 -14 b 97 30 172 -14 128 1 b 50 147 66 59 50 98 b 67 224 50 178 56 203 b 114 278 79 245 94 263 b 180 315 133 293 155 305 b 256 342 204 324 230 333 b 318 365 276 348 297 356 b 376 397 339 375 359 385 b 419 436 393 408 407 421 b 442 485 431 451 439 467 l 442 526 m 289 38 b 379 65 321 38 351 47 b 440 129 407 84 427 105 l 442 428 b 394 378 436 411 420 395 b 307 333 369 362 339 347 b 255 308 288 325 271 317 b 213 278 239 300 225 290 b 184 234 200 267 191 252 b 174 164 177 216 174 193 b 206 67 174 119 184 86 b 289 38 228 47 256 38 m 472 789 l 461 768 l 183 874 l 235 967 "},"":{"ha":690,"x_min":0,"x_max":0,"o":"m 442 526 b 411 604 443 565 432 591 b 319 624 390 617 359 624 b 195 599 272 624 231 615 b 113 538 159 582 132 562 l 89 558 b 183 626 110 585 141 608 b 328 654 224 645 272 654 b 418 648 358 654 388 652 b 497 625 448 644 474 636 b 553 578 520 614 539 598 b 574 499 567 557 574 531 l 572 99 b 583 47 572 78 576 61 b 625 25 590 32 604 25 b 660 33 639 25 650 28 b 685 49 669 38 677 43 l 697 29 b 648 0 685 19 669 9 b 575 -14 627 -9 603 -14 b 481 17 533 -14 502 -4 b 446 94 459 37 448 63 l 443 94 b 358 19 425 67 396 42 b 229 -14 319 -3 276 -14 b 97 30 172 -14 128 1 b 50 147 66 59 50 98 b 67 224 50 178 56 203 b 114 278 79 245 94 263 b 180 315 133 293 155 305 b 256 342 204 324 230 333 b 318 365 276 348 297 356 b 376 397 339 375 359 385 b 419 436 393 408 407 421 b 442 485 431 451 439 467 l 442 526 m 289 38 b 379 65 321 38 351 47 b 440 129 407 84 427 105 l 442 428 b 394 378 436 411 420 395 b 307 333 369 362 339 347 b 255 308 288 325 271 317 b 213 278 239 300 225 290 b 184 234 200 267 191 252 b 174 164 177 216 174 193 b 206 67 174 119 184 86 b 289 38 228 47 256 38 m 206 789 l 443 967 l 494 874 l 215 768 "},"":{"ha":690,"x_min":0,"x_max":0,"o":"m 442 526 b 411 604 443 565 432 591 b 319 624 390 617 359 624 b 195 599 272 624 231 615 b 113 538 159 582 132 562 l 89 558 b 183 626 110 585 141 608 b 328 654 224 645 272 654 b 418 648 358 654 388 652 b 497 625 448 644 474 636 b 553 578 520 614 539 598 b 574 499 567 557 574 531 l 572 99 b 583 47 572 78 576 61 b 625 25 590 32 604 25 b 660 33 639 25 650 28 b 685 49 669 38 677 43 l 697 29 b 648 0 685 19 669 9 b 575 -14 627 -9 603 -14 b 481 17 533 -14 502 -4 b 446 94 459 37 448 63 l 443 94 b 358 19 425 67 396 42 b 229 -14 319 -3 276 -14 b 97 30 172 -14 128 1 b 50 147 66 59 50 98 b 67 224 50 178 56 203 b 114 278 79 245 94 263 b 180 315 133 293 155 305 b 256 342 204 324 230 333 b 318 365 276 348 297 356 b 376 397 339 375 359 385 b 419 436 393 408 407 421 b 442 485 431 451 439 467 l 442 526 m 289 38 b 379 65 321 38 351 47 b 440 129 407 84 427 105 l 442 428 b 394 378 436 411 420 395 b 307 333 369 362 339 347 b 255 308 288 325 271 317 b 213 278 239 300 225 290 b 184 234 200 267 191 252 b 174 164 177 216 174 193 b 206 67 174 119 184 86 b 289 38 228 47 256 38 m 157 774 l 313 963 l 358 963 l 515 774 l 497 761 l 336 876 l 175 761 "},"":{"ha":690,"x_min":0,"x_max":0,"o":"m 442 526 b 411 604 443 565 432 591 b 319 624 390 617 359 624 b 195 599 272 624 231 615 b 113 538 159 582 132 562 l 89 558 b 183 626 110 585 141 608 b 328 654 224 645 272 654 b 418 648 358 654 388 652 b 497 625 448 644 474 636 b 553 578 520 614 539 598 b 574 499 567 557 574 531 l 572 99 b 583 47 572 78 576 61 b 625 25 590 32 604 25 b 660 33 639 25 650 28 b 685 49 669 38 677 43 l 697 29 b 648 0 685 19 669 9 b 575 -14 627 -9 603 -14 b 481 17 533 -14 502 -4 b 446 94 459 37 448 63 l 443 94 b 358 19 425 67 396 42 b 229 -14 319 -3 276 -14 b 97 30 172 -14 128 1 b 50 147 66 59 50 98 b 67 224 50 178 56 203 b 114 278 79 245 94 263 b 180 315 133 293 155 305 b 256 342 204 324 230 333 b 318 365 276 348 297 356 b 376 397 339 375 359 385 b 419 436 393 408 407 421 b 442 485 431 451 439 467 l 442 526 m 289 38 b 379 65 321 38 351 47 b 440 129 407 84 427 105 l 442 428 b 394 378 436 411 420 395 b 307 333 369 362 339 347 b 255 308 288 325 271 317 b 213 278 239 300 225 290 b 184 234 200 267 191 252 b 174 164 177 216 174 193 b 206 67 174 119 184 86 b 289 38 228 47 256 38 m 136 796 b 192 901 152 840 170 875 b 271 940 213 927 239 940 b 315 934 285 940 299 938 b 360 920 330 930 345 925 b 406 906 376 915 391 910 b 450 900 422 902 436 900 b 498 913 468 900 484 904 b 536 961 512 921 525 937 l 558 956 b 507 853 545 914 528 880 b 431 813 486 826 460 813 b 385 819 416 813 401 815 b 340 832 370 823 355 827 b 294 845 324 837 309 841 b 250 851 280 849 265 851 b 199 838 231 851 214 847 b 158 789 185 829 171 813 l 136 796 "},"":{"ha":690,"x_min":0,"x_max":0,"o":"m 442 526 b 411 604 443 565 432 591 b 319 624 390 617 359 624 b 195 599 272 624 231 615 b 113 538 159 582 132 562 l 89 558 b 183 626 110 585 141 608 b 328 654 224 645 272 654 b 418 648 358 654 388 652 b 497 625 448 644 474 636 b 553 578 520 614 539 598 b 574 499 567 557 574 531 l 572 99 b 583 47 572 78 576 61 b 625 25 590 32 604 25 b 660 33 639 25 650 28 b 685 49 669 38 677 43 l 697 29 b 648 0 685 19 669 9 b 575 -14 627 -9 603 -14 b 481 17 533 -14 502 -4 b 446 94 459 37 448 63 l 443 94 b 358 19 425 67 396 42 b 229 -14 319 -3 276 -14 b 97 30 172 -14 128 1 b 50 147 66 59 50 98 b 67 224 50 178 56 203 b 114 278 79 245 94 263 b 180 315 133 293 155 305 b 256 342 204 324 230 333 b 318 365 276 348 297 356 b 376 397 339 375 359 385 b 419 436 393 408 407 421 b 442 485 431 451 439 467 l 442 526 m 289 38 b 379 65 321 38 351 47 b 440 129 407 84 427 105 l 442 428 b 394 378 436 411 420 395 b 307 333 369 362 339 347 b 255 308 288 325 271 317 b 213 278 239 300 225 290 b 184 234 200 267 191 252 b 174 164 177 216 174 193 b 206 67 174 119 184 86 b 289 38 228 47 256 38 m 144 868 b 163 914 144 887 150 902 b 208 932 175 926 190 932 b 253 914 226 932 241 926 b 271 868 265 902 271 887 b 253 822 271 850 265 834 b 208 804 241 810 226 804 b 163 822 190 804 175 810 b 144 868 150 834 144 850 m 396 868 b 414 914 396 887 402 902 b 458 932 426 926 441 932 b 504 914 477 932 492 926 b 522 868 516 902 522 887 b 504 822 522 850 516 834 b 458 804 492 810 477 804 b 414 822 441 804 426 810 b 396 868 402 834 396 850 "},"":{"ha":690,"x_min":0,"x_max":0,"o":"m 442 526 b 411 604 443 565 432 591 b 319 624 390 617 359 624 b 195 599 272 624 231 615 b 113 538 159 582 132 562 l 89 558 b 183 626 110 585 141 608 b 328 654 224 645 272 654 b 418 648 358 654 388 652 b 497 625 448 644 474 636 b 553 578 520 614 539 598 b 574 499 567 557 574 531 l 572 99 b 583 47 572 78 576 61 b 625 25 590 32 604 25 b 660 33 639 25 650 28 b 685 49 669 38 677 43 l 697 29 b 648 0 685 19 669 9 b 575 -14 627 -9 603 -14 b 481 17 533 -14 502 -4 b 446 94 459 37 448 63 l 443 94 b 358 19 425 67 396 42 b 229 -14 319 -3 276 -14 b 97 30 172 -14 128 1 b 50 147 66 59 50 98 b 67 224 50 178 56 203 b 114 278 79 245 94 263 b 180 315 133 293 155 305 b 256 342 204 324 230 333 b 318 365 276 348 297 356 b 376 397 339 375 359 385 b 419 436 393 408 407 421 b 442 485 431 451 439 467 l 442 526 m 289 38 b 379 65 321 38 351 47 b 440 129 407 84 427 105 l 442 428 b 394 378 436 411 420 395 b 307 333 369 362 339 347 b 255 308 288 325 271 317 b 213 278 239 300 225 290 b 184 234 200 267 191 252 b 174 164 177 216 174 193 b 206 67 174 119 184 86 b 289 38 228 47 256 38 m 454 874 b 444 826 454 856 451 840 b 419 791 438 813 429 801 b 382 769 408 781 396 774 b 339 761 368 764 354 761 b 296 769 324 761 310 764 b 259 791 282 774 270 781 b 233 826 248 801 240 813 b 224 874 227 840 224 856 b 259 956 224 908 235 935 b 339 986 283 976 309 986 b 419 956 369 986 395 976 b 454 874 442 935 454 908 m 269 874 b 287 808 269 847 275 825 b 339 783 298 792 316 783 b 391 808 362 783 379 792 b 408 874 403 825 408 847 b 391 939 408 900 403 922 b 339 964 379 956 362 964 b 287 939 316 964 298 956 b 269 874 275 922 269 900 "},"":{"ha":1061,"x_min":0,"x_max":0,"o":"m 1025 171 b 934 35 1010 113 980 67 b 763 -14 888 2 831 -14 b 587 34 691 -14 633 2 b 485 157 541 66 507 107 l 482 157 b 450 92 475 134 464 112 b 398 38 436 71 419 53 b 327 0 377 22 353 9 b 240 -14 301 -9 272 -14 b 98 30 177 -14 130 1 b 50 147 66 59 50 98 b 67 224 50 178 56 203 b 114 278 79 245 94 263 b 180 315 133 293 155 305 b 256 342 204 324 230 333 b 319 365 276 348 297 356 b 377 395 341 373 360 384 b 420 435 394 407 409 420 b 438 485 432 450 438 466 l 438 517 b 430 572 438 539 435 557 b 406 606 425 586 417 597 b 367 622 396 614 383 619 b 315 626 352 625 335 626 b 193 601 268 626 227 618 b 113 539 159 584 132 563 l 89 558 b 180 626 109 585 140 608 b 324 654 220 645 268 654 b 449 631 372 654 414 646 b 515 540 485 615 507 585 b 609 624 540 575 572 603 b 739 656 647 645 690 656 b 934 585 822 656 887 632 b 1004 379 981 538 1004 469 l 569 379 b 568 350 569 370 568 360 l 568 321 b 578 207 568 281 571 243 b 612 111 584 171 596 139 b 676 44 628 83 650 61 b 778 19 703 28 737 19 b 923 63 840 19 888 34 b 994 178 958 92 981 131 l 1025 171 m 289 29 b 347 41 309 29 329 33 b 394 74 366 49 381 60 b 426 123 407 88 418 104 b 438 186 434 142 438 163 l 438 422 b 392 376 432 406 417 390 b 307 333 368 361 339 347 b 255 308 288 325 271 317 b 213 278 239 300 225 290 b 184 234 200 267 191 252 b 174 164 177 216 174 193 b 206 60 174 116 184 81 b 289 29 228 40 256 29 m 739 626 b 624 567 690 626 652 607 b 572 408 597 528 580 475 l 883 408 b 850 575 882 485 871 541 b 739 626 829 609 792 626 "},"":{"ha":681,"x_min":0,"x_max":0,"o":"m 383 654 b 480 642 420 654 453 650 b 550 608 507 633 531 622 b 599 560 569 594 586 578 b 631 500 612 541 622 521 l 601 489 b 531 585 587 526 563 558 b 397 625 499 612 455 625 b 307 602 364 625 334 617 b 240 538 280 587 258 566 b 198 442 222 511 208 479 b 183 321 188 405 183 364 b 195 208 183 281 187 243 b 233 113 203 172 216 141 b 302 48 251 86 274 64 b 404 24 330 32 364 24 b 540 63 454 24 499 37 b 631 199 580 88 610 134 l 661 193 b 553 34 638 119 602 66 b 371 -14 504 2 443 -14 b 238 13 322 -14 277 -5 b 135 86 198 31 163 56 b 69 193 106 117 84 152 b 46 321 53 234 46 276 b 69 448 46 365 54 408 b 138 554 85 488 108 524 b 244 627 167 585 203 609 b 383 654 285 645 331 654 m 308 -89 b 361 -78 323 -81 341 -78 b 443 -101 395 -78 423 -85 b 474 -165 463 -116 474 -137 b 434 -233 474 -195 460 -217 b 336 -256 408 -248 375 -256 b 260 -240 306 -256 281 -250 b 213 -206 240 -230 224 -219 l 229 -187 b 268 -217 238 -200 251 -209 b 319 -229 285 -225 302 -229 b 396 -165 370 -229 396 -208 b 335 -106 396 -125 375 -106 b 285 -118 314 -106 298 -110 l 271 -100 l 332 1 l 364 1 "},"":{"ha":689,"x_min":0,"x_max":0,"o":"m 653 171 b 562 35 639 113 609 67 b 383 -14 515 2 456 -14 b 240 14 330 -14 282 -5 b 133 89 197 32 162 57 b 68 196 105 120 83 156 b 46 321 53 236 46 277 b 69 449 46 365 54 408 b 135 556 85 489 107 525 b 234 628 163 586 196 610 b 360 656 272 647 314 656 b 558 585 442 656 508 632 b 632 379 607 538 632 469 l 186 379 b 184 350 185 369 184 359 b 183 321 184 341 183 331 b 194 207 183 281 187 243 b 228 111 201 171 212 139 b 294 44 245 83 267 61 b 399 19 322 28 357 19 b 551 63 465 19 516 34 b 624 178 587 92 611 131 l 653 171 m 360 626 b 242 567 310 626 271 607 b 189 408 214 528 196 475 l 511 408 b 474 575 510 485 498 541 b 360 626 451 609 413 626 m 494 789 l 483 768 l 206 874 l 257 967 "},"":{"ha":689,"x_min":0,"x_max":0,"o":"m 653 171 b 562 35 639 113 609 67 b 383 -14 515 2 456 -14 b 240 14 330 -14 282 -5 b 133 89 197 32 162 57 b 68 196 105 120 83 156 b 46 321 53 236 46 277 b 69 449 46 365 54 408 b 135 556 85 489 107 525 b 234 628 163 586 196 610 b 360 656 272 647 314 656 b 558 585 442 656 508 632 b 632 379 607 538 632 469 l 186 379 b 184 350 185 369 184 359 b 183 321 184 341 183 331 b 194 207 183 281 187 243 b 228 111 201 171 212 139 b 294 44 245 83 267 61 b 399 19 322 28 357 19 b 551 63 465 19 516 34 b 624 178 587 92 611 131 l 653 171 m 360 626 b 242 567 310 626 271 607 b 189 408 214 528 196 475 l 511 408 b 474 575 510 485 498 541 b 360 626 451 609 413 626 m 253 789 l 490 967 l 542 874 l 263 768 "},"":{"ha":689,"x_min":0,"x_max":0,"o":"m 653 171 b 562 35 639 113 609 67 b 383 -14 515 2 456 -14 b 240 14 330 -14 282 -5 b 133 89 197 32 162 57 b 68 196 105 120 83 156 b 46 321 53 236 46 277 b 69 449 46 365 54 408 b 135 556 85 489 107 525 b 234 628 163 586 196 610 b 360 656 272 647 314 656 b 558 585 442 656 508 632 b 632 379 607 538 632 469 l 186 379 b 184 350 185 369 184 359 b 183 321 184 341 183 331 b 194 207 183 281 187 243 b 228 111 201 171 212 139 b 294 44 245 83 267 61 b 399 19 322 28 357 19 b 551 63 465 19 516 34 b 624 178 587 92 611 131 l 653 171 m 360 626 b 242 567 310 626 271 607 b 189 408 214 528 196 475 l 511 408 b 474 575 510 485 498 541 b 360 626 451 609 413 626 m 183 774 l 339 963 l 385 963 l 542 774 l 524 761 l 363 876 l 201 761 "},"":{"ha":689,"x_min":0,"x_max":0,"o":"m 653 171 b 562 35 639 113 609 67 b 383 -14 515 2 456 -14 b 240 14 330 -14 282 -5 b 133 89 197 32 162 57 b 68 196 105 120 83 156 b 46 321 53 236 46 277 b 69 449 46 365 54 408 b 135 556 85 489 107 525 b 234 628 163 586 196 610 b 360 656 272 647 314 656 b 558 585 442 656 508 632 b 632 379 607 538 632 469 l 186 379 b 184 350 185 369 184 359 b 183 321 184 341 183 331 b 194 207 183 281 187 243 b 228 111 201 171 212 139 b 294 44 245 83 267 61 b 399 19 322 28 357 19 b 551 63 465 19 516 34 b 624 178 587 92 611 131 l 653 171 m 360 626 b 242 567 310 626 271 607 b 189 408 214 528 196 475 l 511 408 b 474 575 510 485 498 541 b 360 626 451 609 413 626 m 178 868 b 196 914 178 887 184 902 b 242 932 208 926 223 932 b 286 914 259 932 274 926 b 304 868 298 902 304 887 b 286 822 304 850 298 834 b 242 804 274 810 259 804 b 196 822 223 804 208 810 b 178 868 184 834 178 850 m 429 868 b 447 914 429 887 435 902 b 492 932 459 926 474 932 b 538 914 510 932 525 926 b 556 868 550 902 556 887 b 538 822 556 850 550 834 b 492 804 525 810 510 804 b 447 822 474 804 459 810 b 429 868 435 834 429 850 "},"":{"ha":304,"x_min":0,"x_max":0,"o":"m 88 642 l 221 642 l 221 0 l 88 0 m 282 789 l 271 768 l -7 874 l 44 967 "},"":{"ha":304,"x_min":0,"x_max":0,"o":"m 88 642 l 221 642 l 221 0 l 88 0 m 44 789 l 282 967 l 333 874 l 54 768 "},"":{"ha":304,"x_min":0,"x_max":0,"o":"m 88 642 l 221 642 l 221 0 l 88 0 m -26 774 l 129 963 l 175 963 l 332 774 l 314 761 l 153 876 l -8 761 "},"":{"ha":304,"x_min":0,"x_max":0,"o":"m -25 868 b -7 914 -25 887 -19 902 b 39 932 5 926 20 932 b 83 914 56 932 71 926 b 101 868 95 902 101 887 b 83 822 101 850 95 834 b 39 804 71 810 56 804 b -7 822 20 804 5 810 b -25 868 -19 834 -25 850 m 206 868 b 223 914 206 887 211 902 b 267 932 234 926 249 932 b 313 914 285 932 300 926 b 331 868 325 902 331 887 b 313 822 331 850 325 834 b 267 804 300 810 285 804 b 223 822 249 804 234 810 b 206 868 211 834 206 850 m 88 642 l 221 642 l 221 0 l 88 0 "},"":{"ha":774,"x_min":0,"x_max":0,"o":"m 729 363 b 703 212 729 308 721 258 b 632 93 686 166 663 126 b 524 15 601 60 566 34 b 390 -14 483 -4 438 -14 b 252 13 340 -14 294 -5 b 143 86 210 31 174 56 b 72 192 113 117 89 152 b 46 319 54 233 46 275 b 72 448 46 365 54 408 b 142 554 89 488 112 524 b 248 627 171 585 207 609 b 383 654 289 645 334 654 b 496 628 428 654 465 645 b 568 557 526 610 550 587 l 571 557 b 494 727 559 612 533 668 b 344 889 456 786 406 840 l 176 796 l 161 819 l 321 907 b 138 1006 265 948 204 981 l 147 1033 b 251 994 179 1023 213 1010 b 367 933 288 978 327 957 l 513 1014 l 526 992 l 393 917 b 517 821 436 889 477 857 b 625 698 558 785 594 744 b 701 545 656 652 682 601 b 729 363 720 489 729 428 m 386 624 b 299 601 354 624 325 616 b 235 539 274 587 253 566 b 197 442 218 512 205 480 b 183 319 188 405 183 364 b 197 197 183 275 188 234 b 236 102 205 160 219 128 b 301 40 254 76 275 55 b 390 18 327 25 357 18 b 538 100 453 18 502 45 b 590 328 573 155 590 231 b 536 545 590 420 572 493 b 386 624 500 597 450 624 "},"":{"ha":739,"x_min":0,"x_max":0,"o":"m 85 642 l 215 642 l 215 540 l 218 540 b 306 624 236 576 265 604 b 449 654 347 644 395 654 b 528 649 479 654 506 652 b 588 629 550 645 570 638 b 639 583 609 618 626 603 b 658 507 652 563 658 538 l 658 0 l 525 0 l 525 513 b 499 592 525 549 516 575 b 410 617 481 608 451 617 b 329 602 380 617 353 612 b 267 563 305 592 284 579 b 232 510 253 549 241 531 b 218 428 223 488 218 461 l 218 0 l 85 0 m 179 796 b 235 901 195 840 213 875 b 314 940 256 927 282 940 b 358 934 328 940 342 938 b 403 920 373 930 388 925 b 449 906 419 915 434 910 b 493 900 465 902 479 900 b 541 913 511 900 527 904 b 579 961 555 921 568 937 l 601 956 b 550 853 588 914 571 880 b 474 813 529 826 503 813 b 428 819 459 813 444 815 b 383 832 413 823 398 827 b 338 845 367 837 352 841 b 293 851 323 849 308 851 b 242 838 274 851 257 847 b 201 789 228 829 214 813 l 179 796 "},"":{"ha":776,"x_min":0,"x_max":0,"o":"m 389 656 b 519 631 434 656 478 647 b 628 563 560 615 596 592 b 703 458 659 534 684 499 b 732 321 722 416 732 371 b 703 184 732 271 722 225 b 628 78 684 143 659 108 b 519 10 596 49 560 27 b 389 -14 478 -6 434 -14 b 259 10 344 -14 300 -6 b 150 78 218 27 181 49 b 74 184 119 108 93 143 b 46 321 55 225 46 271 b 74 458 46 371 55 416 b 150 563 93 499 119 534 b 259 631 181 592 218 615 b 389 656 300 647 344 656 m 389 626 b 236 542 322 626 271 598 b 183 321 201 486 183 413 b 197 197 183 275 188 234 b 236 101 205 159 219 127 b 301 39 254 74 275 54 b 389 17 326 24 356 17 b 477 39 422 17 452 24 b 542 101 503 54 524 74 b 581 197 559 127 572 159 b 594 321 590 234 594 275 b 542 542 594 413 577 486 b 389 626 506 598 456 626 m 522 789 l 511 768 l 233 874 l 285 967 "},"":{"ha":776,"x_min":0,"x_max":0,"o":"m 389 656 b 519 631 434 656 478 647 b 628 563 560 615 596 592 b 703 458 659 534 684 499 b 732 321 722 416 732 371 b 703 184 732 271 722 225 b 628 78 684 143 659 108 b 519 10 596 49 560 27 b 389 -14 478 -6 434 -14 b 259 10 344 -14 300 -6 b 150 78 218 27 181 49 b 74 184 119 108 93 143 b 46 321 55 225 46 271 b 74 458 46 371 55 416 b 150 563 93 499 119 534 b 259 631 181 592 218 615 b 389 656 300 647 344 656 m 389 626 b 236 542 322 626 271 598 b 183 321 201 486 183 413 b 197 197 183 275 188 234 b 236 101 205 159 219 127 b 301 39 254 74 275 54 b 389 17 326 24 356 17 b 477 39 422 17 452 24 b 542 101 503 54 524 74 b 581 197 559 127 572 159 b 594 321 590 234 594 275 b 542 542 594 413 577 486 b 389 626 506 598 456 626 m 281 789 l 518 967 l 569 874 l 290 768 "},"":{"ha":776,"x_min":0,"x_max":0,"o":"m 389 656 b 519 631 434 656 478 647 b 628 563 560 615 596 592 b 703 458 659 534 684 499 b 732 321 722 416 732 371 b 703 184 732 271 722 225 b 628 78 684 143 659 108 b 519 10 596 49 560 27 b 389 -14 478 -6 434 -14 b 259 10 344 -14 300 -6 b 150 78 218 27 181 49 b 74 184 119 108 93 143 b 46 321 55 225 46 271 b 74 458 46 371 55 416 b 150 563 93 499 119 534 b 259 631 181 592 218 615 b 389 656 300 647 344 656 m 389 626 b 236 542 322 626 271 598 b 183 321 201 486 183 413 b 197 197 183 275 188 234 b 236 101 205 159 219 127 b 301 39 254 74 275 54 b 389 17 326 24 356 17 b 477 39 422 17 452 24 b 542 101 503 54 524 74 b 581 197 559 127 572 159 b 594 321 590 234 594 275 b 542 542 594 413 577 486 b 389 626 506 598 456 626 m 210 774 l 365 963 l 411 963 l 568 774 l 550 761 l 389 876 l 228 761 "},"":{"ha":776,"x_min":0,"x_max":0,"o":"m 389 656 b 519 631 434 656 478 647 b 628 563 560 615 596 592 b 703 458 659 534 684 499 b 732 321 722 416 732 371 b 703 184 732 271 722 225 b 628 78 684 143 659 108 b 519 10 596 49 560 27 b 389 -14 478 -6 434 -14 b 259 10 344 -14 300 -6 b 150 78 218 27 181 49 b 74 184 119 108 93 143 b 46 321 55 225 46 271 b 74 458 46 371 55 416 b 150 563 93 499 119 534 b 259 631 181 592 218 615 b 389 656 300 647 344 656 m 389 626 b 236 542 322 626 271 598 b 183 321 201 486 183 413 b 197 197 183 275 188 234 b 236 101 205 159 219 127 b 301 39 254 74 275 54 b 389 17 326 24 356 17 b 477 39 422 17 452 24 b 542 101 503 54 524 74 b 581 197 559 127 572 159 b 594 321 590 234 594 275 b 542 542 594 413 577 486 b 389 626 506 598 456 626 m 185 796 b 240 901 200 840 219 875 b 319 940 262 927 288 940 b 363 934 333 940 348 938 b 409 920 378 930 394 925 b 455 906 424 915 440 910 b 499 900 470 902 485 900 b 547 913 516 900 532 904 b 585 961 561 921 574 937 l 607 956 b 556 853 594 914 577 880 b 479 813 534 826 509 813 b 434 819 464 813 449 815 b 388 832 419 823 403 827 b 343 845 373 837 358 841 b 299 851 328 849 313 851 b 248 838 279 851 262 847 b 207 789 234 829 220 813 l 185 796 "},"":{"ha":776,"x_min":0,"x_max":0,"o":"m 389 656 b 519 631 434 656 478 647 b 628 563 560 615 596 592 b 703 458 659 534 684 499 b 732 321 722 416 732 371 b 703 184 732 271 722 225 b 628 78 684 143 659 108 b 519 10 596 49 560 27 b 389 -14 478 -6 434 -14 b 259 10 344 -14 300 -6 b 150 78 218 27 181 49 b 74 184 119 108 93 143 b 46 321 55 225 46 271 b 74 458 46 371 55 416 b 150 563 93 499 119 534 b 259 631 181 592 218 615 b 389 656 300 647 344 656 m 389 626 b 236 542 322 626 271 598 b 183 321 201 486 183 413 b 197 197 183 275 188 234 b 236 101 205 159 219 127 b 301 39 254 74 275 54 b 389 17 326 24 356 17 b 477 39 422 17 452 24 b 542 101 503 54 524 74 b 581 197 559 127 572 159 b 594 321 590 234 594 275 b 542 542 594 413 577 486 b 389 626 506 598 456 626 m 200 868 b 218 914 200 887 206 902 b 264 932 230 926 245 932 b 308 914 281 932 296 926 b 326 868 320 902 326 887 b 308 822 326 850 320 834 b 264 804 296 810 281 804 b 218 822 245 804 230 810 b 200 868 206 834 200 850 m 451 868 b 469 914 451 887 457 902 b 514 932 481 926 496 932 b 560 914 532 932 548 926 b 578 868 572 902 578 887 b 560 822 578 850 572 834 b 514 804 548 810 532 804 b 469 822 496 804 481 810 b 451 868 457 834 451 850 "},"":{"ha":636,"x_min":0,"x_max":0,"o":"m 256 643 b 274 688 256 661 262 675 b 319 706 286 700 301 706 b 364 688 337 706 352 700 b 382 643 376 675 382 661 b 364 599 382 625 376 611 b 319 581 352 587 337 581 b 274 599 301 581 286 587 b 256 643 262 611 256 625 m 581 440 l 56 440 l 56 471 l 581 471 m 256 267 b 274 311 256 284 262 299 b 319 329 286 323 301 329 b 364 311 337 329 352 323 b 382 267 376 299 382 284 b 364 222 382 249 376 234 b 319 204 352 210 337 204 b 274 222 301 204 286 210 b 256 267 262 234 256 249 "},"":{"ha":776,"x_min":0,"x_max":0,"o":"m 389 -14 b 240 18 337 -14 288 -3 l 181 -89 l 153 -74 l 213 33 b 92 149 163 61 122 100 b 46 321 61 198 46 255 b 74 458 46 371 55 416 b 150 563 93 499 119 534 b 259 631 181 592 218 615 b 389 656 300 647 344 656 b 542 622 444 656 494 644 l 597 722 l 625 708 l 569 607 b 687 492 618 579 657 541 b 732 321 717 443 732 386 b 703 184 732 271 722 225 b 628 78 684 143 659 108 b 519 10 596 49 560 27 b 389 -14 478 -6 434 -14 m 181 321 b 240 83 181 213 200 134 l 518 581 b 389 626 485 611 442 626 b 300 604 356 626 326 619 b 235 542 274 589 252 569 b 194 446 217 516 204 484 b 181 321 185 408 181 366 m 597 321 b 540 556 597 426 578 505 l 264 60 b 389 17 295 31 337 17 b 478 39 422 17 452 24 b 543 101 504 54 525 74 b 583 197 561 127 574 159 b 597 321 593 234 597 275 "},"":{"ha":733,"x_min":0,"x_max":0,"o":"m 651 0 l 521 0 l 521 96 l 518 96 b 433 16 501 63 473 36 b 292 -14 392 -4 345 -14 b 154 14 231 -14 186 -5 b 103 62 133 25 116 41 b 83 139 90 83 83 108 l 83 642 l 215 642 l 215 131 b 243 50 215 94 225 67 b 331 25 262 33 291 25 b 408 39 358 25 384 30 b 468 75 431 48 451 60 b 505 128 483 89 495 106 b 519 210 515 149 519 176 l 519 642 l 651 642 m 499 789 l 488 768 l 210 874 l 261 967 "},"":{"ha":733,"x_min":0,"x_max":0,"o":"m 651 0 l 521 0 l 521 96 l 518 96 b 433 16 501 63 473 36 b 292 -14 392 -4 345 -14 b 154 14 231 -14 186 -5 b 103 62 133 25 116 41 b 83 139 90 83 83 108 l 83 642 l 215 642 l 215 131 b 243 50 215 94 225 67 b 331 25 262 33 291 25 b 408 39 358 25 384 30 b 468 75 431 48 451 60 b 505 128 483 89 495 106 b 519 210 515 149 519 176 l 519 642 l 651 642 m 254 789 l 492 967 l 543 874 l 264 768 "},"":{"ha":733,"x_min":0,"x_max":0,"o":"m 651 0 l 521 0 l 521 96 l 518 96 b 433 16 501 63 473 36 b 292 -14 392 -4 345 -14 b 154 14 231 -14 186 -5 b 103 62 133 25 116 41 b 83 139 90 83 83 108 l 83 642 l 215 642 l 215 131 b 243 50 215 94 225 67 b 331 25 262 33 291 25 b 408 39 358 25 384 30 b 468 75 431 48 451 60 b 505 128 483 89 495 106 b 519 210 515 149 519 176 l 519 642 l 651 642 m 186 774 l 342 963 l 388 963 l 544 774 l 526 761 l 365 876 l 204 761 "},"":{"ha":733,"x_min":0,"x_max":0,"o":"m 651 0 l 521 0 l 521 96 l 518 96 b 433 16 501 63 473 36 b 292 -14 392 -4 345 -14 b 154 14 231 -14 186 -5 b 103 62 133 25 116 41 b 83 139 90 83 83 108 l 83 642 l 215 642 l 215 131 b 243 50 215 94 225 67 b 331 25 262 33 291 25 b 408 39 358 25 384 30 b 468 75 431 48 451 60 b 505 128 483 89 495 106 b 519 210 515 149 519 176 l 519 642 l 651 642 m 176 868 b 194 914 176 887 182 902 b 240 932 206 926 222 932 b 285 914 258 932 273 926 b 303 868 297 902 303 887 b 285 822 303 850 297 834 b 240 804 273 810 258 804 b 194 822 222 804 206 810 b 176 868 182 834 176 850 m 428 868 b 446 914 428 887 434 902 b 490 932 458 926 473 932 b 536 914 509 932 524 926 b 554 868 548 902 554 887 b 536 822 554 850 548 834 b 490 804 524 810 509 804 b 446 822 473 804 458 810 b 428 868 434 834 428 850 "},"":{"ha":593,"x_min":0,"x_max":0,"o":"m -58 -361 b -125 -353 -83 -361 -106 -358 b -176 -332 -144 -347 -161 -340 b -212 -305 -190 -324 -202 -315 b -236 -278 -223 -295 -231 -286 l -210 -257 b -188 -282 -204 -265 -197 -274 b -157 -306 -179 -290 -169 -298 b -115 -324 -145 -313 -131 -319 b -58 -331 -98 -328 -80 -331 b 60 -303 -14 -331 26 -321 b 155 -230 95 -284 127 -260 b 230 -128 183 -200 208 -166 b 289 -11 252 -90 271 -51 l 13 642 l 151 642 l 353 147 l 356 147 l 557 642 l 592 642 l 360 72 b 324 -12 350 47 338 19 b 278 -108 311 -44 296 -76 b 220 -201 261 -140 242 -171 b 146 -283 198 -232 174 -259 b 53 -340 118 -306 87 -325 b -58 -361 20 -354 -18 -361 m 229 789 l 467 967 l 518 874 l 239 768 "},"":{"ha":790,"x_min":0,"x_max":0,"o":"m 217 1028 l 217 529 l 219 529 b 254 583 228 550 239 567 b 305 622 269 598 286 611 b 367 646 324 632 345 640 b 436 654 390 651 413 654 b 558 631 480 654 520 647 b 657 565 596 616 629 594 b 723 460 685 537 707 502 b 747 321 739 419 747 373 b 721 184 747 271 738 225 b 649 78 703 143 679 108 b 545 10 619 49 584 27 b 421 -14 506 -6 464 -14 b 342 -1 391 -14 365 -10 b 281 31 319 7 298 18 b 242 65 265 41 252 52 b 219 100 233 77 225 89 l 217 100 l 217 -362 l 85 -362 l 85 1028 m 219 204 b 234 133 219 179 224 156 b 274 75 244 111 257 92 b 335 35 291 58 312 45 b 414 21 359 26 385 21 b 558 94 475 21 523 45 b 610 321 592 144 610 219 b 596 464 610 378 605 426 b 557 555 587 502 574 532 b 495 603 540 578 520 594 b 413 617 471 612 443 617 b 343 605 390 617 367 613 b 278 567 319 597 297 584 b 235 508 259 551 245 531 b 219 432 225 484 219 459 l 219 204 "},"":{"ha":593,"x_min":0,"x_max":0,"o":"m -58 -361 b -125 -353 -83 -361 -106 -358 b -176 -332 -144 -347 -161 -340 b -212 -305 -190 -324 -202 -315 b -236 -278 -223 -295 -231 -286 l -210 -257 b -188 -282 -204 -265 -197 -274 b -157 -306 -179 -290 -169 -298 b -115 -324 -145 -313 -131 -319 b -58 -331 -98 -328 -80 -331 b 60 -303 -14 -331 26 -321 b 155 -230 95 -284 127 -260 b 230 -128 183 -200 208 -166 b 289 -11 252 -90 271 -51 l 13 642 l 151 642 l 353 147 l 356 147 l 557 642 l 592 642 l 360 72 b 324 -12 350 47 338 19 b 278 -108 311 -44 296 -76 b 220 -201 261 -140 242 -171 b 146 -283 198 -232 174 -259 b 53 -340 118 -306 87 -325 b -58 -361 20 -354 -18 -361 m 138 868 b 156 914 138 887 144 902 b 201 932 168 926 183 932 b 246 914 219 932 234 926 b 264 868 258 902 264 887 b 246 822 264 850 258 834 b 201 804 234 810 219 804 b 156 822 183 804 168 810 b 138 868 144 834 138 850 m 389 868 b 407 914 389 887 395 902 b 451 932 419 926 434 932 b 497 914 470 932 485 926 b 515 868 509 902 515 887 b 497 822 515 850 509 834 b 451 804 485 810 470 804 b 407 822 434 804 419 810 b 389 868 395 834 389 850 "},"":{"ha":846,"x_min":0,"x_max":0,"o":"m 196 326 l 69 0 l 29 0 l 411 974 l 444 974 l 814 0 l 664 0 l 543 326 m 531 360 l 375 776 l 371 776 l 210 360 m 606 1147 l 606 1078 l 240 1078 l 240 1147 "},"":{"ha":690,"x_min":0,"x_max":0,"o":"m 442 526 b 411 604 443 565 432 591 b 319 624 390 617 359 624 b 195 599 272 624 231 615 b 113 538 159 582 132 562 l 89 558 b 183 626 110 585 141 608 b 328 654 224 645 272 654 b 418 648 358 654 388 652 b 497 625 448 644 474 636 b 553 578 520 614 539 598 b 574 499 567 557 574 531 l 572 99 b 583 47 572 78 576 61 b 625 25 590 32 604 25 b 660 33 639 25 650 28 b 685 49 669 38 677 43 l 697 29 b 648 0 685 19 669 9 b 575 -14 627 -9 603 -14 b 481 17 533 -14 502 -4 b 446 94 459 37 448 63 l 443 94 b 358 19 425 67 396 42 b 229 -14 319 -3 276 -14 b 97 30 172 -14 128 1 b 50 147 66 59 50 98 b 67 224 50 178 56 203 b 114 278 79 245 94 263 b 180 315 133 293 155 305 b 256 342 204 324 230 333 b 318 365 276 348 297 356 b 376 397 339 375 359 385 b 419 436 393 408 407 421 b 442 485 431 451 439 467 l 442 526 m 289 38 b 379 65 321 38 351 47 b 440 129 407 84 427 105 l 442 428 b 394 378 436 411 420 395 b 307 333 369 362 339 347 b 255 308 288 325 271 317 b 213 278 239 300 225 290 b 184 234 200 267 191 252 b 174 164 177 216 174 193 b 206 67 174 119 184 86 b 289 38 228 47 256 38 m 507 903 l 507 835 l 174 835 l 174 903 "},"":{"ha":846,"x_min":0,"x_max":0,"o":"m 196 326 l 69 0 l 29 0 l 411 974 l 444 974 l 814 0 l 664 0 l 543 326 m 531 360 l 375 776 l 371 776 l 210 360 m 425 1047 b 310 1092 376 1047 338 1062 b 258 1218 282 1122 265 1164 l 283 1218 b 333 1151 293 1186 309 1163 b 425 1132 356 1138 387 1132 b 517 1151 463 1132 494 1138 b 565 1218 540 1163 556 1186 l 592 1218 b 540 1092 584 1164 567 1122 b 425 1047 512 1062 474 1047 "},"":{"ha":690,"x_min":0,"x_max":0,"o":"m 442 526 b 411 604 443 565 432 591 b 319 624 390 617 359 624 b 195 599 272 624 231 615 b 113 538 159 582 132 562 l 89 558 b 183 626 110 585 141 608 b 328 654 224 645 272 654 b 418 648 358 654 388 652 b 497 625 448 644 474 636 b 553 578 520 614 539 598 b 574 499 567 557 574 531 l 572 99 b 583 47 572 78 576 61 b 625 25 590 32 604 25 b 660 33 639 25 650 28 b 685 49 669 38 677 43 l 697 29 b 648 0 685 19 669 9 b 575 -14 627 -9 603 -14 b 481 17 533 -14 502 -4 b 446 94 459 37 448 63 l 443 94 b 358 19 425 67 396 42 b 229 -14 319 -3 276 -14 b 97 30 172 -14 128 1 b 50 147 66 59 50 98 b 67 224 50 178 56 203 b 114 278 79 245 94 263 b 180 315 133 293 155 305 b 256 342 204 324 230 333 b 318 365 276 348 297 356 b 376 397 339 375 359 385 b 419 436 393 408 407 421 b 442 485 431 451 439 467 l 442 526 m 289 38 b 379 65 321 38 351 47 b 440 129 407 84 427 105 l 442 428 b 394 378 436 411 420 395 b 307 333 369 362 339 347 b 255 308 288 325 271 317 b 213 278 239 300 225 290 b 184 234 200 267 191 252 b 174 164 177 216 174 193 b 206 67 174 119 184 86 b 289 38 228 47 256 38 m 340 774 b 225 824 289 774 251 790 b 176 956 199 857 183 901 l 201 956 b 340 854 219 888 265 854 b 478 956 415 854 461 888 l 504 956 b 455 824 498 901 481 857 b 340 774 428 790 390 774 "},"":{"ha":846,"x_min":0,"x_max":0,"o":"m 556 -243 b 578 -168 556 -216 563 -191 b 634 -104 593 -145 611 -124 b 707 -49 657 -85 681 -66 b 779 0 733 -32 757 -16 l 663 0 l 542 326 l 194 326 l 68 0 l 28 0 l 410 974 l 443 974 l 813 0 b 760 -47 795 -14 777 -30 b 712 -105 742 -65 726 -84 b 676 -172 697 -126 686 -148 b 663 -244 667 -195 663 -219 b 681 -310 663 -273 669 -295 b 729 -333 693 -326 709 -333 b 772 -322 745 -333 759 -329 b 804 -290 785 -314 796 -303 l 821 -304 b 776 -346 812 -320 797 -334 b 696 -364 755 -358 728 -364 b 596 -332 656 -364 623 -353 b 556 -243 569 -311 556 -281 m 529 360 l 374 776 l 369 776 l 208 360 "},"":{"ha":690,"x_min":0,"x_max":0,"o":"m 660 -304 b 613 -346 650 -320 634 -334 b 535 -364 592 -358 566 -364 b 433 -332 494 -364 460 -353 b 393 -243 406 -311 393 -281 b 411 -174 393 -218 399 -195 b 458 -115 423 -153 439 -134 b 524 -62 478 -97 500 -79 b 599 -12 549 -46 574 -29 b 586 -14 594 -13 590 -14 l 575 -14 b 481 17 533 -14 502 -4 b 446 94 459 37 448 63 l 443 94 b 358 19 425 67 396 42 b 229 -14 319 -3 276 -14 b 97 30 172 -14 128 1 b 50 147 66 59 50 98 b 67 224 50 178 56 203 b 114 278 79 245 94 263 b 180 315 133 293 155 305 b 256 342 204 324 230 333 b 318 365 276 348 297 356 b 376 397 339 375 359 385 b 419 436 393 408 407 421 b 442 485 431 451 439 467 l 442 526 b 411 606 443 565 432 592 b 319 626 390 619 359 626 b 195 601 272 626 231 618 b 113 539 159 584 132 563 l 89 558 b 182 626 109 585 140 608 b 328 654 224 645 272 654 b 418 648 358 654 388 652 b 497 625 448 644 474 636 b 553 578 520 614 539 598 b 574 499 567 557 574 531 l 572 99 b 583 47 572 78 576 61 b 625 25 590 32 604 25 b 660 33 639 25 650 28 b 685 49 669 38 677 43 l 697 29 b 667 8 688 21 678 14 b 639 -11 657 2 647 -5 b 540 -114 599 -40 566 -74 b 500 -244 513 -154 500 -197 b 519 -310 500 -273 506 -295 b 567 -333 531 -326 547 -333 b 610 -322 583 -333 598 -329 b 642 -290 623 -314 633 -303 l 660 -304 m 289 38 b 379 65 321 38 351 47 b 440 129 407 84 427 105 l 442 428 b 394 378 436 411 420 395 b 307 333 369 362 339 347 b 255 308 288 325 271 317 b 213 278 239 300 225 290 b 184 234 200 267 191 252 b 174 164 177 216 174 193 b 206 67 174 119 184 86 b 289 38 228 47 256 38 "},"":{"ha":1007,"x_min":0,"x_max":0,"o":"m 54 479 b 94 681 54 552 67 620 b 201 839 120 743 156 795 b 356 941 246 882 297 916 b 542 978 415 966 477 978 b 687 958 594 978 643 971 b 803 897 731 945 769 925 b 886 792 836 869 864 834 b 932 642 908 750 924 700 l 894 639 b 781 869 879 744 841 820 b 546 942 720 917 642 942 b 399 906 490 942 441 930 b 291 809 356 883 320 850 b 225 663 262 768 240 719 b 203 479 210 606 203 545 b 226 296 203 413 211 352 b 295 149 242 239 265 191 b 404 52 325 108 362 76 b 547 17 447 28 494 17 b 694 42 603 17 652 25 b 803 112 737 58 773 82 b 876 218 834 142 858 177 b 915 351 895 259 908 303 l 951 349 b 909 202 944 296 930 247 b 827 85 888 157 861 118 b 706 8 793 53 753 27 b 544 -19 658 -10 605 -19 b 352 17 476 -19 412 -7 b 197 119 292 42 241 76 b 92 276 153 163 118 215 b 54 479 67 337 54 405 m 404 1050 l 651 1219 l 701 1125 l 414 1028 "},"":{"ha":681,"x_min":0,"x_max":0,"o":"m 383 654 b 480 642 420 654 453 650 b 550 608 507 633 531 622 b 599 560 569 594 586 578 b 631 500 612 541 622 521 l 601 489 b 531 585 587 526 563 558 b 397 625 499 612 455 625 b 307 602 364 625 334 617 b 240 538 280 587 258 566 b 198 442 222 511 208 479 b 183 321 188 405 183 364 b 195 208 183 281 187 243 b 233 113 203 172 216 141 b 302 48 251 86 274 64 b 404 24 330 32 364 24 b 540 63 454 24 499 37 b 631 199 580 88 610 134 l 661 193 b 553 34 638 119 602 66 b 371 -14 504 2 443 -14 b 238 13 322 -14 277 -5 b 135 86 198 31 163 56 b 69 193 106 117 84 152 b 46 321 53 234 46 276 b 69 448 46 365 54 408 b 138 554 85 488 108 524 b 244 627 167 585 203 609 b 383 654 285 645 331 654 m 260 789 l 497 967 l 549 874 l 269 768 "},"":{"ha":1007,"x_min":0,"x_max":0,"o":"m 54 479 b 94 681 54 552 67 620 b 201 839 120 743 156 795 b 356 941 246 882 297 916 b 542 978 415 966 477 978 b 687 958 594 978 643 971 b 803 897 731 945 769 925 b 886 792 836 869 864 834 b 932 642 908 750 924 700 l 894 639 b 781 869 879 744 841 820 b 546 942 720 917 642 942 b 399 906 490 942 441 930 b 291 809 356 883 320 850 b 225 663 262 768 240 719 b 203 479 210 606 203 545 b 226 296 203 413 211 352 b 295 149 242 239 265 191 b 404 52 325 108 362 76 b 547 17 447 28 494 17 b 694 42 603 17 652 25 b 803 112 737 58 773 82 b 876 218 834 142 858 177 b 915 351 895 259 908 303 l 951 349 b 909 202 944 296 930 247 b 827 85 888 157 861 118 b 706 8 793 53 753 27 b 544 -19 658 -10 605 -19 b 352 17 476 -19 412 -7 b 197 119 292 42 241 76 b 92 276 153 163 118 215 b 54 479 67 337 54 405 m 353 1057 l 515 1217 l 561 1217 l 725 1057 l 710 1043 l 539 1131 l 368 1043 "},"":{"ha":681,"x_min":0,"x_max":0,"o":"m 383 654 b 480 642 420 654 453 650 b 550 608 507 633 531 622 b 599 560 569 594 586 578 b 631 500 612 541 622 521 l 601 489 b 531 585 587 526 563 558 b 397 625 499 612 455 625 b 307 602 364 625 334 617 b 240 538 280 587 258 566 b 198 442 222 511 208 479 b 183 321 188 405 183 364 b 195 208 183 281 187 243 b 233 113 203 172 216 141 b 302 48 251 86 274 64 b 404 24 330 32 364 24 b 540 63 454 24 499 37 b 631 199 580 88 610 134 l 661 193 b 553 34 638 119 602 66 b 371 -14 504 2 443 -14 b 238 13 322 -14 277 -5 b 135 86 198 31 163 56 b 69 193 106 117 84 152 b 46 321 53 234 46 276 b 69 448 46 365 54 408 b 138 554 85 488 108 524 b 244 627 167 585 203 609 b 383 654 285 645 331 654 m 196 774 l 351 963 l 397 963 l 554 774 l 536 761 l 375 876 l 214 761 "},"":{"ha":1007,"x_min":0,"x_max":0,"o":"m 54 479 b 94 681 54 552 67 620 b 201 839 120 743 156 795 b 356 941 246 882 297 916 b 542 978 415 966 477 978 b 687 958 594 978 643 971 b 803 897 731 945 769 925 b 886 792 836 869 864 834 b 932 642 908 750 924 700 l 894 639 b 781 869 879 744 841 820 b 546 942 720 917 642 942 b 399 906 490 942 441 930 b 291 809 356 883 320 850 b 225 663 262 768 240 719 b 203 479 210 606 203 545 b 226 296 203 413 211 352 b 295 149 242 239 265 191 b 404 52 325 108 362 76 b 547 17 447 28 494 17 b 694 42 603 17 652 25 b 803 112 737 58 773 82 b 876 218 834 142 858 177 b 915 351 895 259 908 303 l 951 349 b 909 202 944 296 930 247 b 827 85 888 157 861 118 b 706 8 793 53 753 27 b 544 -19 658 -10 605 -19 b 352 17 476 -19 412 -7 b 197 119 292 42 241 76 b 92 276 153 163 118 215 b 54 479 67 337 54 405 m 617 1119 b 596 1067 617 1098 610 1081 b 543 1047 582 1054 564 1047 b 490 1067 522 1047 504 1054 b 469 1119 476 1081 469 1098 b 490 1173 469 1142 476 1159 b 543 1193 504 1186 522 1193 b 596 1173 564 1193 582 1186 b 617 1119 610 1159 617 1142 "},"":{"ha":681,"x_min":0,"x_max":0,"o":"m 383 654 b 480 642 420 654 453 650 b 550 608 507 633 531 622 b 599 560 569 594 586 578 b 631 500 612 541 622 521 l 601 489 b 531 585 587 526 563 558 b 397 625 499 612 455 625 b 307 602 364 625 334 617 b 240 538 280 587 258 566 b 198 442 222 511 208 479 b 183 321 188 405 183 364 b 195 208 183 281 187 243 b 233 113 203 172 216 141 b 302 48 251 86 274 64 b 404 24 330 32 364 24 b 540 63 454 24 499 37 b 631 199 580 88 610 134 l 661 193 b 553 34 638 119 602 66 b 371 -14 504 2 443 -14 b 238 13 322 -14 277 -5 b 135 86 198 31 163 56 b 69 193 106 117 84 152 b 46 321 53 234 46 276 b 69 448 46 365 54 408 b 138 554 85 488 108 524 b 244 627 167 585 203 609 b 383 654 285 645 331 654 m 447 882 b 426 829 447 861 440 843 b 374 808 413 815 395 808 b 321 829 352 808 335 815 b 300 882 307 843 300 861 b 321 935 300 903 307 921 b 374 956 335 949 352 956 b 426 935 395 956 413 949 b 447 882 440 921 447 903 "},"":{"ha":1007,"x_min":0,"x_max":0,"o":"m 54 479 b 94 681 54 552 67 620 b 201 839 120 743 156 795 b 356 941 246 882 297 916 b 542 978 415 966 477 978 b 687 958 594 978 643 971 b 803 897 731 945 769 925 b 886 792 836 869 864 834 b 932 642 908 750 924 700 l 894 639 b 781 869 879 744 841 820 b 546 942 720 917 642 942 b 399 906 490 942 441 930 b 291 809 356 883 320 850 b 225 663 262 768 240 719 b 203 479 210 606 203 545 b 226 296 203 413 211 352 b 295 149 242 239 265 191 b 404 52 325 108 362 76 b 547 17 447 28 494 17 b 694 42 603 17 652 25 b 803 112 737 58 773 82 b 876 218 834 142 858 177 b 915 351 895 259 908 303 l 951 349 b 909 202 944 296 930 247 b 827 85 888 157 861 118 b 706 8 793 53 753 27 b 544 -19 658 -10 605 -19 b 352 17 476 -19 412 -7 b 197 119 292 42 241 76 b 92 276 153 163 118 215 b 54 479 67 337 54 405 m 735 1210 l 571 1051 l 525 1051 l 363 1210 l 378 1225 l 549 1136 l 719 1225 "},"":{"ha":681,"x_min":0,"x_max":0,"o":"m 383 654 b 480 642 420 654 453 650 b 550 608 507 633 531 622 b 599 560 569 594 586 578 b 631 500 612 541 622 521 l 601 489 b 531 585 587 526 563 558 b 397 625 499 612 455 625 b 307 602 364 625 334 617 b 240 538 280 587 258 566 b 198 442 222 511 208 479 b 183 321 188 405 183 364 b 195 208 183 281 187 243 b 233 113 203 172 216 141 b 302 48 251 86 274 64 b 404 24 330 32 364 24 b 540 63 454 24 499 37 b 631 199 580 88 610 134 l 661 193 b 553 34 638 119 602 66 b 371 -14 504 2 443 -14 b 238 13 322 -14 277 -5 b 135 86 198 31 163 56 b 69 193 106 117 84 152 b 46 321 53 234 46 276 b 69 448 46 365 54 408 b 138 554 85 488 108 524 b 244 627 167 585 203 609 b 383 654 285 645 331 654 m 197 956 l 215 968 l 376 851 l 538 968 l 556 956 l 399 767 l 353 767 "},"":{"ha":982,"x_min":0,"x_max":0,"o":"m 415 958 b 626 926 493 958 563 948 b 788 834 689 905 743 874 b 890 685 832 794 866 744 b 926 482 914 625 926 558 b 888 278 926 406 913 338 b 781 127 862 219 826 168 b 624 33 736 86 684 54 b 431 0 563 11 499 0 l 103 0 l 103 958 m 244 33 l 426 33 b 692 147 545 33 633 71 b 779 481 750 223 779 334 b 760 661 779 546 773 606 b 696 801 747 716 725 763 b 580 892 666 840 628 871 b 406 925 532 914 474 925 l 244 925 m 653 1210 l 489 1051 l 443 1051 l 281 1210 l 296 1225 l 467 1136 l 638 1225 "},"":{"ha":776,"x_min":0,"x_max":0,"o":"m 567 108 l 564 108 b 542 74 559 98 552 87 b 504 38 531 61 519 49 b 437 1 486 23 463 10 b 346 -14 410 -9 380 -14 b 231 10 305 -14 267 -6 b 135 79 194 27 163 50 b 70 185 108 109 86 144 b 46 321 54 227 46 272 b 74 463 46 374 55 421 b 146 567 92 504 116 539 b 247 632 175 596 209 617 b 363 654 285 647 324 654 b 485 628 411 654 451 645 b 560 557 518 610 543 587 l 563 557 l 563 1028 l 696 1028 l 696 0 l 567 0 m 561 458 b 544 531 561 486 556 510 b 500 582 533 552 519 569 b 440 612 481 596 462 606 b 376 621 419 618 398 621 b 235 550 317 621 270 597 b 183 321 201 503 183 426 b 233 94 183 217 200 141 b 371 22 266 46 312 22 b 443 36 396 22 420 27 b 504 74 466 45 487 58 b 546 132 522 91 536 110 b 561 204 556 154 561 178 l 561 458 m 756 797 l 790 1031 l 869 1014 l 774 792 "},"":{"ha":1026,"x_min":0,"x_max":0,"o":"m 969 482 b 931 278 969 406 956 338 b 824 127 905 219 869 168 b 665 33 778 86 725 54 b 474 0 605 11 541 0 l 144 0 l 144 467 l 17 467 l 17 500 l 144 500 l 144 958 l 457 958 b 668 926 535 958 605 948 b 829 834 731 905 785 874 b 933 685 874 794 908 744 b 969 482 957 625 969 558 m 469 33 b 733 147 587 33 675 71 b 821 481 792 223 821 334 b 801 661 821 546 814 606 b 738 802 788 716 767 763 b 623 894 709 841 671 872 b 449 926 575 916 517 926 l 286 926 l 286 500 l 536 500 l 536 467 l 286 467 l 286 33 l 469 33 "},"":{"ha":782,"x_min":0,"x_max":0,"o":"m 567 108 l 564 108 b 542 74 559 98 552 87 b 504 38 531 61 519 49 b 437 1 486 23 463 10 b 346 -14 410 -9 380 -14 b 231 10 305 -14 267 -6 b 135 79 194 27 163 50 b 70 185 108 109 86 144 b 46 321 54 227 46 272 b 74 463 46 374 55 421 b 146 567 92 504 116 539 b 247 632 175 596 209 617 b 363 654 285 647 324 654 b 485 628 411 654 451 645 b 560 557 518 610 543 587 l 563 557 l 563 838 l 356 838 l 356 867 l 563 867 l 563 1028 l 696 1028 l 696 867 l 779 867 l 779 838 l 696 838 l 696 0 l 567 0 m 561 458 b 544 531 561 486 556 510 b 500 582 533 552 519 569 b 440 612 481 596 462 606 b 376 621 419 618 398 621 b 235 550 317 621 270 597 b 183 321 201 503 183 426 b 233 94 183 217 200 141 b 371 22 266 46 312 22 b 443 36 396 22 420 27 b 504 74 466 45 487 58 b 546 132 522 91 536 110 b 561 204 556 154 561 178 l 561 458 "},"":{"ha":761,"x_min":0,"x_max":0,"o":"m 696 925 l 244 925 l 244 519 l 560 519 l 560 486 l 244 486 l 244 33 l 728 33 l 728 0 l 103 0 l 103 958 l 696 958 m 597 1147 l 597 1078 l 232 1078 l 232 1147 "},"":{"ha":689,"x_min":0,"x_max":0,"o":"m 653 171 b 562 35 639 113 609 67 b 383 -14 515 2 456 -14 b 240 14 330 -14 282 -5 b 133 89 197 32 162 57 b 68 196 105 120 83 156 b 46 321 53 236 46 277 b 69 449 46 365 54 408 b 135 556 85 489 107 525 b 234 628 163 586 196 610 b 360 656 272 647 314 656 b 558 585 442 656 508 632 b 632 379 607 538 632 469 l 186 379 b 184 350 185 369 184 359 b 183 321 184 341 183 331 b 194 207 183 281 187 243 b 228 111 201 171 212 139 b 294 44 245 83 267 61 b 399 19 322 28 357 19 b 551 63 465 19 516 34 b 624 178 587 92 611 131 l 653 171 m 360 626 b 242 567 310 626 271 607 b 189 408 214 528 196 475 l 511 408 b 474 575 510 485 498 541 b 360 626 451 609 413 626 m 532 903 l 532 835 l 199 835 l 199 903 "},"":{"ha":761,"x_min":0,"x_max":0,"o":"m 696 925 l 244 925 l 244 519 l 560 519 l 560 486 l 244 486 l 244 33 l 728 33 l 728 0 l 103 0 l 103 958 l 696 958 m 422 1047 b 307 1092 373 1047 335 1062 b 256 1218 279 1122 262 1164 l 281 1218 b 330 1151 290 1186 306 1163 b 422 1132 353 1138 384 1132 b 514 1151 460 1132 491 1138 b 563 1218 537 1163 553 1186 l 589 1218 b 537 1092 581 1164 564 1122 b 422 1047 509 1062 471 1047 "},"":{"ha":689,"x_min":0,"x_max":0,"o":"m 653 171 b 562 35 639 113 609 67 b 383 -14 515 2 456 -14 b 240 14 330 -14 282 -5 b 133 89 197 32 162 57 b 68 196 105 120 83 156 b 46 321 53 236 46 277 b 69 449 46 365 54 408 b 135 556 85 489 107 525 b 234 628 163 586 196 610 b 360 656 272 647 314 656 b 558 585 442 656 508 632 b 632 379 607 538 632 469 l 186 379 b 184 350 185 369 184 359 b 183 321 184 341 183 331 b 194 207 183 281 187 243 b 228 111 201 171 212 139 b 294 44 245 83 267 61 b 399 19 322 28 357 19 b 551 63 465 19 516 34 b 624 178 587 92 611 131 l 653 171 m 360 626 b 242 567 310 626 271 607 b 189 408 214 528 196 475 l 511 408 b 474 575 510 485 498 541 b 360 626 451 609 413 626 m 367 774 b 251 824 316 774 277 790 b 203 956 225 857 209 901 l 228 956 b 367 854 245 888 292 854 b 504 956 442 854 488 888 l 531 956 b 481 824 524 901 508 857 b 367 774 455 790 417 774 "},"":{"ha":761,"x_min":0,"x_max":0,"o":"m 696 925 l 244 925 l 244 519 l 560 519 l 560 486 l 244 486 l 244 33 l 728 33 l 728 0 l 103 0 l 103 958 l 696 958 m 492 1119 b 471 1067 492 1098 485 1081 b 418 1047 457 1054 439 1047 b 365 1067 397 1047 379 1054 b 344 1119 351 1081 344 1098 b 365 1173 344 1142 351 1159 b 418 1193 379 1186 397 1193 b 471 1173 439 1193 457 1186 b 492 1119 485 1159 492 1142 "},"":{"ha":689,"x_min":0,"x_max":0,"o":"m 653 171 b 562 35 639 113 609 67 b 383 -14 515 2 456 -14 b 240 14 330 -14 282 -5 b 133 89 197 32 162 57 b 68 196 105 120 83 156 b 46 321 53 236 46 277 b 69 449 46 365 54 408 b 135 556 85 489 107 525 b 234 628 163 586 196 610 b 360 656 272 647 314 656 b 558 585 442 656 508 632 b 632 379 607 538 632 469 l 186 379 b 184 350 185 369 184 359 b 183 321 184 341 183 331 b 194 207 183 281 187 243 b 228 111 201 171 212 139 b 294 44 245 83 267 61 b 399 19 322 28 357 19 b 551 63 465 19 516 34 b 624 178 587 92 611 131 l 653 171 m 360 626 b 242 567 310 626 271 607 b 189 408 214 528 196 475 l 511 408 b 474 575 510 485 498 541 b 360 626 451 609 413 626 m 439 882 b 418 829 439 861 432 843 b 365 808 404 815 387 808 b 313 829 344 808 326 815 b 292 882 299 843 292 861 b 313 935 292 903 299 921 b 365 956 326 949 344 956 b 418 935 387 956 404 949 b 439 882 432 921 439 903 "},"":{"ha":761,"x_min":0,"x_max":0,"o":"m 696 925 l 244 925 l 244 519 l 560 519 l 560 486 l 244 486 l 244 33 l 728 33 l 728 0 l 103 0 l 103 958 l 696 958 m 510 -364 b 410 -332 470 -364 437 -353 b 369 -243 383 -311 369 -281 b 390 -168 369 -216 376 -191 b 444 -104 404 -145 422 -124 b 514 -49 466 -85 489 -66 b 585 0 539 -32 563 -16 l 618 0 b 567 -47 600 -14 583 -30 b 522 -105 550 -65 535 -84 b 489 -172 508 -126 497 -148 b 476 -244 481 -195 476 -219 b 494 -310 476 -273 482 -295 b 543 -333 506 -326 523 -333 b 586 -322 559 -333 573 -329 b 618 -290 599 -314 610 -303 l 635 -304 b 590 -346 625 -320 610 -334 b 510 -364 569 -358 542 -364 "},"":{"ha":689,"x_min":0,"x_max":0,"o":"m 528 -304 b 483 -346 519 -320 503 -334 b 403 -364 462 -358 435 -364 b 303 -332 363 -364 330 -353 b 263 -243 276 -311 263 -281 b 281 -173 263 -218 269 -195 b 328 -111 293 -151 308 -131 b 394 -56 347 -92 369 -73 b 472 -4 419 -38 445 -21 b 429 -11 458 -7 444 -9 b 383 -14 414 -13 399 -14 b 240 14 330 -14 282 -5 b 133 89 197 32 162 57 b 68 196 105 120 83 156 b 46 321 53 236 46 277 b 69 449 46 365 54 408 b 135 556 85 489 107 525 b 234 628 163 586 196 610 b 360 656 272 647 314 656 b 558 585 442 656 508 632 b 632 379 607 538 632 469 l 186 379 b 184 351 185 370 184 360 b 183 321 184 341 183 331 b 194 207 183 281 187 243 b 228 111 201 171 212 139 b 294 44 245 83 267 61 b 399 19 322 28 357 19 b 551 63 465 19 516 34 b 624 178 587 92 611 131 l 653 171 b 615 86 645 137 633 108 b 554 29 598 64 577 45 b 419 -96 498 -10 453 -51 b 369 -244 386 -140 369 -190 b 388 -310 369 -273 375 -295 b 436 -333 400 -326 416 -333 b 479 -322 452 -333 466 -329 b 511 -290 492 -314 503 -303 l 528 -304 m 360 626 b 242 567 310 626 271 607 b 189 408 214 528 196 475 l 511 408 b 474 575 510 485 498 541 b 360 626 451 609 413 626 "},"":{"ha":761,"x_min":0,"x_max":0,"o":"m 696 925 l 244 925 l 244 519 l 560 519 l 560 486 l 244 486 l 244 33 l 728 33 l 728 0 l 103 0 l 103 958 l 696 958 m 604 1210 l 440 1051 l 394 1051 l 232 1210 l 247 1225 l 418 1136 l 589 1225 "},"":{"ha":689,"x_min":0,"x_max":0,"o":"m 653 171 b 562 35 639 113 609 67 b 383 -14 515 2 456 -14 b 240 14 330 -14 282 -5 b 133 89 197 32 162 57 b 68 196 105 120 83 156 b 46 321 53 236 46 277 b 69 449 46 365 54 408 b 135 556 85 489 107 525 b 234 628 163 586 196 610 b 360 656 272 647 314 656 b 558 585 442 656 508 632 b 632 379 607 538 632 469 l 186 379 b 184 350 185 369 184 359 b 183 321 184 341 183 331 b 194 207 183 281 187 243 b 228 111 201 171 212 139 b 294 44 245 83 267 61 b 399 19 322 28 357 19 b 551 63 465 19 516 34 b 624 178 587 92 611 131 l 653 171 m 360 626 b 242 567 310 626 271 607 b 189 408 214 528 196 475 l 511 408 b 474 575 510 485 498 541 b 360 626 451 609 413 626 m 185 956 l 203 968 l 364 851 l 525 968 l 543 956 l 386 767 l 340 767 "},"":{"ha":1026,"x_min":0,"x_max":0,"o":"m 946 89 b 901 85 931 89 916 88 b 857 75 885 83 871 80 b 793 49 838 68 816 59 b 719 18 770 38 745 28 b 632 -8 692 8 663 -1 b 531 -18 600 -15 567 -18 b 351 17 469 -18 409 -6 b 199 117 294 41 243 74 b 94 274 155 160 120 213 b 54 479 67 336 54 404 b 95 683 54 554 68 622 b 203 840 122 744 159 797 b 358 942 248 884 300 918 b 539 978 417 966 477 978 b 679 961 590 978 637 972 b 793 906 722 950 760 931 b 876 804 826 880 854 846 b 925 650 899 763 915 711 l 888 646 b 844 784 878 700 864 747 b 771 876 824 822 800 852 b 672 926 742 899 709 916 b 550 942 634 937 594 942 b 406 908 496 942 448 931 b 297 814 363 886 327 855 b 227 667 266 773 243 724 b 203 479 211 610 203 548 b 227 289 203 409 211 345 b 296 144 243 232 266 184 b 403 51 325 103 361 72 b 546 18 446 29 493 18 b 630 27 575 18 603 21 b 705 49 657 33 682 40 b 766 73 728 57 748 65 b 808 90 784 81 798 87 l 808 406 l 946 406 l 946 89 m 360 1057 l 522 1217 l 568 1217 l 732 1057 l 717 1043 l 546 1131 l 375 1043 "},"":{"ha":690,"x_min":0,"x_max":0,"o":"m 688 -110 b 657 -232 688 -158 677 -199 b 575 -313 637 -265 609 -292 b 456 -359 541 -334 501 -349 b 314 -374 411 -369 364 -374 b 180 -365 266 -374 221 -371 b 72 -337 139 -360 103 -350 b 0 -286 42 -325 18 -307 b -26 -208 -18 -265 -26 -239 b -8 -145 -26 -183 -20 -162 b 38 -103 4 -128 19 -114 b 100 -78 57 -92 78 -83 b 163 -68 122 -72 143 -69 l 163 -99 b 106 -106 143 -100 124 -102 b 57 -126 88 -110 72 -117 b 22 -159 42 -134 30 -146 b 8 -208 13 -172 8 -189 b 32 -272 8 -233 16 -255 b 97 -314 48 -290 69 -304 b 193 -336 124 -324 156 -331 b 314 -343 230 -341 270 -343 b 441 -331 359 -343 402 -339 b 543 -295 480 -322 514 -310 b 610 -240 572 -280 594 -262 b 635 -168 627 -219 635 -195 b 622 -112 635 -145 630 -126 b 578 -81 613 -99 598 -88 b 501 -65 559 -73 533 -68 b 388 -58 470 -62 432 -60 b 281 -52 347 -57 311 -55 b 204 -33 250 -49 225 -43 b 158 6 184 -24 169 -11 b 143 72 148 22 143 44 b 152 122 143 92 146 108 b 174 158 158 136 166 148 b 203 181 183 167 193 175 b 232 193 214 187 224 191 l 232 194 b 109 276 184 211 143 238 b 58 418 75 314 58 362 b 82 517 58 455 66 488 b 144 592 98 547 118 571 b 230 639 169 612 198 628 b 328 656 262 650 294 656 b 394 648 350 656 372 653 b 457 626 416 643 437 636 l 461 626 b 581 668 494 654 534 668 b 654 653 610 668 635 663 b 699 613 674 643 688 629 l 675 592 b 638 626 665 606 653 617 b 579 639 624 634 604 639 b 488 610 541 639 511 629 b 567 529 520 588 546 562 b 597 418 587 497 597 460 b 574 318 597 381 589 348 b 512 243 558 288 537 263 b 426 196 486 223 458 207 b 328 179 394 185 361 179 b 294 181 312 179 301 180 b 274 182 288 181 281 182 b 226 169 258 182 242 178 b 201 126 209 161 201 147 b 208 99 201 115 204 106 b 237 81 213 91 222 85 b 299 72 251 77 272 74 b 404 68 325 70 361 69 b 533 58 454 66 497 63 b 620 33 568 54 597 45 b 671 -20 643 20 660 3 b 688 -110 682 -43 688 -73 m 186 418 b 224 257 186 343 199 289 b 328 208 250 225 284 208 b 431 257 371 208 406 225 b 469 418 457 289 469 343 b 431 579 469 493 457 547 b 328 628 406 612 371 628 b 224 579 284 628 250 612 b 186 418 199 547 186 493 m 156 774 l 311 963 l 357 963 l 514 774 l 496 761 l 335 876 l 174 761 "},"":{"ha":1026,"x_min":0,"x_max":0,"o":"m 946 89 b 901 85 931 89 916 88 b 857 75 885 83 871 80 b 793 49 838 68 816 59 b 719 18 770 38 745 28 b 632 -8 692 8 663 -1 b 531 -18 600 -15 567 -18 b 351 17 469 -18 409 -6 b 199 117 294 41 243 74 b 94 274 155 160 120 213 b 54 479 67 336 54 404 b 95 683 54 554 68 622 b 203 840 122 744 159 797 b 358 942 248 884 300 918 b 539 978 417 966 477 978 b 679 961 590 978 637 972 b 793 906 722 950 760 931 b 876 804 826 880 854 846 b 925 650 899 763 915 711 l 888 646 b 844 784 878 700 864 747 b 771 876 824 822 800 852 b 672 926 742 899 709 916 b 550 942 634 937 594 942 b 406 908 496 942 448 931 b 297 814 363 886 327 855 b 227 667 266 773 243 724 b 203 479 211 610 203 548 b 227 289 203 409 211 345 b 296 144 243 232 266 184 b 403 51 325 103 361 72 b 546 18 446 29 493 18 b 630 27 575 18 603 21 b 705 49 657 33 682 40 b 766 73 728 57 748 65 b 808 90 784 81 798 87 l 808 406 l 946 406 l 946 89 m 546 1047 b 431 1092 497 1047 458 1062 b 379 1218 403 1122 386 1164 l 404 1218 b 453 1151 413 1186 430 1163 b 546 1132 477 1138 508 1132 b 638 1151 584 1132 614 1138 b 686 1218 661 1163 677 1186 l 713 1218 b 660 1092 705 1164 688 1122 b 546 1047 633 1062 595 1047 "},"":{"ha":690,"x_min":0,"x_max":0,"o":"m 688 -110 b 657 -232 688 -158 677 -199 b 575 -313 637 -265 609 -292 b 456 -359 541 -334 501 -349 b 314 -374 411 -369 364 -374 b 180 -365 266 -374 221 -371 b 72 -337 139 -360 103 -350 b 0 -286 42 -325 18 -307 b -26 -208 -18 -265 -26 -239 b -8 -145 -26 -183 -20 -162 b 38 -103 4 -128 19 -114 b 100 -78 57 -92 78 -83 b 163 -68 122 -72 143 -69 l 163 -99 b 106 -106 143 -100 124 -102 b 57 -126 88 -110 72 -117 b 22 -159 42 -134 30 -146 b 8 -208 13 -172 8 -189 b 32 -272 8 -233 16 -255 b 97 -314 48 -290 69 -304 b 193 -336 124 -324 156 -331 b 314 -343 230 -341 270 -343 b 441 -331 359 -343 402 -339 b 543 -295 480 -322 514 -310 b 610 -240 572 -280 594 -262 b 635 -168 627 -219 635 -195 b 622 -112 635 -145 630 -126 b 578 -81 613 -99 598 -88 b 501 -65 559 -73 533 -68 b 388 -58 470 -62 432 -60 b 281 -52 347 -57 311 -55 b 204 -33 250 -49 225 -43 b 158 6 184 -24 169 -11 b 143 72 148 22 143 44 b 152 122 143 92 146 108 b 174 158 158 136 166 148 b 203 181 183 167 193 175 b 232 193 214 187 224 191 l 232 194 b 109 276 184 211 143 238 b 58 418 75 314 58 362 b 82 517 58 455 66 488 b 144 592 98 547 118 571 b 230 639 169 612 198 628 b 328 656 262 650 294 656 b 394 648 350 656 372 653 b 457 626 416 643 437 636 l 461 626 b 581 668 494 654 534 668 b 654 653 610 668 635 663 b 699 613 674 643 688 629 l 675 592 b 638 626 665 606 653 617 b 579 639 624 634 604 639 b 488 610 541 639 511 629 b 567 529 520 588 546 562 b 597 418 587 497 597 460 b 574 318 597 381 589 348 b 512 243 558 288 537 263 b 426 196 486 223 458 207 b 328 179 394 185 361 179 b 294 181 312 179 301 180 b 274 182 288 181 281 182 b 226 169 258 182 242 178 b 201 126 209 161 201 147 b 208 99 201 115 204 106 b 237 81 213 91 222 85 b 299 72 251 77 272 74 b 404 68 325 70 361 69 b 533 58 454 66 497 63 b 620 33 568 54 597 45 b 671 -20 643 20 660 3 b 688 -110 682 -43 688 -73 m 186 418 b 224 257 186 343 199 289 b 328 208 250 225 284 208 b 431 257 371 208 406 225 b 469 418 457 289 469 343 b 431 579 469 493 457 547 b 328 628 406 612 371 628 b 224 579 284 628 250 612 b 186 418 199 547 186 493 m 332 774 b 217 824 281 774 243 790 b 168 956 191 857 175 901 l 193 956 b 332 854 211 888 257 854 b 469 956 407 854 453 888 l 496 956 b 447 824 489 901 473 857 b 332 774 420 790 382 774 "},"":{"ha":1026,"x_min":0,"x_max":0,"o":"m 946 89 b 901 85 931 89 916 88 b 857 75 885 83 871 80 b 793 49 838 68 816 59 b 719 18 770 38 745 28 b 632 -8 692 8 663 -1 b 531 -18 600 -15 567 -18 b 351 17 469 -18 409 -6 b 199 117 294 41 243 74 b 94 274 155 160 120 213 b 54 479 67 336 54 404 b 95 683 54 554 68 622 b 203 840 122 744 159 797 b 358 942 248 884 300 918 b 539 978 417 966 477 978 b 679 961 590 978 637 972 b 793 906 722 950 760 931 b 876 804 826 880 854 846 b 925 650 899 763 915 711 l 888 646 b 844 784 878 700 864 747 b 771 876 824 822 800 852 b 672 926 742 899 709 916 b 550 942 634 937 594 942 b 406 908 496 942 448 931 b 297 814 363 886 327 855 b 227 667 266 773 243 724 b 203 479 211 610 203 548 b 227 289 203 409 211 345 b 296 144 243 232 266 184 b 403 51 325 103 361 72 b 546 18 446 29 493 18 b 630 27 575 18 603 21 b 705 49 657 33 682 40 b 766 73 728 57 748 65 b 808 90 784 81 798 87 l 808 406 l 946 406 l 946 89 m 624 1119 b 603 1067 624 1098 617 1081 b 550 1047 589 1054 571 1047 b 497 1067 529 1047 511 1054 b 476 1119 483 1081 476 1098 b 497 1173 476 1142 483 1159 b 550 1193 511 1186 529 1193 b 603 1173 571 1193 589 1186 b 624 1119 617 1159 624 1142 "},"":{"ha":690,"x_min":0,"x_max":0,"o":"m 688 -110 b 657 -232 688 -158 677 -199 b 575 -313 637 -265 609 -292 b 456 -359 541 -334 501 -349 b 314 -374 411 -369 364 -374 b 180 -365 266 -374 221 -371 b 72 -337 139 -360 103 -350 b 0 -286 42 -325 18 -307 b -26 -208 -18 -265 -26 -239 b -8 -145 -26 -183 -20 -162 b 38 -103 4 -128 19 -114 b 100 -78 57 -92 78 -83 b 163 -68 122 -72 143 -69 l 163 -99 b 106 -106 143 -100 124 -102 b 57 -126 88 -110 72 -117 b 22 -159 42 -134 30 -146 b 8 -208 13 -172 8 -189 b 32 -272 8 -233 16 -255 b 97 -314 48 -290 69 -304 b 193 -336 124 -324 156 -331 b 314 -343 230 -341 270 -343 b 441 -331 359 -343 402 -339 b 543 -295 480 -322 514 -310 b 610 -240 572 -280 594 -262 b 635 -168 627 -219 635 -195 b 622 -112 635 -145 630 -126 b 578 -81 613 -99 598 -88 b 501 -65 559 -73 533 -68 b 388 -58 470 -62 432 -60 b 281 -52 347 -57 311 -55 b 204 -33 250 -49 225 -43 b 158 6 184 -24 169 -11 b 143 72 148 22 143 44 b 152 122 143 92 146 108 b 174 158 158 136 166 148 b 203 181 183 167 193 175 b 232 193 214 187 224 191 l 232 194 b 109 276 184 211 143 238 b 58 418 75 314 58 362 b 82 517 58 455 66 488 b 144 592 98 547 118 571 b 230 639 169 612 198 628 b 328 656 262 650 294 656 b 394 648 350 656 372 653 b 457 626 416 643 437 636 l 461 626 b 581 668 494 654 534 668 b 654 653 610 668 635 663 b 699 613 674 643 688 629 l 675 592 b 638 626 665 606 653 617 b 579 639 624 634 604 639 b 488 610 541 639 511 629 b 567 529 520 588 546 562 b 597 418 587 497 597 460 b 574 318 597 381 589 348 b 512 243 558 288 537 263 b 426 196 486 223 458 207 b 328 179 394 185 361 179 b 294 181 312 179 301 180 b 274 182 288 181 281 182 b 226 169 258 182 242 178 b 201 126 209 161 201 147 b 208 99 201 115 204 106 b 237 81 213 91 222 85 b 299 72 251 77 272 74 b 404 68 325 70 361 69 b 533 58 454 66 497 63 b 620 33 568 54 597 45 b 671 -20 643 20 660 3 b 688 -110 682 -43 688 -73 m 186 418 b 224 257 186 343 199 289 b 328 208 250 225 284 208 b 431 257 371 208 406 225 b 469 418 457 289 469 343 b 431 579 469 493 457 547 b 328 628 406 612 371 628 b 224 579 284 628 250 612 b 186 418 199 547 186 493 m 407 882 b 386 829 407 861 400 843 b 333 808 372 815 355 808 b 281 829 312 808 294 815 b 260 882 267 843 260 861 b 281 935 260 903 267 921 b 333 956 294 949 312 956 b 386 935 355 956 372 949 b 407 882 400 921 407 903 "},"":{"ha":1026,"x_min":0,"x_max":0,"o":"m 946 89 b 901 85 931 89 916 88 b 857 75 885 83 871 80 b 793 49 838 68 816 59 b 719 18 770 38 745 28 b 632 -8 692 8 663 -1 b 531 -18 600 -15 567 -18 b 351 17 469 -18 409 -6 b 199 117 294 41 243 74 b 94 274 155 160 120 213 b 54 479 67 336 54 404 b 95 683 54 554 68 622 b 203 840 122 744 159 797 b 358 942 248 884 300 918 b 539 978 417 966 477 978 b 679 961 590 978 637 972 b 793 906 722 950 760 931 b 876 804 826 880 854 846 b 925 650 899 763 915 711 l 888 646 b 844 784 878 700 864 747 b 771 876 824 822 800 852 b 672 926 742 899 709 916 b 550 942 634 937 594 942 b 406 908 496 942 448 931 b 297 814 363 886 327 855 b 227 667 266 773 243 724 b 203 479 211 610 203 548 b 227 289 203 409 211 345 b 296 144 243 232 266 184 b 403 51 325 103 361 72 b 546 18 446 29 493 18 b 630 27 575 18 603 21 b 705 49 657 33 682 40 b 766 73 728 57 748 65 b 808 90 784 81 798 87 l 808 406 l 946 406 l 946 89 m 467 -262 b 530 -225 493 -253 514 -241 b 556 -174 546 -209 555 -192 b 540 -185 551 -178 546 -182 b 518 -189 535 -187 527 -189 b 479 -174 502 -189 489 -184 b 464 -136 469 -165 464 -152 b 480 -96 464 -120 469 -107 b 524 -79 491 -85 505 -79 b 573 -99 546 -79 562 -86 b 589 -151 584 -113 589 -130 b 554 -240 589 -190 577 -220 b 476 -286 531 -261 505 -276 l 467 -262 "},"":{"ha":690,"x_min":0,"x_max":0,"o":"m 688 -110 b 657 -232 688 -158 677 -199 b 575 -313 637 -265 609 -292 b 456 -359 541 -334 501 -349 b 314 -374 411 -369 364 -374 b 180 -365 266 -374 221 -371 b 72 -337 139 -360 103 -350 b 0 -286 42 -325 18 -307 b -26 -208 -18 -265 -26 -239 b -8 -145 -26 -183 -20 -162 b 38 -103 4 -128 19 -114 b 100 -78 57 -92 78 -83 b 163 -68 122 -72 143 -69 l 163 -99 b 106 -106 143 -100 124 -102 b 57 -126 88 -110 72 -117 b 22 -159 42 -134 30 -146 b 8 -208 13 -172 8 -189 b 32 -272 8 -233 16 -255 b 97 -314 48 -290 69 -304 b 193 -336 124 -324 156 -331 b 314 -343 230 -341 270 -343 b 441 -331 359 -343 402 -339 b 543 -295 480 -322 514 -310 b 610 -240 572 -280 594 -262 b 635 -168 627 -219 635 -195 b 622 -112 635 -145 630 -126 b 578 -81 613 -99 598 -88 b 501 -65 559 -73 533 -68 b 388 -58 470 -62 432 -60 b 281 -52 347 -57 311 -55 b 204 -33 250 -49 225 -43 b 158 6 184 -24 169 -11 b 143 72 148 22 143 44 b 152 122 143 92 146 108 b 174 158 158 136 166 148 b 203 181 183 167 193 175 b 232 193 214 187 224 191 l 232 194 b 109 276 184 211 143 238 b 58 418 75 314 58 362 b 82 517 58 455 66 488 b 144 592 98 547 118 571 b 230 639 169 612 198 628 b 328 656 262 650 294 656 b 394 648 350 656 372 653 b 457 626 416 643 437 636 l 461 626 b 581 668 494 654 534 668 b 654 653 610 668 635 663 b 699 613 674 643 688 629 l 675 592 b 638 626 665 606 653 617 b 579 639 624 634 604 639 b 488 610 541 639 511 629 b 567 529 520 588 546 562 b 597 418 587 497 597 460 b 574 318 597 381 589 348 b 512 243 558 288 537 263 b 426 196 486 223 458 207 b 328 179 394 185 361 179 b 294 181 312 179 301 180 b 274 182 288 181 281 182 b 226 169 258 182 242 178 b 201 126 209 161 201 147 b 208 99 201 115 204 106 b 237 81 213 91 222 85 b 299 72 251 77 272 74 b 404 68 325 70 361 69 b 533 58 454 66 497 63 b 620 33 568 54 597 45 b 671 -20 643 20 660 3 b 688 -110 682 -43 688 -73 m 186 418 b 224 257 186 343 199 289 b 328 208 250 225 284 208 b 431 257 371 208 406 225 b 469 418 457 289 469 343 b 431 579 469 493 457 547 b 328 628 406 612 371 628 b 224 579 284 628 250 612 b 186 418 199 547 186 493 m 393 975 b 330 938 367 966 346 953 b 304 886 314 922 305 905 b 319 897 309 891 314 894 b 342 901 325 900 332 901 b 381 887 357 901 370 897 b 396 849 391 877 396 864 b 380 808 396 833 391 819 b 336 792 369 797 355 792 b 287 812 314 792 297 798 b 271 864 276 825 271 843 b 306 953 271 903 282 932 b 383 999 329 973 355 988 l 393 975 "},"":{"ha":974,"x_min":0,"x_max":0,"o":"m 244 486 l 244 0 l 103 0 l 103 958 l 244 958 l 244 519 l 729 519 l 729 958 l 871 958 l 871 0 l 729 0 l 729 486 m 303 1057 l 465 1217 l 511 1217 l 675 1057 l 660 1043 l 489 1131 l 318 1043 "},"":{"ha":739,"x_min":0,"x_max":0,"o":"m 85 1028 l 215 1028 l 215 540 l 218 540 b 306 624 236 576 265 604 b 447 654 346 644 394 654 b 528 649 479 654 506 652 b 588 628 551 645 571 638 b 639 582 609 617 626 601 b 658 507 652 563 658 538 l 658 0 l 525 0 l 525 514 b 499 592 525 549 516 575 b 410 617 481 608 451 617 b 328 601 380 617 353 612 b 267 563 304 591 283 578 b 232 510 253 549 241 531 b 218 428 223 488 218 461 l 218 0 l 85 0 m 190 1100 l 353 1260 l 399 1260 l 563 1100 l 547 1086 l 376 1174 l 206 1086 "},"":{"ha":1017,"x_min":0,"x_max":0,"o":"m 124 0 l 124 722 l 18 722 l 18 754 l 124 754 l 124 958 l 265 958 l 265 754 l 750 754 l 750 958 l 893 958 l 893 754 l 1000 754 l 1000 722 l 893 722 l 893 0 l 750 0 l 750 486 l 265 486 l 265 0 m 750 722 l 265 722 l 265 519 l 750 519 "},"":{"ha":743,"x_min":0,"x_max":0,"o":"m 89 838 l 6 838 l 6 867 l 89 867 l 89 1028 l 219 1028 l 219 867 l 428 867 l 428 838 l 219 838 l 219 540 l 222 540 b 310 624 240 576 269 604 b 451 654 350 644 398 654 b 533 649 483 654 510 652 b 592 628 555 645 575 638 b 643 582 613 617 630 601 b 663 507 656 563 663 538 l 663 0 l 529 0 l 529 514 b 503 592 529 549 520 575 b 414 617 485 608 456 617 b 333 601 384 617 357 612 b 271 563 308 591 288 578 b 236 510 257 549 245 531 b 222 428 227 488 222 461 l 222 0 l 89 0 "},"":{"ha":343,"x_min":0,"x_max":0,"o":"m 243 958 l 243 0 l 100 0 l 100 958 m -35 1039 b 19 1143 -19 1083 -1 1118 b 106 1181 40 1168 69 1181 b 151 1175 119 1181 134 1179 b 199 1162 167 1171 183 1167 b 248 1149 216 1157 232 1152 b 294 1143 264 1145 280 1143 b 342 1153 312 1143 328 1147 b 381 1203 356 1160 369 1177 l 403 1196 b 353 1093 390 1153 373 1119 b 268 1054 332 1067 304 1054 b 223 1060 254 1054 239 1056 b 174 1073 207 1063 191 1068 b 126 1086 158 1078 142 1082 b 79 1092 109 1090 94 1092 b 28 1081 61 1092 44 1088 b -12 1031 13 1073 0 1056 l -35 1039 "},"":{"ha":304,"x_min":0,"x_max":0,"o":"m -42 796 b 13 901 -26 840 -8 875 b 89 940 34 927 59 940 b 130 934 102 940 116 938 b 173 920 144 930 159 925 b 217 906 187 915 202 910 b 258 900 231 902 245 900 b 303 913 275 900 290 904 b 339 961 316 921 328 937 l 361 956 b 313 853 349 914 333 880 b 238 813 292 826 267 813 b 197 819 225 813 211 815 b 153 832 182 823 168 827 b 109 845 138 837 123 841 b 68 851 95 849 81 851 b 20 838 50 851 34 847 b -19 789 7 829 -6 813 l -42 796 m 88 642 l 221 642 l 221 0 l 88 0 "},"":{"ha":343,"x_min":0,"x_max":0,"o":"m 344 1147 l 344 1078 l -3 1078 l -3 1147 m 243 958 l 243 0 l 100 0 l 100 958 "},"":{"ha":304,"x_min":0,"x_max":0,"o":"m 299 911 l 299 833 l 7 833 l 7 911 m 88 642 l 221 642 l 221 0 l 88 0 "},"":{"ha":343,"x_min":0,"x_max":0,"o":"m 243 958 l 243 0 l 100 0 l 100 958 m 172 1047 b 57 1092 123 1047 85 1062 b 6 1218 29 1122 12 1164 l 31 1218 b 80 1151 40 1186 56 1163 b 172 1132 103 1138 134 1132 b 264 1151 210 1132 241 1138 b 313 1218 287 1163 303 1186 l 339 1218 b 287 1092 331 1164 314 1122 b 172 1047 259 1062 221 1047 "},"":{"ha":304,"x_min":0,"x_max":0,"o":"m 88 642 l 221 642 l 221 0 l 88 0 m 153 774 b 38 824 102 774 63 790 b -11 956 12 857 -5 901 l 14 956 b 153 854 31 888 78 854 b 290 956 228 854 274 888 l 317 956 b 267 824 310 901 294 857 b 153 774 241 790 203 774 "},"":{"ha":343,"x_min":0,"x_max":0,"o":"m -7 -243 b 14 -168 -7 -216 0 -191 b 66 -104 28 -145 45 -124 b 133 -49 87 -85 109 -66 b 200 0 157 -32 180 -16 l 100 0 l 100 958 l 243 958 l 243 0 l 233 0 b 186 -47 218 -14 202 -30 b 143 -105 170 -65 156 -84 b 112 -172 130 -126 120 -148 b 100 -244 104 -195 100 -219 b 119 -310 100 -273 106 -295 b 167 -333 131 -326 147 -333 b 210 -322 183 -333 198 -329 b 242 -290 223 -314 233 -303 l 260 -304 b 213 -346 250 -320 234 -334 b 135 -364 192 -358 166 -364 b 33 -332 94 -364 60 -353 b -7 -243 6 -311 -7 -281 "},"":{"ha":308,"x_min":0,"x_max":0,"o":"m 228 888 b 207 835 228 866 221 849 b 154 814 193 821 175 814 b 101 835 133 814 115 821 b 81 888 88 849 81 866 b 101 940 81 909 88 926 b 154 961 115 954 133 961 b 207 940 175 961 193 954 b 228 888 221 926 228 909 m -15 -243 b 4 -171 -15 -217 -9 -193 b 53 -108 17 -149 33 -128 b 117 -53 72 -89 94 -70 b 182 0 140 -35 162 -18 l 88 0 l 88 642 l 221 642 l 221 0 l 214 0 b 169 -51 198 -16 183 -33 b 130 -108 154 -69 141 -88 b 102 -173 118 -129 109 -150 b 92 -244 95 -196 92 -219 b 110 -310 92 -273 98 -295 b 158 -333 123 -326 139 -333 b 202 -322 175 -333 190 -329 b 233 -290 215 -314 225 -303 l 251 -304 b 205 -346 241 -320 226 -334 b 126 -364 184 -358 158 -364 b 25 -332 86 -364 52 -353 b -15 -243 -2 -311 -15 -281 "},"":{"ha":343,"x_min":0,"x_max":0,"o":"m 243 958 l 243 0 l 100 0 l 100 958 m 244 1119 b 224 1067 244 1098 238 1081 b 171 1047 210 1054 192 1047 b 118 1067 150 1047 132 1054 b 97 1119 104 1081 97 1098 b 118 1173 97 1142 104 1159 b 171 1193 132 1186 150 1193 b 224 1173 192 1193 210 1186 b 244 1119 238 1159 244 1142 "},"":{"ha":307,"x_min":0,"x_max":0,"o":"m 88 642 l 221 642 l 221 0 l 88 0 "},"":{"ha":860,"x_min":0,"x_max":0,"o":"m 765 249 b 745 128 765 201 759 161 b 690 47 732 94 713 67 b 606 1 666 26 638 10 b 501 -14 573 -9 538 -14 b 377 22 449 -14 407 -2 b 317 101 347 46 327 73 l 346 117 b 395 50 356 92 372 69 b 493 21 418 31 450 21 b 592 57 539 21 572 33 b 622 182 612 81 622 123 l 622 958 l 765 958 l 765 249 m 244 958 l 244 0 l 103 0 l 103 958 "},"":{"ha":613,"x_min":0,"x_max":0,"o":"m 231 888 b 210 835 231 866 224 849 b 157 814 196 821 178 814 b 104 835 136 814 118 821 b 83 888 90 849 83 866 b 104 940 83 909 90 926 b 157 961 118 954 136 961 b 210 940 178 961 196 954 b 231 888 224 926 231 909 m 90 642 l 224 642 l 224 0 l 90 0 m 536 888 b 515 835 536 866 529 849 b 461 814 500 821 482 814 b 408 835 440 814 422 821 b 388 888 394 849 388 866 b 408 940 388 909 394 926 b 461 961 422 954 440 961 b 515 940 482 961 500 954 b 536 888 529 926 536 909 m 528 -126 b 506 -242 528 -174 521 -212 b 443 -315 492 -272 471 -297 b 288 -354 405 -341 353 -354 b 177 -331 242 -354 205 -346 b 117 -272 149 -315 129 -295 l 143 -254 b 191 -303 153 -273 169 -289 b 285 -325 213 -318 244 -325 b 365 -298 319 -325 346 -316 b 394 -197 385 -280 394 -246 l 394 642 l 528 642 "},"":{"ha":589,"x_min":0,"x_max":0,"o":"m 500 224 b 476 103 500 176 492 136 b 413 22 461 69 439 42 b 319 -24 386 1 355 -15 b 208 -39 284 -34 247 -39 b 133 -29 181 -39 156 -36 b 76 -3 111 -23 92 -14 b 38 35 61 8 48 21 b 14 79 27 50 19 64 l 44 94 b 99 24 56 67 75 43 b 201 -6 123 4 157 -6 b 316 31 250 -6 288 6 b 358 157 344 55 358 97 l 358 958 l 500 958 l 500 224 m 235 1057 l 397 1217 l 443 1217 l 607 1057 l 592 1043 l 421 1131 l 250 1043 "},"":{"ha":306,"x_min":0,"x_max":0,"o":"m 221 -126 b 199 -242 221 -174 214 -212 b 136 -315 185 -272 164 -297 b -19 -354 98 -341 46 -354 b -130 -331 -65 -354 -102 -346 b -190 -272 -158 -315 -178 -295 l -164 -254 b -116 -303 -154 -273 -138 -289 b -22 -325 -94 -318 -63 -325 b 58 -298 12 -325 39 -316 b 88 -197 78 -280 88 -246 l 88 642 l 221 642 m -26 774 l 129 963 l 175 963 l 332 774 l 314 761 l 153 876 l -8 761 "},"":{"ha":842,"x_min":0,"x_max":0,"o":"m 313 521 l 313 519 b 350 532 323 524 335 528 b 399 538 365 536 381 538 b 523 516 448 538 489 530 b 608 456 557 502 585 481 b 666 365 631 430 651 399 b 706 251 681 330 694 292 b 724 194 710 237 716 217 b 752 121 732 170 741 146 b 786 50 763 96 774 72 b 824 0 798 28 811 11 l 660 0 b 606 95 639 21 621 53 b 563 235 590 137 575 184 b 528 349 551 277 540 316 b 487 435 516 383 502 412 b 434 488 472 458 454 475 b 363 506 414 500 390 506 b 310 497 343 506 326 503 b 268 474 295 492 281 484 b 244 458 260 471 252 466 l 244 0 l 103 0 l 103 958 l 244 958 l 244 501 l 247 501 l 724 958 l 772 958 m 365 -262 b 428 -225 391 -253 412 -241 b 454 -174 445 -209 453 -192 b 439 -185 450 -178 444 -182 b 417 -189 433 -187 426 -189 b 378 -174 401 -189 388 -184 b 363 -136 368 -165 363 -152 b 378 -96 363 -120 368 -107 b 422 -79 389 -85 404 -79 b 472 -99 444 -79 461 -86 b 488 -151 482 -113 488 -130 b 453 -240 488 -190 476 -220 b 375 -286 430 -261 404 -276 l 365 -262 "},"":{"ha":664,"x_min":0,"x_max":0,"o":"m 293 367 b 316 372 300 369 308 371 b 342 374 324 373 332 374 b 433 360 377 374 407 369 b 499 322 459 350 481 338 b 544 265 517 305 532 286 b 572 196 555 243 565 220 b 588 147 576 183 581 167 b 611 90 595 128 603 109 b 638 36 619 71 628 53 b 664 0 647 19 656 7 l 522 0 b 443 164 489 31 463 85 b 422 239 436 192 429 217 b 399 297 416 261 408 280 b 365 334 389 313 378 325 b 313 347 351 343 334 347 b 266 338 294 347 278 344 b 232 314 253 332 242 324 l 217 299 l 217 0 l 85 0 l 85 1028 l 217 1028 l 217 336 l 219 336 l 535 642 l 578 642 l 293 369 m 306 -262 b 369 -225 331 -253 353 -241 b 394 -174 385 -209 394 -192 b 379 -185 390 -178 385 -182 b 357 -189 374 -187 366 -189 b 318 -174 341 -189 328 -184 b 303 -136 308 -165 303 -152 b 319 -96 303 -120 308 -107 b 363 -79 329 -85 344 -79 b 412 -99 385 -79 401 -86 b 428 -151 422 -113 428 -130 b 393 -240 428 -190 416 -220 b 315 -286 370 -261 344 -276 l 306 -262 "},"":{"ha":735,"x_min":0,"x_max":0,"o":"m 710 33 l 710 0 l 103 0 l 103 958 l 244 958 l 244 33 m 92 1050 l 339 1219 l 389 1125 l 101 1028 "},"":{"ha":303,"x_min":0,"x_max":0,"o":"m 85 0 l 85 1028 l 218 1028 l 218 0 m 22 1093 l 269 1263 l 319 1168 l 32 1071 "},"":{"ha":735,"x_min":0,"x_max":0,"o":"m 710 33 l 710 0 l 103 0 l 103 958 l 244 958 l 244 33 m 349 -262 b 412 -225 375 -253 396 -241 b 438 -174 428 -209 437 -192 b 422 -185 433 -178 428 -182 b 400 -189 417 -187 409 -189 b 361 -174 384 -189 371 -184 b 346 -136 351 -165 346 -152 b 362 -96 346 -120 351 -107 b 406 -79 372 -85 387 -79 b 455 -99 428 -79 444 -86 b 471 -151 466 -113 471 -130 b 436 -240 471 -190 459 -220 b 358 -286 413 -261 387 -276 l 349 -262 "},"":{"ha":303,"x_min":0,"x_max":0,"o":"m 85 0 l 85 1028 l 218 1028 l 218 0 m 92 -262 b 155 -225 118 -253 139 -241 b 181 -174 171 -209 180 -192 b 165 -185 176 -178 171 -182 b 143 -189 160 -187 152 -189 b 104 -174 127 -189 114 -184 b 89 -136 94 -165 89 -152 b 105 -96 89 -120 94 -107 b 149 -79 116 -85 130 -79 b 198 -99 171 -79 187 -86 b 214 -151 209 -113 214 -130 b 179 -240 214 -190 202 -220 b 101 -286 156 -261 130 -276 l 92 -262 "},"":{"ha":735,"x_min":0,"x_max":0,"o":"m 710 33 l 710 0 l 103 0 l 103 958 l 244 958 l 244 33 m 347 765 l 382 999 l 461 982 l 365 760 "},"":{"ha":297,"x_min":0,"x_max":0,"o":"m 82 0 l 82 1028 l 215 1028 l 215 0 m 275 797 l 310 1031 l 389 1014 l 293 792 "},"":{"ha":732,"x_min":0,"x_max":0,"o":"m 710 33 l 710 0 l 103 0 l 103 958 l 244 958 l 244 33 m 490 518 b 512 572 490 539 497 557 b 565 593 526 586 544 593 b 618 572 587 593 604 586 b 639 518 632 557 639 539 b 618 464 639 496 632 478 b 565 443 604 450 587 443 b 512 464 544 443 526 450 b 490 518 497 478 490 496 "},"":{"ha":429,"x_min":0,"x_max":0,"o":"m 85 0 l 85 1028 l 218 1028 l 218 0 m 438 488 b 417 435 438 466 431 449 b 364 414 403 421 385 414 b 311 435 343 414 325 421 b 290 488 297 449 290 466 b 311 542 290 510 297 528 b 364 563 325 556 343 563 b 417 542 385 563 403 556 b 438 488 431 528 438 510 "},"":{"ha":760,"x_min":0,"x_max":0,"o":"m 131 0 l 131 375 l 18 315 l 6 343 l 131 410 l 131 958 l 272 958 l 272 483 l 574 643 l 588 615 l 272 449 l 272 33 l 736 33 l 736 0 "},"":{"ha":356,"x_min":0,"x_max":0,"o":"m 111 0 l 111 439 l 17 369 l 1 394 l 111 475 l 111 1028 l 244 1028 l 244 572 l 343 644 l 358 619 l 244 536 l 244 0 "},"":{"ha":908,"x_min":0,"x_max":0,"o":"m 719 -3 l 143 894 l 140 894 l 140 0 l 103 0 l 103 958 l 265 958 l 768 194 l 772 194 l 772 958 l 810 958 l 810 -3 m 369 1050 l 617 1219 l 667 1125 l 379 1028 "},"":{"ha":739,"x_min":0,"x_max":0,"o":"m 85 642 l 215 642 l 215 540 l 218 540 b 306 624 236 576 265 604 b 449 654 347 644 395 654 b 528 649 479 654 506 652 b 588 629 550 645 570 638 b 639 583 609 618 626 603 b 658 507 652 563 658 538 l 658 0 l 525 0 l 525 513 b 499 592 525 549 516 575 b 410 617 481 608 451 617 b 329 602 380 617 353 612 b 267 563 305 592 284 579 b 232 510 253 549 241 531 b 218 428 223 488 218 461 l 218 0 l 85 0 m 268 789 l 506 967 l 557 874 l 278 768 "},"":{"ha":908,"x_min":0,"x_max":0,"o":"m 719 -3 l 143 894 l 140 894 l 140 0 l 103 0 l 103 958 l 265 958 l 768 194 l 772 194 l 772 958 l 810 958 l 810 -3 m 375 -262 b 438 -225 401 -253 422 -241 b 464 -174 454 -209 463 -192 b 449 -185 459 -178 454 -182 b 426 -189 443 -187 436 -189 b 388 -174 411 -189 398 -184 b 372 -136 377 -165 372 -152 b 388 -96 372 -120 378 -107 b 432 -79 399 -85 413 -79 b 481 -99 454 -79 471 -86 b 497 -151 492 -113 497 -130 b 463 -240 497 -190 486 -220 b 385 -286 439 -261 413 -276 l 375 -262 "},"":{"ha":739,"x_min":0,"x_max":0,"o":"m 85 642 l 215 642 l 215 540 l 218 540 b 306 624 236 576 265 604 b 449 654 347 644 395 654 b 528 649 479 654 506 652 b 588 629 550 645 570 638 b 639 583 609 618 626 603 b 658 507 652 563 658 538 l 658 0 l 525 0 l 525 513 b 499 592 525 549 516 575 b 410 617 481 608 451 617 b 329 602 380 617 353 612 b 267 563 305 592 284 579 b 232 510 253 549 241 531 b 218 428 223 488 218 461 l 218 0 l 85 0 m 319 -262 b 383 -225 345 -253 366 -241 b 408 -174 399 -209 407 -192 b 393 -185 404 -178 399 -182 b 371 -189 388 -187 380 -189 b 332 -174 355 -189 342 -184 b 317 -136 322 -165 317 -152 b 333 -96 317 -120 322 -107 b 376 -79 343 -85 358 -79 b 426 -99 399 -79 415 -86 b 442 -151 436 -113 442 -130 b 407 -240 442 -190 430 -220 b 329 -286 384 -261 358 -276 l 319 -262 "},"":{"ha":908,"x_min":0,"x_max":0,"o":"m 719 -3 l 143 894 l 140 894 l 140 0 l 103 0 l 103 958 l 265 958 l 768 194 l 772 194 l 772 958 l 810 958 l 810 -3 m 685 1210 l 521 1051 l 475 1051 l 313 1210 l 328 1225 l 499 1136 l 669 1225 "},"":{"ha":739,"x_min":0,"x_max":0,"o":"m 85 642 l 215 642 l 215 540 l 218 540 b 306 624 236 576 265 604 b 449 654 347 644 395 654 b 528 649 479 654 506 652 b 588 629 550 645 570 638 b 639 583 609 618 626 603 b 658 507 652 563 658 538 l 658 0 l 525 0 l 525 513 b 499 592 525 549 516 575 b 410 617 481 608 451 617 b 329 602 380 617 353 612 b 267 563 305 592 284 579 b 232 510 253 549 241 531 b 218 428 223 488 218 461 l 218 0 l 85 0 m 208 956 l 226 968 l 388 851 l 549 968 l 567 956 l 410 767 l 364 767 "},"":{"ha":782,"x_min":0,"x_max":0,"o":"m 129 642 l 260 642 l 260 540 l 263 540 b 351 624 280 576 309 604 b 493 654 392 644 439 654 b 572 649 524 654 550 652 b 632 629 594 645 614 638 b 683 583 653 618 670 603 b 703 507 696 563 703 538 l 703 0 l 569 0 l 569 513 b 543 592 569 549 561 575 b 454 617 525 608 496 617 b 374 602 425 617 398 612 b 311 563 350 592 329 579 b 276 510 297 549 286 531 b 263 428 267 488 263 461 l 263 0 l 129 0 m 24 978 b 85 953 50 978 71 969 b 106 888 99 936 106 914 b 94 819 106 862 102 839 b 63 768 86 800 76 783 b 19 731 51 753 36 741 b -31 706 3 720 -14 712 l -42 729 b 38 782 -9 742 17 760 b 72 860 58 804 69 830 b 53 845 68 854 61 849 b 21 839 44 841 34 839 b -28 858 0 839 -16 845 b -47 907 -41 870 -47 887 b -28 957 -47 926 -41 943 b 24 978 -15 971 2 978 "},"":{"ha":913,"x_min":0,"x_max":0,"o":"m 810 -99 b 752 -260 810 -174 791 -228 b 599 -310 714 -293 663 -310 b 526 -299 572 -310 548 -306 b 472 -272 505 -292 487 -283 b 434 -235 456 -261 444 -249 b 413 -192 424 -221 417 -206 l 443 -176 b 494 -247 453 -204 470 -228 b 597 -276 519 -267 553 -276 b 727 -235 654 -276 697 -263 b 772 -96 757 -208 772 -162 l 772 -28 l 142 894 l 140 894 l 140 0 l 103 0 l 103 958 l 264 958 l 769 228 l 772 228 l 772 958 l 810 958 "},"":{"ha":739,"x_min":0,"x_max":0,"o":"m 419 -354 b 309 -331 375 -354 338 -346 b 247 -272 280 -315 259 -295 l 275 -254 b 323 -303 284 -273 300 -289 b 417 -325 346 -318 377 -325 b 496 -298 450 -325 476 -316 b 525 -197 515 -280 525 -246 l 525 513 b 499 592 525 549 516 575 b 410 617 481 608 451 617 b 333 603 382 617 356 612 b 274 568 310 595 290 583 b 234 513 258 553 245 535 b 218 428 223 490 218 462 l 218 0 l 85 0 l 85 642 l 215 642 l 215 540 l 218 540 b 306 624 236 575 265 603 b 449 654 347 644 395 654 b 530 649 480 654 507 652 b 589 628 553 645 572 638 b 640 582 610 617 627 601 b 658 507 652 563 658 538 l 658 -126 b 637 -242 658 -174 651 -212 b 574 -315 622 -272 601 -297 b 419 -354 536 -341 484 -354 "},"":{"ha":1092,"x_min":0,"x_max":0,"o":"m 57 479 b 98 685 57 555 71 624 b 208 842 125 746 162 798 b 364 942 253 885 306 919 b 546 978 422 966 483 978 b 728 942 609 978 670 966 b 885 842 787 919 839 885 b 994 685 930 798 966 746 b 1035 479 1021 624 1035 555 b 994 274 1035 404 1021 336 b 885 117 966 213 930 160 b 728 16 839 73 787 40 b 546 -19 670 -8 609 -19 b 364 16 483 -19 422 -8 b 208 117 306 40 253 73 b 98 274 162 160 125 213 b 57 479 71 336 57 404 m 204 479 b 227 287 204 408 212 344 b 294 141 242 230 265 181 b 401 48 323 101 359 70 b 546 15 444 26 492 15 b 690 48 600 15 648 26 b 798 141 733 70 769 101 b 865 287 827 181 849 230 b 888 479 880 344 888 408 b 865 672 888 550 880 615 b 798 817 849 728 827 777 b 690 910 769 858 733 889 b 546 943 648 932 600 943 b 401 910 492 943 444 932 b 294 817 359 889 323 858 b 227 672 265 777 242 728 b 204 479 212 615 204 550 m 729 1147 l 729 1078 l 364 1078 l 364 1147 "},"":{"ha":776,"x_min":0,"x_max":0,"o":"m 389 656 b 519 631 434 656 478 647 b 628 563 560 615 596 592 b 703 458 659 534 684 499 b 732 321 722 416 732 371 b 703 184 732 271 722 225 b 628 78 684 143 659 108 b 519 10 596 49 560 27 b 389 -14 478 -6 434 -14 b 259 10 344 -14 300 -6 b 150 78 218 27 181 49 b 74 184 119 108 93 143 b 46 321 55 225 46 271 b 74 458 46 371 55 416 b 150 563 93 499 119 534 b 259 631 181 592 218 615 b 389 656 300 647 344 656 m 389 626 b 236 542 322 626 271 598 b 183 321 201 486 183 413 b 197 197 183 275 188 234 b 236 101 205 159 219 127 b 301 39 254 74 275 54 b 389 17 326 24 356 17 b 477 39 422 17 452 24 b 542 101 503 54 524 74 b 581 197 559 127 572 159 b 594 321 590 234 594 275 b 542 542 594 413 577 486 b 389 626 506 598 456 626 m 556 903 l 556 835 l 222 835 l 222 903 "},"":{"ha":1092,"x_min":0,"x_max":0,"o":"m 57 479 b 98 685 57 555 71 624 b 208 842 125 746 162 798 b 364 942 253 885 306 919 b 546 978 422 966 483 978 b 728 942 609 978 670 966 b 885 842 787 919 839 885 b 994 685 930 798 966 746 b 1035 479 1021 624 1035 555 b 994 274 1035 404 1021 336 b 885 117 966 213 930 160 b 728 16 839 73 787 40 b 546 -19 670 -8 609 -19 b 364 16 483 -19 422 -8 b 208 117 306 40 253 73 b 98 274 162 160 125 213 b 57 479 71 336 57 404 m 204 479 b 227 287 204 408 212 344 b 294 141 242 230 265 181 b 401 48 323 101 359 70 b 546 15 444 26 492 15 b 690 48 600 15 648 26 b 798 141 733 70 769 101 b 865 287 827 181 849 230 b 888 479 880 344 888 408 b 865 672 888 550 880 615 b 798 817 849 728 827 777 b 690 910 769 858 733 889 b 546 943 648 932 600 943 b 401 910 492 943 444 932 b 294 817 359 889 323 858 b 227 672 265 777 242 728 b 204 479 212 615 204 550 m 547 1047 b 432 1092 498 1047 460 1062 b 381 1218 404 1122 387 1164 l 406 1218 b 455 1151 415 1186 431 1163 b 547 1132 478 1138 509 1132 b 639 1151 585 1132 616 1138 b 688 1218 662 1163 678 1186 l 714 1218 b 662 1092 706 1164 689 1122 b 547 1047 634 1062 596 1047 "},"":{"ha":776,"x_min":0,"x_max":0,"o":"m 389 656 b 519 631 434 656 478 647 b 628 563 560 615 596 592 b 703 458 659 534 684 499 b 732 321 722 416 732 371 b 703 184 732 271 722 225 b 628 78 684 143 659 108 b 519 10 596 49 560 27 b 389 -14 478 -6 434 -14 b 259 10 344 -14 300 -6 b 150 78 218 27 181 49 b 74 184 119 108 93 143 b 46 321 55 225 46 271 b 74 458 46 371 55 416 b 150 563 93 499 119 534 b 259 631 181 592 218 615 b 389 656 300 647 344 656 m 389 626 b 236 542 322 626 271 598 b 183 321 201 486 183 413 b 197 197 183 275 188 234 b 236 101 205 159 219 127 b 301 39 254 74 275 54 b 389 17 326 24 356 17 b 477 39 422 17 452 24 b 542 101 503 54 524 74 b 581 197 559 127 572 159 b 594 321 590 234 594 275 b 542 542 594 413 577 486 b 389 626 506 598 456 626 m 389 774 b 274 824 338 774 300 790 b 225 956 248 857 231 901 l 250 956 b 389 854 268 888 314 854 b 526 956 464 854 510 888 l 553 956 b 503 824 546 901 530 857 b 389 774 477 790 439 774 "},"":{"ha":1092,"x_min":0,"x_max":0,"o":"m 57 479 b 98 685 57 555 71 624 b 208 842 125 746 162 798 b 364 942 253 885 306 919 b 546 978 422 966 483 978 b 728 942 609 978 670 966 b 885 842 787 919 839 885 b 994 685 930 798 966 746 b 1035 479 1021 624 1035 555 b 994 274 1035 404 1021 336 b 885 117 966 213 930 160 b 728 16 839 73 787 40 b 546 -19 670 -8 609 -19 b 364 16 483 -19 422 -8 b 208 117 306 40 253 73 b 98 274 162 160 125 213 b 57 479 71 336 57 404 m 204 479 b 227 287 204 408 212 344 b 294 141 242 230 265 181 b 401 48 323 101 359 70 b 546 15 444 26 492 15 b 690 48 600 15 648 26 b 798 141 733 70 769 101 b 865 287 827 181 849 230 b 888 479 880 344 888 408 b 865 672 888 550 880 615 b 798 817 849 728 827 777 b 690 910 769 858 733 889 b 546 943 648 932 600 943 b 401 910 492 943 444 932 b 294 817 359 889 323 858 b 227 672 265 777 242 728 b 204 479 212 615 204 550 m 453 1044 l 429 1053 l 489 1283 l 586 1240 m 643 1044 l 621 1053 l 679 1283 l 778 1240 "},"":{"ha":776,"x_min":0,"x_max":0,"o":"m 389 656 b 519 631 434 656 478 647 b 628 563 560 615 596 592 b 703 458 659 534 684 499 b 732 321 722 416 732 371 b 703 184 732 271 722 225 b 628 78 684 143 659 108 b 519 10 596 49 560 27 b 389 -14 478 -6 434 -14 b 259 10 344 -14 300 -6 b 150 78 218 27 181 49 b 74 184 119 108 93 143 b 46 321 55 225 46 271 b 74 458 46 371 55 416 b 150 563 93 499 119 534 b 259 631 181 592 218 615 b 389 656 300 647 344 656 m 389 626 b 236 542 322 626 271 598 b 183 321 201 486 183 413 b 197 197 183 275 188 234 b 236 101 205 159 219 127 b 301 39 254 74 275 54 b 389 17 326 24 356 17 b 477 39 422 17 452 24 b 542 101 503 54 524 74 b 581 197 559 127 572 159 b 594 321 590 234 594 275 b 542 542 594 413 577 486 b 389 626 506 598 456 626 m 297 744 l 272 753 l 329 999 l 425 964 m 486 744 l 463 753 l 518 999 l 614 964 "},"":{"ha":1528,"x_min":0,"x_max":0,"o":"m 882 244 b 753 50 854 161 811 96 b 538 -19 694 4 623 -19 b 357 16 475 -19 414 -8 b 205 117 300 40 249 73 b 100 274 161 160 126 213 b 61 479 74 336 61 404 b 100 685 61 555 74 624 b 205 842 126 746 161 798 b 357 942 249 885 300 919 b 538 978 414 966 475 978 b 753 909 624 978 696 955 b 882 715 811 863 854 799 l 882 958 l 1458 958 l 1458 925 l 1022 925 l 1022 519 l 1324 519 l 1324 486 l 1022 486 l 1022 33 l 1490 33 l 1490 0 l 882 0 l 882 244 m 208 479 b 229 287 208 408 215 344 b 292 142 243 230 264 181 b 395 49 319 102 354 71 b 538 17 436 28 484 17 b 682 49 591 17 639 28 b 789 142 725 71 760 102 b 855 287 818 181 840 230 b 878 479 870 344 878 408 b 855 672 878 550 870 615 b 789 817 840 728 818 777 b 682 910 760 858 725 888 b 538 942 639 931 591 942 b 395 910 484 942 436 931 b 292 817 354 888 319 858 b 229 672 264 777 243 728 b 208 479 215 615 208 550 "},"":{"ha":1206,"x_min":0,"x_max":0,"o":"m 1169 171 b 1081 35 1156 113 1126 67 b 906 -14 1035 2 977 -14 b 745 32 842 -13 788 2 b 646 147 702 62 669 100 b 538 29 620 97 584 58 b 382 -14 492 0 440 -14 b 253 10 337 -14 294 -6 b 146 78 212 27 176 49 b 73 184 115 108 91 143 b 46 321 55 225 46 271 b 73 458 46 371 55 416 b 146 563 91 499 115 534 b 253 631 176 592 212 615 b 382 656 294 647 337 656 b 539 613 440 656 493 641 b 647 493 585 584 621 544 b 743 610 670 541 702 580 b 883 656 784 641 831 656 b 1079 585 966 656 1031 632 b 1151 379 1127 538 1151 469 l 714 379 b 713 350 713 370 713 360 l 713 321 b 722 207 713 281 716 243 b 754 111 728 171 738 139 b 819 44 770 83 791 61 b 922 19 846 28 881 19 b 1071 63 987 19 1037 33 b 1142 178 1105 93 1129 131 l 1169 171 m 382 626 b 233 542 315 626 266 598 b 183 321 200 486 183 413 b 196 197 183 275 188 234 b 233 101 204 159 216 127 b 294 40 249 74 269 54 b 382 18 319 25 349 18 b 469 40 415 18 444 25 b 531 101 494 54 515 74 b 568 197 547 127 560 159 b 581 321 576 234 581 275 b 531 542 581 413 564 486 b 382 626 498 598 449 626 m 883 626 b 771 568 836 626 799 607 b 717 408 743 529 725 476 l 1031 408 b 996 575 1030 485 1018 541 b 883 626 974 609 936 626 "},"":{"ha":843,"x_min":0,"x_max":0,"o":"m 381 958 b 544 941 444 958 499 953 b 655 891 590 929 627 913 b 717 813 683 869 704 843 b 736 708 730 782 736 747 b 715 615 736 673 729 642 b 656 546 700 588 681 565 b 570 499 632 526 603 511 b 467 475 537 487 503 479 l 467 472 b 621 410 530 465 581 444 b 713 249 661 375 691 322 b 730 198 716 238 722 221 b 757 126 738 175 747 151 b 788 53 767 101 778 77 b 819 0 799 30 809 12 l 668 0 b 616 101 648 28 630 62 b 579 224 602 141 589 182 b 548 335 569 268 559 305 b 510 409 537 366 525 390 b 457 449 496 428 478 441 b 378 461 436 457 409 461 l 244 461 l 244 0 l 103 0 l 103 958 l 381 958 m 393 494 b 539 543 454 494 503 511 b 593 707 575 575 593 630 b 583 808 593 747 590 781 b 547 876 576 836 564 859 b 479 915 529 894 507 907 b 375 926 451 922 417 926 l 244 926 l 244 494 m 274 1050 l 521 1219 l 571 1125 l 283 1028 "},"":{"ha":519,"x_min":0,"x_max":0,"o":"m 214 642 l 214 542 l 218 542 b 283 624 231 577 253 604 b 379 654 313 644 345 654 b 465 628 417 654 446 645 b 501 557 485 610 497 587 l 469 550 b 440 608 464 577 454 596 b 378 625 425 619 405 625 b 307 602 350 625 326 617 b 258 554 288 587 271 571 b 228 497 245 538 235 519 b 218 426 222 474 218 450 l 218 0 l 85 0 l 85 642 m 182 789 l 419 967 l 471 874 l 192 768 "},"":{"ha":843,"x_min":0,"x_max":0,"o":"m 381 958 b 544 941 444 958 499 953 b 655 891 590 929 627 913 b 717 813 683 869 704 843 b 736 708 730 782 736 747 b 715 615 736 673 729 642 b 656 546 700 588 681 565 b 570 499 632 526 603 511 b 467 475 537 487 503 479 l 467 472 b 621 410 530 465 581 444 b 713 249 661 375 691 322 b 730 198 716 238 722 221 b 757 126 738 175 747 151 b 788 53 767 101 778 77 b 819 0 799 30 809 12 l 668 0 b 616 101 648 28 630 62 b 579 224 602 141 589 182 b 548 335 569 268 559 305 b 510 409 537 366 525 390 b 457 449 496 428 478 441 b 378 461 436 457 409 461 l 244 461 l 244 0 l 103 0 l 103 958 l 381 958 m 393 494 b 539 543 454 494 503 511 b 593 707 575 575 593 630 b 583 808 593 747 590 781 b 547 876 576 836 564 859 b 479 915 529 894 507 907 b 375 926 451 922 417 926 l 244 926 l 244 494 m 371 -262 b 434 -225 397 -253 418 -241 b 460 -174 450 -209 459 -192 b 444 -185 455 -178 450 -182 b 422 -189 439 -187 431 -189 b 383 -174 406 -189 394 -184 b 368 -136 373 -165 368 -152 b 384 -96 368 -120 373 -107 b 428 -79 395 -85 409 -79 b 477 -99 450 -79 466 -86 b 493 -151 488 -113 493 -130 b 458 -240 493 -190 481 -220 b 381 -286 435 -261 409 -276 l 371 -262 "},"":{"ha":519,"x_min":0,"x_max":0,"o":"m 214 642 l 214 542 l 218 542 b 283 624 231 577 253 604 b 379 654 313 644 345 654 b 465 628 417 654 446 645 b 501 557 485 610 497 587 l 469 550 b 440 608 464 577 454 596 b 378 625 425 619 405 625 b 307 602 350 625 326 617 b 258 554 288 587 271 571 b 228 497 245 538 235 519 b 218 426 222 474 218 450 l 218 0 l 85 0 l 85 642 m 83 -262 b 147 -225 109 -253 130 -241 b 172 -174 163 -209 171 -192 b 157 -185 168 -178 163 -182 b 135 -189 151 -187 144 -189 b 96 -174 119 -189 106 -184 b 81 -136 86 -165 81 -152 b 97 -96 81 -120 86 -107 b 140 -79 107 -85 122 -79 b 190 -99 163 -79 179 -86 b 206 -151 200 -113 206 -130 b 171 -240 206 -190 194 -220 b 93 -286 148 -261 122 -276 l 83 -262 "},"":{"ha":843,"x_min":0,"x_max":0,"o":"m 381 958 b 544 941 444 958 499 953 b 655 891 590 929 627 913 b 717 813 683 869 704 843 b 736 708 730 782 736 747 b 715 615 736 673 729 642 b 656 546 700 588 681 565 b 570 499 632 526 603 511 b 467 475 537 487 503 479 l 467 472 b 621 410 530 465 581 444 b 713 249 661 375 691 322 b 730 198 716 238 722 221 b 757 126 738 175 747 151 b 788 53 767 101 778 77 b 819 0 799 30 809 12 l 668 0 b 616 101 648 28 630 62 b 579 224 602 141 589 182 b 548 335 569 268 559 305 b 510 409 537 366 525 390 b 457 449 496 428 478 441 b 378 461 436 457 409 461 l 244 461 l 244 0 l 103 0 l 103 958 l 381 958 m 393 494 b 539 543 454 494 503 511 b 593 707 575 575 593 630 b 583 808 593 747 590 781 b 547 876 576 836 564 859 b 479 915 529 894 507 907 b 375 926 451 922 417 926 l 244 926 l 244 494 m 593 1210 l 429 1051 l 383 1051 l 221 1210 l 236 1225 l 407 1136 l 578 1225 "},"":{"ha":519,"x_min":0,"x_max":0,"o":"m 214 642 l 214 542 l 218 542 b 283 624 231 577 253 604 b 379 654 313 644 345 654 b 465 628 417 654 446 645 b 501 557 485 610 497 587 l 469 550 b 440 608 464 577 454 596 b 378 625 425 619 405 625 b 307 602 350 625 326 617 b 258 554 288 587 271 571 b 228 497 245 538 235 519 b 218 426 222 474 218 450 l 218 0 l 85 0 l 85 642 m 117 956 l 135 968 l 296 851 l 457 968 l 475 956 l 318 767 l 272 767 "},"":{"ha":810,"x_min":0,"x_max":0,"o":"m 417 -19 b 288 1 370 -19 328 -12 b 184 61 249 15 214 35 b 110 155 154 87 129 118 b 74 278 90 191 78 232 l 110 282 b 144 169 115 240 127 203 b 210 85 161 136 183 108 b 303 32 238 62 269 44 b 417 14 338 20 376 14 b 528 29 460 14 497 19 b 602 72 558 39 583 53 b 644 134 621 90 635 110 b 657 211 653 158 657 183 b 640 294 657 244 651 272 b 590 351 629 317 612 336 b 502 393 567 367 538 381 b 376 428 466 405 425 417 b 256 467 331 439 291 452 b 168 522 222 481 192 500 b 113 603 144 544 126 572 b 94 718 101 635 94 674 b 118 821 94 755 102 789 b 182 903 134 852 155 880 b 275 958 209 926 240 944 b 385 978 310 971 347 978 b 492 966 424 978 459 974 b 580 924 525 958 554 944 b 644 844 605 904 627 878 b 683 714 662 810 675 767 l 649 710 b 614 823 640 755 629 793 b 559 895 599 853 581 877 b 483 933 537 913 512 926 b 385 944 455 941 422 944 b 308 933 358 944 332 941 b 244 899 284 925 263 914 b 201 847 226 885 211 867 b 185 778 190 826 185 803 b 199 698 185 746 189 720 b 242 642 208 676 222 657 b 316 601 261 626 286 613 b 424 571 346 590 382 580 b 563 532 475 560 522 547 b 665 477 603 517 638 499 b 729 398 693 455 714 429 b 751 285 744 367 751 329 b 731 172 751 246 745 208 b 669 74 718 135 697 103 b 565 6 642 46 607 23 b 417 -19 522 -11 473 -19 m 274 1050 l 521 1219 l 571 1125 l 283 1028 "},"":{"ha":588,"x_min":0,"x_max":0,"o":"m 78 189 b 109 107 84 156 95 129 b 160 53 123 85 140 67 b 223 24 179 40 200 30 b 293 15 246 18 269 15 b 369 26 323 15 348 19 b 422 53 391 33 408 42 b 451 92 435 64 445 77 b 461 138 458 106 461 122 b 450 192 461 160 457 178 b 416 229 443 207 431 219 b 357 255 401 239 381 248 b 269 276 333 262 304 269 b 192 297 243 282 217 289 b 126 330 167 304 145 316 b 81 385 107 344 92 363 b 64 469 69 407 64 435 b 81 542 64 495 69 520 b 127 601 92 565 107 585 b 197 641 147 618 170 631 b 285 656 224 651 253 656 b 430 612 350 656 398 641 b 497 488 462 583 484 541 l 467 481 b 409 590 455 529 435 565 b 286 628 383 615 342 628 b 188 599 245 628 213 618 b 150 522 163 579 150 554 b 160 476 150 504 153 488 b 190 443 166 463 176 452 b 241 420 203 434 220 426 b 317 401 262 414 287 408 b 411 377 351 394 382 386 b 485 342 440 368 464 357 b 532 288 505 328 521 310 b 549 204 543 265 549 238 b 533 125 549 177 544 151 b 487 55 523 99 508 76 b 408 5 466 34 440 17 b 294 -14 376 -8 338 -14 b 213 -3 267 -14 239 -10 b 139 31 186 3 161 15 b 81 92 117 46 97 67 b 47 182 65 117 54 147 l 78 189 m 169 789 l 407 967 l 458 874 l 179 768 "},"":{"ha":810,"x_min":0,"x_max":0,"o":"m 417 -19 b 288 1 370 -19 328 -12 b 184 61 249 15 214 35 b 110 155 154 87 129 118 b 74 278 90 191 78 232 l 110 282 b 144 169 115 240 127 203 b 210 85 161 136 183 108 b 303 32 238 62 269 44 b 417 14 338 20 376 14 b 528 29 460 14 497 19 b 602 72 558 39 583 53 b 644 134 621 90 635 110 b 657 211 653 158 657 183 b 640 294 657 244 651 272 b 590 351 629 317 612 336 b 502 393 567 367 538 381 b 376 428 466 405 425 417 b 256 467 331 439 291 452 b 168 522 222 481 192 500 b 113 603 144 544 126 572 b 94 718 101 635 94 674 b 118 821 94 755 102 789 b 182 903 134 852 155 880 b 275 958 209 926 240 944 b 385 978 310 971 347 978 b 492 966 424 978 459 974 b 580 924 525 958 554 944 b 644 844 605 904 627 878 b 683 714 662 810 675 767 l 649 710 b 614 823 640 755 629 793 b 559 895 599 853 581 877 b 483 933 537 913 512 926 b 385 944 455 941 422 944 b 308 933 358 944 332 941 b 244 899 284 925 263 914 b 201 847 226 885 211 867 b 185 778 190 826 185 803 b 199 698 185 746 189 720 b 242 642 208 676 222 657 b 316 601 261 626 286 613 b 424 571 346 590 382 580 b 563 532 475 560 522 547 b 665 477 603 517 638 499 b 729 398 693 455 714 429 b 751 285 744 367 751 329 b 731 172 751 246 745 208 b 669 74 718 135 697 103 b 565 6 642 46 607 23 b 417 -19 522 -11 473 -19 m 221 1057 l 383 1217 l 429 1217 l 593 1057 l 578 1043 l 407 1131 l 236 1043 "},"":{"ha":588,"x_min":0,"x_max":0,"o":"m 78 189 b 109 107 84 156 95 129 b 160 53 123 85 140 67 b 223 24 179 40 200 30 b 293 15 246 18 269 15 b 369 26 323 15 348 19 b 422 53 391 33 408 42 b 451 92 435 64 445 77 b 461 138 458 106 461 122 b 450 192 461 160 457 178 b 416 229 443 207 431 219 b 357 255 401 239 381 248 b 269 276 333 262 304 269 b 192 297 243 282 217 289 b 126 330 167 304 145 316 b 81 385 107 344 92 363 b 64 469 69 407 64 435 b 81 542 64 495 69 520 b 127 601 92 565 107 585 b 197 641 147 618 170 631 b 285 656 224 651 253 656 b 430 612 350 656 398 641 b 497 488 462 583 484 541 l 467 481 b 409 590 455 529 435 565 b 286 628 383 615 342 628 b 188 599 245 628 213 618 b 150 522 163 579 150 554 b 160 476 150 504 153 488 b 190 443 166 463 176 452 b 241 420 203 434 220 426 b 317 401 262 414 287 408 b 411 377 351 394 382 386 b 485 342 440 368 464 357 b 532 288 505 328 521 310 b 549 204 543 265 549 238 b 533 125 549 177 544 151 b 487 55 523 99 508 76 b 408 5 466 34 440 17 b 294 -14 376 -8 338 -14 b 213 -3 267 -14 239 -10 b 139 31 186 3 161 15 b 81 92 117 46 97 67 b 47 182 65 117 54 147 l 78 189 m 110 774 l 265 963 l 311 963 l 468 774 l 450 761 l 289 876 l 128 761 "},"":{"ha":810,"x_min":0,"x_max":0,"o":"m 417 -19 b 288 1 370 -19 328 -12 b 184 61 249 15 214 35 b 110 155 154 87 129 118 b 74 278 90 191 78 232 l 110 282 b 144 169 115 240 127 203 b 210 85 161 136 183 108 b 303 32 238 62 269 44 b 417 14 338 20 376 14 b 528 29 460 14 497 19 b 602 72 558 39 583 53 b 644 134 621 90 635 110 b 657 211 653 158 657 183 b 640 294 657 244 651 272 b 590 351 629 317 612 336 b 502 393 567 367 538 381 b 376 428 466 405 425 417 b 256 467 331 439 291 452 b 168 522 222 481 192 500 b 113 603 144 544 126 572 b 94 718 101 635 94 674 b 118 821 94 755 102 789 b 182 903 134 852 155 880 b 275 958 209 926 240 944 b 385 978 310 971 347 978 b 492 966 424 978 459 974 b 580 924 525 958 554 944 b 644 844 605 904 627 878 b 683 714 662 810 675 767 l 649 710 b 614 823 640 755 629 793 b 559 895 599 853 581 877 b 483 933 537 913 512 926 b 385 944 455 941 422 944 b 308 933 358 944 332 941 b 244 899 284 925 263 914 b 201 847 226 885 211 867 b 185 778 190 826 185 803 b 199 698 185 746 189 720 b 242 642 208 676 222 657 b 316 601 261 626 286 613 b 424 571 346 590 382 580 b 563 532 475 560 522 547 b 665 477 603 517 638 499 b 729 398 693 455 714 429 b 751 285 744 367 751 329 b 731 172 751 246 745 208 b 669 74 718 135 697 103 b 565 6 642 46 607 23 b 417 -19 522 -11 473 -19 m 344 -93 b 397 -82 359 -86 377 -82 b 479 -105 431 -82 459 -90 b 510 -169 500 -120 510 -142 b 470 -237 510 -199 497 -222 b 372 -260 444 -252 411 -260 b 297 -244 343 -260 317 -255 b 249 -210 276 -234 260 -223 l 265 -192 b 304 -222 275 -204 288 -214 b 356 -233 321 -229 338 -233 b 432 -169 406 -233 432 -212 b 371 -110 432 -130 412 -110 b 321 -122 350 -110 334 -114 l 307 -104 l 368 -3 l 400 -3 "},"":{"ha":588,"x_min":0,"x_max":0,"o":"m 78 189 b 109 107 84 156 95 129 b 160 53 123 85 140 67 b 223 24 179 40 200 30 b 293 15 246 18 269 15 b 369 26 323 15 348 19 b 422 53 391 33 408 42 b 451 92 435 64 445 77 b 461 138 458 106 461 122 b 450 192 461 160 457 178 b 416 229 443 207 431 219 b 357 255 401 239 381 248 b 269 276 333 262 304 269 b 192 297 243 282 217 289 b 126 330 167 304 145 316 b 81 385 107 344 92 363 b 64 469 69 407 64 435 b 81 542 64 495 69 520 b 127 601 92 565 107 585 b 197 641 147 618 170 631 b 285 656 224 651 253 656 b 430 612 350 656 398 641 b 497 488 462 583 484 541 l 467 481 b 409 590 455 529 435 565 b 286 628 383 615 342 628 b 188 599 245 628 213 618 b 150 522 163 579 150 554 b 160 476 150 504 153 488 b 190 443 166 463 176 452 b 241 420 203 434 220 426 b 317 401 262 414 287 408 b 411 377 351 394 382 386 b 485 342 440 368 464 357 b 532 288 505 328 521 310 b 549 204 543 265 549 238 b 533 125 549 177 544 151 b 487 55 523 99 508 76 b 408 5 466 34 440 17 b 294 -14 376 -8 338 -14 b 213 -3 267 -14 239 -10 b 139 31 186 3 161 15 b 81 92 117 46 97 67 b 47 182 65 117 54 147 l 78 189 m 235 -90 b 288 -79 250 -83 267 -79 b 369 -102 322 -79 349 -87 b 400 -167 390 -117 400 -139 b 360 -234 400 -196 387 -219 b 263 -257 334 -249 301 -257 b 187 -242 233 -257 208 -252 b 139 -207 166 -231 150 -220 l 156 -189 b 194 -219 165 -201 178 -211 b 246 -231 211 -227 228 -231 b 322 -167 297 -231 322 -209 b 261 -107 322 -127 302 -107 b 211 -119 241 -107 224 -111 l 197 -101 l 258 0 l 290 0 "},"":{"ha":810,"x_min":0,"x_max":0,"o":"m 417 -19 b 288 1 370 -19 328 -12 b 184 61 249 15 214 35 b 110 155 154 87 129 118 b 74 278 90 191 78 232 l 110 282 b 144 169 115 240 127 203 b 210 85 161 136 183 108 b 303 32 238 62 269 44 b 417 14 338 20 376 14 b 528 29 460 14 497 19 b 602 72 558 39 583 53 b 644 134 621 90 635 110 b 657 211 653 158 657 183 b 640 294 657 244 651 272 b 590 351 629 317 612 336 b 502 393 567 367 538 381 b 376 428 466 405 425 417 b 256 467 331 439 291 452 b 168 522 222 481 192 500 b 113 603 144 544 126 572 b 94 718 101 635 94 674 b 118 821 94 755 102 789 b 182 903 134 852 155 880 b 275 958 209 926 240 944 b 385 978 310 971 347 978 b 492 966 424 978 459 974 b 580 924 525 958 554 944 b 644 844 605 904 627 878 b 683 714 662 810 675 767 l 649 710 b 614 823 640 755 629 793 b 559 895 599 853 581 877 b 483 933 537 913 512 926 b 385 944 455 941 422 944 b 308 933 358 944 332 941 b 244 899 284 925 263 914 b 201 847 226 885 211 867 b 185 778 190 826 185 803 b 199 698 185 746 189 720 b 242 642 208 676 222 657 b 316 601 261 626 286 613 b 424 571 346 590 382 580 b 563 532 475 560 522 547 b 665 477 603 517 638 499 b 729 398 693 455 714 429 b 751 285 744 367 751 329 b 731 172 751 246 745 208 b 669 74 718 135 697 103 b 565 6 642 46 607 23 b 417 -19 522 -11 473 -19 m 592 1210 l 428 1051 l 382 1051 l 219 1210 l 235 1225 l 406 1136 l 576 1225 "},"":{"ha":588,"x_min":0,"x_max":0,"o":"m 78 189 b 109 107 84 156 95 129 b 160 53 123 85 140 67 b 223 24 179 40 200 30 b 293 15 246 18 269 15 b 369 26 323 15 348 19 b 422 53 391 33 408 42 b 451 92 435 64 445 77 b 461 138 458 106 461 122 b 450 192 461 160 457 178 b 416 229 443 207 431 219 b 357 255 401 239 381 248 b 269 276 333 262 304 269 b 192 297 243 282 217 289 b 126 330 167 304 145 316 b 81 385 107 344 92 363 b 64 469 69 407 64 435 b 81 542 64 495 69 520 b 127 601 92 565 107 585 b 197 641 147 618 170 631 b 285 656 224 651 253 656 b 430 612 350 656 398 641 b 497 488 462 583 484 541 l 467 481 b 409 590 455 529 435 565 b 286 628 383 615 342 628 b 188 599 245 628 213 618 b 150 522 163 579 150 554 b 160 476 150 504 153 488 b 190 443 166 463 176 452 b 241 420 203 434 220 426 b 317 401 262 414 287 408 b 411 377 351 394 382 386 b 485 342 440 368 464 357 b 532 288 505 328 521 310 b 549 204 543 265 549 238 b 533 125 549 177 544 151 b 487 55 523 99 508 76 b 408 5 466 34 440 17 b 294 -14 376 -8 338 -14 b 213 -3 267 -14 239 -10 b 139 31 186 3 161 15 b 81 92 117 46 97 67 b 47 182 65 117 54 147 l 78 189 m 107 956 l 125 968 l 286 851 l 447 968 l 465 956 l 308 767 l 263 767 "},"":{"ha":821,"x_min":0,"x_max":0,"o":"m 349 0 l 349 925 l 22 925 l 22 958 l 817 958 l 817 925 l 490 925 l 490 0 m 351 -262 b 415 -225 377 -253 398 -241 b 440 -174 431 -209 439 -192 b 425 -185 436 -178 431 -182 b 403 -189 419 -187 412 -189 b 364 -174 387 -189 374 -184 b 349 -136 354 -165 349 -152 b 365 -96 349 -120 354 -107 b 408 -79 375 -85 390 -79 b 458 -99 431 -79 447 -86 b 474 -151 468 -113 474 -130 b 439 -240 474 -190 462 -220 b 361 -286 416 -261 390 -276 l 351 -262 "},"":{"ha":457,"x_min":0,"x_max":0,"o":"m 449 51 b 386 8 437 37 416 22 b 272 -12 356 -6 319 -12 b 153 21 221 -12 182 -1 b 111 118 125 43 111 75 l 111 613 l 22 613 l 22 642 l 111 642 l 111 808 l 244 808 l 244 642 l 424 642 l 424 613 l 244 613 l 244 106 b 266 41 244 73 252 52 b 325 25 280 30 300 25 b 388 38 348 25 369 29 b 433 69 407 47 422 57 l 449 51 m 196 -262 b 259 -225 222 -253 243 -241 b 285 -174 275 -209 284 -192 b 269 -185 280 -178 275 -182 b 247 -189 264 -187 256 -189 b 208 -174 231 -189 219 -184 b 193 -136 198 -165 193 -152 b 209 -96 193 -120 198 -107 b 253 -79 220 -85 234 -79 b 302 -99 275 -79 291 -86 b 318 -151 313 -113 318 -130 b 283 -240 318 -190 306 -220 b 206 -286 260 -261 234 -276 l 196 -262 "},"":{"ha":821,"x_min":0,"x_max":0,"o":"m 349 0 l 349 925 l 22 925 l 22 958 l 817 958 l 817 925 l 490 925 l 490 0 m 597 1210 l 433 1051 l 388 1051 l 225 1210 l 240 1225 l 411 1136 l 582 1225 "},"":{"ha":457,"x_min":0,"x_max":0,"o":"m 449 51 b 386 8 437 37 416 22 b 272 -12 356 -6 319 -12 b 153 21 221 -12 182 -1 b 111 118 125 43 111 75 l 111 613 l 22 613 l 22 642 l 111 642 l 111 808 l 244 808 l 244 642 l 424 642 l 424 613 l 244 613 l 244 106 b 266 41 244 73 252 52 b 325 25 280 30 300 25 b 388 38 348 25 369 29 b 433 69 407 47 422 57 l 449 51 m 331 783 l 365 1017 l 444 1000 l 349 778 "},"":{"ha":838,"x_min":0,"x_max":0,"o":"m 490 0 l 349 0 l 349 510 l 143 510 l 143 543 l 349 543 l 349 925 l 22 925 l 22 958 l 817 958 l 817 925 l 490 925 l 490 543 l 693 543 l 693 510 l 490 510 "},"":{"ha":464,"x_min":0,"x_max":0,"o":"m 454 51 b 391 8 442 37 421 22 b 276 -12 361 -6 323 -12 b 159 21 226 -12 187 -1 b 117 118 131 43 117 75 l 117 399 l 28 399 l 28 428 l 117 428 l 117 613 l 28 613 l 28 642 l 117 642 l 117 800 l 250 804 l 250 642 l 428 642 l 428 613 l 250 613 l 250 428 l 428 428 l 428 399 l 250 399 l 250 106 b 271 41 250 73 257 52 b 331 25 285 30 305 25 b 393 38 354 25 375 29 b 439 69 412 47 427 57 l 454 51 "},"":{"ha":939,"x_min":0,"x_max":0,"o":"m 847 310 b 754 64 847 200 816 119 b 492 -18 692 9 605 -18 b 326 0 431 -18 375 -12 b 201 58 277 12 235 31 b 120 160 166 84 139 118 b 92 313 101 201 92 252 l 92 958 l 233 958 l 233 307 b 303 90 233 209 256 137 b 511 21 349 44 419 21 b 729 94 604 21 676 45 b 808 317 782 144 808 218 l 808 958 l 847 958 m 296 1039 b 350 1143 312 1083 330 1118 b 436 1181 370 1168 399 1181 b 481 1175 450 1181 465 1179 b 530 1162 497 1171 514 1167 b 578 1149 546 1157 562 1152 b 625 1143 595 1145 610 1143 b 672 1153 643 1143 658 1147 b 711 1203 686 1160 699 1177 l 733 1196 b 683 1093 720 1153 704 1119 b 599 1054 663 1067 635 1054 b 553 1060 585 1054 570 1056 b 505 1073 537 1063 521 1068 b 456 1086 489 1078 472 1082 b 410 1092 440 1090 425 1092 b 359 1081 391 1092 374 1088 b 318 1031 344 1073 330 1056 l 296 1039 "},"":{"ha":733,"x_min":0,"x_max":0,"o":"m 651 0 l 521 0 l 521 96 l 518 96 b 433 16 501 63 473 36 b 292 -14 392 -4 345 -14 b 154 14 231 -14 186 -5 b 103 62 133 25 116 41 b 83 139 90 83 83 108 l 83 642 l 215 642 l 215 131 b 243 50 215 94 225 67 b 331 25 262 33 291 25 b 408 39 358 25 384 30 b 468 75 431 48 451 60 b 505 128 483 89 495 106 b 519 210 515 149 519 176 l 519 642 l 651 642 m 160 796 b 215 901 175 840 194 875 b 294 940 237 927 263 940 b 338 934 308 940 323 938 b 384 920 353 930 369 925 b 430 906 399 915 415 910 b 474 900 445 902 460 900 b 522 913 491 900 507 904 b 560 961 536 921 549 937 l 582 956 b 531 853 569 914 552 880 b 454 813 509 826 484 813 b 409 819 439 813 424 815 b 363 832 394 823 378 827 b 318 845 348 837 333 841 b 274 851 303 849 288 851 b 223 838 254 851 237 847 b 182 789 209 829 195 813 l 160 796 "},"":{"ha":939,"x_min":0,"x_max":0,"o":"m 847 310 b 754 64 847 200 816 119 b 492 -18 692 9 605 -18 b 326 0 431 -18 375 -12 b 201 58 277 12 235 31 b 120 160 166 84 139 118 b 92 313 101 201 92 252 l 92 958 l 233 958 l 233 307 b 303 90 233 209 256 137 b 511 21 349 44 419 21 b 729 94 604 21 676 45 b 808 317 782 144 808 218 l 808 958 l 847 958 m 686 1147 l 686 1078 l 321 1078 l 321 1147 "},"":{"ha":733,"x_min":0,"x_max":0,"o":"m 651 0 l 521 0 l 521 96 l 518 96 b 433 16 501 63 473 36 b 292 -14 392 -4 345 -14 b 154 14 231 -14 186 -5 b 103 62 133 25 116 41 b 83 139 90 83 83 108 l 83 642 l 215 642 l 215 131 b 243 50 215 94 225 67 b 331 25 262 33 291 25 b 408 39 358 25 384 30 b 468 75 431 48 451 60 b 505 128 483 89 495 106 b 519 210 515 149 519 176 l 519 642 l 651 642 m 533 903 l 533 835 l 200 835 l 200 903 "},"":{"ha":939,"x_min":0,"x_max":0,"o":"m 847 310 b 754 64 847 200 816 119 b 492 -18 692 9 605 -18 b 326 0 431 -18 375 -12 b 201 58 277 12 235 31 b 120 160 166 84 139 118 b 92 313 101 201 92 252 l 92 958 l 233 958 l 233 307 b 303 90 233 209 256 137 b 511 21 349 44 419 21 b 729 94 604 21 676 45 b 808 317 782 144 808 218 l 808 958 l 847 958 m 506 1047 b 390 1092 456 1047 418 1062 b 339 1218 363 1122 345 1164 l 364 1218 b 413 1151 373 1186 390 1163 b 506 1132 437 1138 468 1132 b 597 1151 544 1132 574 1138 b 646 1218 620 1163 637 1186 l 672 1218 b 620 1092 665 1164 647 1122 b 506 1047 593 1062 555 1047 "},"":{"ha":733,"x_min":0,"x_max":0,"o":"m 651 0 l 521 0 l 521 96 l 518 96 b 433 16 501 63 473 36 b 292 -14 392 -4 345 -14 b 154 14 231 -14 186 -5 b 103 62 133 25 116 41 b 83 139 90 83 83 108 l 83 642 l 215 642 l 215 131 b 243 50 215 94 225 67 b 331 25 262 33 291 25 b 408 39 358 25 384 30 b 468 75 431 48 451 60 b 505 128 483 89 495 106 b 519 210 515 149 519 176 l 519 642 l 651 642 m 367 774 b 251 824 316 774 277 790 b 203 956 225 857 209 901 l 228 956 b 367 854 245 888 292 854 b 504 956 442 854 488 888 l 531 956 b 481 824 524 901 508 857 b 367 774 455 790 417 774 "},"":{"ha":939,"x_min":0,"x_max":0,"o":"m 847 310 b 754 64 847 200 816 119 b 492 -18 692 9 605 -18 b 326 0 431 -18 375 -12 b 201 58 277 12 235 31 b 120 160 166 84 139 118 b 92 313 101 201 92 252 l 92 958 l 233 958 l 233 307 b 303 90 233 209 256 137 b 511 21 349 44 419 21 b 729 94 604 21 676 45 b 808 317 782 144 808 218 l 808 958 l 847 958 m 635 1104 b 599 1022 635 1069 623 1042 b 519 993 576 1003 549 993 b 440 1022 490 993 463 1003 b 406 1104 417 1042 406 1069 b 440 1186 406 1139 417 1167 b 519 1215 463 1206 490 1215 b 599 1186 549 1215 576 1206 b 635 1104 623 1167 635 1139 m 450 1104 b 468 1040 450 1077 456 1056 b 519 1015 480 1023 497 1015 b 572 1040 543 1015 560 1023 b 589 1104 583 1056 589 1077 b 572 1169 589 1131 583 1153 b 519 1193 560 1185 543 1193 b 468 1169 497 1193 480 1185 b 450 1104 456 1153 450 1131 "},"":{"ha":733,"x_min":0,"x_max":0,"o":"m 651 0 l 521 0 l 521 96 l 518 96 b 433 16 501 63 473 36 b 292 -14 392 -4 345 -14 b 154 14 231 -14 186 -5 b 103 62 133 25 116 41 b 83 139 90 83 83 108 l 83 642 l 215 642 l 215 131 b 243 50 215 94 225 67 b 331 25 262 33 291 25 b 408 39 358 25 384 30 b 468 75 431 48 451 60 b 505 128 483 89 495 106 b 519 210 515 149 519 176 l 519 642 l 651 642 m 482 874 b 472 826 482 856 479 840 b 447 791 466 813 457 801 b 410 769 436 781 424 774 b 367 761 396 764 381 761 b 324 769 352 761 338 764 b 287 791 310 774 297 781 b 261 826 276 801 268 813 b 251 874 255 840 251 856 b 287 956 251 908 263 935 b 367 986 310 976 337 986 b 447 956 396 986 423 976 b 482 874 470 935 482 908 m 297 874 b 315 808 297 847 303 825 b 367 783 326 792 344 783 b 419 808 390 783 407 792 b 436 874 430 825 436 847 b 419 939 436 900 430 922 b 367 964 407 956 390 964 b 315 939 344 964 326 956 b 297 874 303 922 297 900 "},"":{"ha":939,"x_min":0,"x_max":0,"o":"m 847 310 b 754 64 847 200 816 119 b 492 -18 692 9 605 -18 b 326 0 431 -18 375 -12 b 201 58 277 12 235 31 b 120 160 166 84 139 118 b 92 313 101 201 92 252 l 92 958 l 233 958 l 233 307 b 303 90 233 209 256 137 b 511 21 349 44 419 21 b 729 94 604 21 676 45 b 808 317 782 144 808 218 l 808 958 l 847 958 m 407 1044 l 383 1053 l 443 1283 l 540 1240 m 597 1044 l 575 1053 l 633 1283 l 732 1240 "},"":{"ha":733,"x_min":0,"x_max":0,"o":"m 651 0 l 521 0 l 521 96 l 518 96 b 433 16 501 63 473 36 b 292 -14 392 -4 345 -14 b 154 14 231 -14 186 -5 b 103 62 133 25 116 41 b 83 139 90 83 83 108 l 83 642 l 215 642 l 215 131 b 243 50 215 94 225 67 b 331 25 262 33 291 25 b 408 39 358 25 384 30 b 468 75 431 48 451 60 b 505 128 483 89 495 106 b 519 210 515 149 519 176 l 519 642 l 651 642 m 278 744 l 253 753 l 310 999 l 406 964 m 467 744 l 443 753 l 499 999 l 594 964 "},"":{"ha":939,"x_min":0,"x_max":0,"o":"m 663 -304 b 617 -346 653 -320 638 -334 b 538 -364 597 -358 570 -364 b 438 -332 498 -364 464 -353 b 397 -243 411 -311 397 -281 b 417 -172 397 -217 404 -193 b 467 -110 430 -150 447 -129 b 538 -54 488 -90 512 -72 b 615 -3 563 -37 589 -19 b 556 -14 596 -7 576 -11 b 492 -18 535 -17 514 -18 b 326 0 431 -18 375 -12 b 201 58 277 12 235 31 b 120 160 166 84 139 118 b 92 313 101 201 92 252 l 92 958 l 233 958 l 233 307 b 303 90 233 209 256 137 b 511 21 349 44 419 21 b 729 94 604 21 676 45 b 808 317 782 144 808 218 l 808 958 l 847 958 l 847 310 b 711 35 847 179 802 88 b 631 -22 683 17 657 -2 b 565 -86 606 -41 584 -63 b 521 -160 547 -109 532 -134 b 504 -244 510 -187 504 -215 b 522 -310 504 -273 510 -295 b 571 -333 534 -326 550 -333 b 614 -322 587 -333 601 -329 b 646 -290 627 -314 638 -303 l 663 -304 "},"":{"ha":735,"x_min":0,"x_max":0,"o":"m 392 -243 b 413 -168 392 -216 399 -191 b 466 -104 426 -145 444 -124 b 536 -49 488 -85 511 -66 b 607 0 561 -32 585 -16 l 521 0 l 521 96 l 518 96 b 433 16 501 63 473 36 b 292 -14 392 -4 345 -14 b 154 14 231 -14 186 -5 b 103 62 133 25 116 41 b 83 139 90 83 83 108 l 83 642 l 215 642 l 215 131 b 243 50 215 94 225 67 b 331 25 262 33 291 25 b 408 39 358 25 384 30 b 468 75 431 48 451 60 b 505 128 483 89 495 106 b 519 210 515 149 519 176 l 519 642 l 651 642 l 651 0 l 640 0 b 589 -47 623 -14 606 -30 b 544 -105 572 -65 557 -84 b 511 -172 530 -126 519 -148 b 499 -244 503 -195 499 -219 b 517 -310 499 -273 505 -295 b 565 -333 529 -326 545 -333 b 608 -322 581 -333 595 -329 b 640 -290 621 -314 632 -303 l 657 -304 b 612 -346 648 -320 633 -334 b 532 -364 591 -358 564 -364 b 432 -332 492 -364 459 -353 b 392 -243 405 -311 392 -281 "},"":{"ha":1303,"x_min":0,"x_max":0,"o":"m 644 744 l 378 -11 l 346 -11 l 29 958 l 181 958 l 418 210 l 422 210 l 686 960 l 719 960 l 974 201 l 978 201 l 1231 958 l 1271 958 l 943 -11 l 911 -11 l 647 744 m 514 1057 l 676 1217 l 722 1217 l 886 1057 l 871 1043 l 700 1131 l 529 1043 "},"":{"ha":960,"x_min":0,"x_max":0,"o":"m 481 485 l 290 -7 l 257 -7 l 24 642 l 154 642 l 319 158 l 322 158 l 510 642 l 542 642 l 726 158 l 731 158 l 908 642 l 943 642 l 699 -7 l 664 -7 l 483 485 m 340 774 l 496 963 l 542 963 l 699 774 l 681 761 l 519 876 l 358 761 "}}}
